SplineFontDB: 3.0
FontName: Chivo-BlackItalic
FullName: Chivo Black Italic
FamilyName: Chivo
Weight: Black
Copyright: Copyright (c) 2011-2014 by Omnibus-Type (www.omnibus-type.com omnibus.type@gmail.com), with Reserved Font Name 'Chivo'
UComments: "Disclaimer+AAoA +AAoA-Omnibus-Type give no warranty in relation to this font, and you use this+AAoA-at your own risk.+AAoA +AAoA-Omnibus-Type shall not be liable for any direct, indirect, consequential, or incidental damages (including damages from loss of business profits, business interruption, loss of business information, and the like) arising out of the use of or inability to use the fonts.+AAoA +AAoA +AAoA-If you have further questions, please contact us:+AAoA-omnibus.type@gmail.com" 

StartChar: .notdef
Encoding: 65536 -1 0
Width: 500
Flags: MW
HStem: 0 50<80 420 80 500> 650 50<80 80 80 420>
VStem: 0 50<95 95 95 605> 450 50<95 605 605 605>
LayerCount: 2
Fore
SplineSet
500 0 m 1,0,-1
 0 0 l 1,1,-1
 0 700 l 1,2,-1
 500 700 l 1,3,-1
 500 0 l 1,0,-1
80 650 m 1,4,-1
 250 395 l 1,5,-1
 420 650 l 1,6,-1
 80 650 l 1,4,-1
50 95 m 1,7,-1
 220 350 l 1,8,-1
 50 605 l 1,9,-1
 50 95 l 1,7,-1
280 350 m 1,10,-1
 450 95 l 1,11,-1
 450 605 l 1,12,-1
 280 350 l 1,10,-1
80 50 m 1,13,-1
 420 50 l 1,14,-1
 250 305 l 1,15,-1
 80 50 l 1,13,-1
EndSplineSet
EndChar

StartChar: A
Encoding: 65 65 1
Width: 709
GlyphClass: 2
Flags: MW
HStem: 122 145<283 405 283 432 214 405> 475 211<371 371 371 376> 666 20G<281 542 542 542>
VStem: -44 718<0 0>
LayerCount: 2
Fore
SplineSet
674 0 m 1,0,-1
 456 0 l 1,1,-1
 432 122 l 1,2,-1
 214 122 l 1,3,-1
 157 0 l 1,4,-1
 -44 0 l 1,5,-1
 281 686 l 1,6,-1
 542 686 l 1,7,-1
 674 0 l 1,0,-1
371 475 m 1,8,-1
 283 267 l 1,9,-1
 405 267 l 1,10,-1
 376 475 l 1,11,-1
 371 475 l 1,8,-1
EndSplineSet
Substitution2: "Single Substitution lookup 5 subtable" ordfeminine
Substitution2: "'aalt' Access All Alternates lookup 0 subtable" ordfeminine
Position2: "'cpsp' Capital Spacing lookup 0 subtable" dx=5 dy=0 dh=10 dv=0
EndChar

StartChar: Aacute
Encoding: 193 193 2
Width: 709
GlyphClass: 2
Flags: MW
HStem: 122 145<283 405 283 432 214 405> 475 211<371 371 371 376> 666 20G<281 542 542 542> 750 145<468 474 356 619>
VStem: -44 718<0 0>
LayerCount: 2
Fore
SplineSet
620 892 m 1,0,-1
 474 750 l 1,1,-1
 356 750 l 1,2,-1
 468 895 l 1,3,-1
 619 895 l 1,4,-1
 620 892 l 1,0,-1
674 0 m 1,5,-1
 456 0 l 1,6,-1
 432 122 l 1,7,-1
 214 122 l 1,8,-1
 157 0 l 1,9,-1
 -44 0 l 1,10,-1
 281 686 l 1,11,-1
 542 686 l 1,12,-1
 674 0 l 1,5,-1
371 475 m 1,13,-1
 283 267 l 1,14,-1
 405 267 l 1,15,-1
 376 475 l 1,16,-1
 371 475 l 1,13,-1
EndSplineSet
Position2: "'cpsp' Capital Spacing lookup 0 subtable" dx=5 dy=0 dh=10 dv=0
EndChar

StartChar: Abreve
Encoding: 258 258 3
Width: 709
GlyphClass: 2
Flags: MW
HStem: 122 145<283 405 283 432 214 405> 475 211<371 371 371 376> 666 20G<281 542 542 542> 788 86<404.5 458 404.5 484.5>
VStem: -44 718<0 0> 239 96<906.5 912 906.5 912> 529 95<906.5 912>
LayerCount: 2
Fore
SplineSet
529 912 m 1,0,-1
 624 912 l 1,1,2
 624 868 624 868 566 828 c 128,-1,3
 508 788 508 788 431 788 c 128,-1,4
 354 788 354 788 296.5 828 c 128,-1,5
 239 868 239 868 239 912 c 1,6,-1
 335 912 l 1,7,8
 335 906 335 906 347.5 897.5 c 128,-1,9
 360 889 360 889 383 881.5 c 128,-1,10
 406 874 406 874 431 874 c 128,-1,11
 456 874 456 874 479.5 881.5 c 128,-1,12
 503 889 503 889 516 897.5 c 128,-1,13
 529 906 529 906 529 912 c 1,0,-1
674 0 m 1,14,-1
 456 0 l 1,15,-1
 432 122 l 1,16,-1
 214 122 l 1,17,-1
 157 0 l 1,18,-1
 -44 0 l 1,19,-1
 281 686 l 1,20,-1
 542 686 l 1,21,-1
 674 0 l 1,14,-1
371 475 m 1,22,-1
 283 267 l 1,23,-1
 405 267 l 1,24,-1
 376 475 l 1,25,-1
 371 475 l 1,22,-1
EndSplineSet
EndChar

StartChar: Acircumflex
Encoding: 194 194 4
Width: 709
GlyphClass: 2
Flags: MW
HStem: 122 145<283 405 283 432 214 405> 475 211<371 371 371 376> 666 20G<281 542 542 542> 751 145<211 499 487 499 371 617 487 487>
VStem: -44 718<0 0>
LayerCount: 2
Fore
SplineSet
617 751 m 1,0,-1
 487 751 l 1,1,-1
 424 828 l 1,2,-1
 339 751 l 1,3,-1
 211 751 l 1,4,-1
 371 896 l 1,5,-1
 499 896 l 1,6,-1
 617 751 l 1,0,-1
674 0 m 1,7,-1
 456 0 l 1,8,-1
 432 122 l 1,9,-1
 214 122 l 1,10,-1
 157 0 l 1,11,-1
 -44 0 l 1,12,-1
 281 686 l 1,13,-1
 542 686 l 1,14,-1
 674 0 l 1,7,-1
371 475 m 1,15,-1
 283 267 l 1,16,-1
 405 267 l 1,17,-1
 376 475 l 1,18,-1
 371 475 l 1,15,-1
EndSplineSet
Position2: "'cpsp' Capital Spacing lookup 0 subtable" dx=5 dy=0 dh=10 dv=0
EndChar

StartChar: Adieresis
Encoding: 196 196 5
Width: 709
GlyphClass: 2
Flags: MW
HStem: 122 145<283 405 283 432 214 405> 475 211<371 371 371 376> 666 20G<281 542 542 542> 750 147<249 380 228 401 249 448 469 600>
VStem: -44 718<0 0>
LayerCount: 2
Fore
SplineSet
380 750 m 1,0,-1
 228 750 l 1,1,-1
 249 897 l 1,2,-1
 401 897 l 1,3,-1
 380 750 l 1,0,-1
600 750 m 1,4,-1
 448 750 l 1,5,-1
 469 897 l 1,6,-1
 621 897 l 1,7,-1
 600 750 l 1,4,-1
674 0 m 1,8,-1
 456 0 l 1,9,-1
 432 122 l 1,10,-1
 214 122 l 1,11,-1
 157 0 l 1,12,-1
 -44 0 l 1,13,-1
 281 686 l 1,14,-1
 542 686 l 1,15,-1
 674 0 l 1,8,-1
371 475 m 1,16,-1
 283 267 l 1,17,-1
 405 267 l 1,18,-1
 376 475 l 1,19,-1
 371 475 l 1,16,-1
EndSplineSet
Position2: "'cpsp' Capital Spacing lookup 0 subtable" dx=5 dy=0 dh=10 dv=0
EndChar

StartChar: Agrave
Encoding: 192 192 6
Width: 709
GlyphClass: 2
Flags: MW
HStem: 122 145<283 405 283 432 214 405> 475 211<371 371 371 376> 666 20G<281 542 542 542> 750 145<354 402 251 472 354 354>
VStem: -44 718<0 0>
LayerCount: 2
Fore
SplineSet
472 750 m 1,0,-1
 354 750 l 1,1,-1
 248 892 l 1,2,-1
 251 895 l 1,3,-1
 402 895 l 1,4,-1
 472 750 l 1,0,-1
674 0 m 1,5,-1
 456 0 l 1,6,-1
 432 122 l 1,7,-1
 214 122 l 1,8,-1
 157 0 l 1,9,-1
 -44 0 l 1,10,-1
 281 686 l 1,11,-1
 542 686 l 1,12,-1
 674 0 l 1,5,-1
371 475 m 1,13,-1
 283 267 l 1,14,-1
 405 267 l 1,15,-1
 376 475 l 1,16,-1
 371 475 l 1,13,-1
EndSplineSet
Position2: "'cpsp' Capital Spacing lookup 0 subtable" dx=5 dy=0 dh=10 dv=0
EndChar

StartChar: Amacron
Encoding: 256 256 7
Width: 709
GlyphClass: 2
Flags: MW
HStem: 122 145<283 405 283 432 214 405> 475 211<371 371 371 376> 666 20G<281 542 542 542> 837 74<263 581 263 581>
VStem: 263 318<837 911 837 911>
LayerCount: 2
Fore
SplineSet
581 837 m 1,0,-1
 263 837 l 1,1,-1
 263 911 l 1,2,-1
 581 911 l 1,3,-1
 581 837 l 1,0,-1
674 0 m 1,4,-1
 456 0 l 1,5,-1
 432 122 l 1,6,-1
 214 122 l 1,7,-1
 157 0 l 1,8,-1
 -44 0 l 1,9,-1
 281 686 l 1,10,-1
 542 686 l 1,11,-1
 674 0 l 1,4,-1
371 475 m 1,12,-1
 283 267 l 1,13,-1
 405 267 l 1,14,-1
 376 475 l 1,15,-1
 371 475 l 1,12,-1
EndSplineSet
EndChar

StartChar: Aogonek
Encoding: 260 260 8
Width: 709
GlyphClass: 2
Flags: MW
HStem: -143 53<568.5 633.5> 122 145<283 405 283 432 214 405> 475 211<371 376 371 371> 666 20G<281 542 542 542>
VStem: 503 79<-72.5 -63.5>
LayerCount: 2
Fore
SplineSet
691 -76 m 1,0,-1
 698 -119 l 1,1,2
 646 -143 646 -143 599.5 -143 c 0,3,4
 503 -143 503 -143 503 -83 c 0,5,6
 503 -39 503 -39 568 0 c 1,7,-1
 456 0 l 1,8,-1
 432 122 l 1,9,-1
 214 122 l 1,10,-1
 157 0 l 1,11,-1
 -44 0 l 1,12,-1
 281 686 l 1,13,-1
 542 686 l 1,14,-1
 674 0 l 1,15,-1
 638 0 l 1,16,17
 621 -10 621 -10 612 -15.5 c 128,-1,18
 603 -21 603 -21 592.5 -34.5 c 128,-1,19
 582 -48 582 -48 582 -62 c 0,20,21
 582 -90 582 -90 622 -90 c 0,22,23
 651 -90 651 -90 691 -76 c 1,0,-1
405 267 m 1,24,-1
 376 475 l 1,25,-1
 371 475 l 1,26,-1
 283 267 l 1,27,-1
 405 267 l 1,24,-1
EndSplineSet
EndChar

StartChar: Aring
Encoding: 197 197 9
Width: 709
GlyphClass: 2
Flags: MW
HStem: 122 145<283 405 283 432 214 405> 475 211<371 371 371 376> 666 20G<281 542 542 542> 736 65<410.5 429.5 410.5 442> 871 66<417.5 438.5>
VStem: 322 67<822.5 842.5 822.5 854> 460 66<826.5 849.5>
LayerCount: 2
Fore
SplineSet
357 903 m 128,-1,1
 392 937 392 937 434.5 937 c 128,-1,2
 477 937 477 937 501.5 912.5 c 128,-1,3
 526 888 526 888 526 845.5 c 128,-1,4
 526 803 526 803 492 769.5 c 128,-1,5
 458 736 458 736 415 736 c 128,-1,6
 372 736 372 736 347 760.5 c 128,-1,7
 322 785 322 785 322 827 c 128,-1,0
 322 869 322 869 357 903 c 128,-1,1
429 871 m 0,8,9
 412 871 412 871 400.5 859.5 c 128,-1,10
 389 848 389 848 389 833 c 128,-1,11
 389 818 389 818 397.5 809.5 c 128,-1,12
 406 801 406 801 421 801 c 128,-1,13
 436 801 436 801 448 811 c 128,-1,14
 460 821 460 821 460 840 c 0,15,16
 460 871 460 871 429 871 c 0,8,9
674 0 m 1,17,-1
 456 0 l 1,18,-1
 432 122 l 1,19,-1
 214 122 l 1,20,-1
 157 0 l 1,21,-1
 -44 0 l 1,22,-1
 281 686 l 1,23,-1
 542 686 l 1,24,-1
 674 0 l 1,17,-1
371 475 m 1,25,-1
 283 267 l 1,26,-1
 405 267 l 1,27,-1
 376 475 l 1,28,-1
 371 475 l 1,25,-1
EndSplineSet
Position2: "'cpsp' Capital Spacing lookup 0 subtable" dx=5 dy=0 dh=10 dv=0
EndChar

StartChar: Atilde
Encoding: 195 195 10
Width: 709
GlyphClass: 2
Flags: MW
HStem: 122 145<283 405 283 432 214 405> 475 211<371 371 371 376> 666 20G<281 542 542 542> 746 103<489 528.5 489 535.5> 786 103<312.5 351.5>
VStem: -44 718<0 0>
LayerCount: 2
Fore
SplineSet
572 889 m 1,0,-1
 653 889 l 1,1,2
 644 832 644 832 599 789 c 128,-1,3
 554 746 554 746 492 746 c 0,4,5
 459 746 459 746 404.5 766 c 128,-1,6
 350 786 350 786 325 786 c 0,7,8
 288 786 288 786 269 746 c 1,9,-1
 189 746 l 1,10,11
 198 803 198 803 243 846 c 128,-1,12
 288 889 288 889 349 889 c 0,13,14
 382 889 382 889 436 869 c 128,-1,15
 490 849 490 849 516 849 c 0,16,17
 553 849 553 849 572 889 c 1,0,-1
674 0 m 1,18,-1
 456 0 l 1,19,-1
 432 122 l 1,20,-1
 214 122 l 1,21,-1
 157 0 l 1,22,-1
 -44 0 l 1,23,-1
 281 686 l 1,24,-1
 542 686 l 1,25,-1
 674 0 l 1,18,-1
371 475 m 1,26,-1
 283 267 l 1,27,-1
 405 267 l 1,28,-1
 376 475 l 1,29,-1
 371 475 l 1,26,-1
EndSplineSet
Position2: "'cpsp' Capital Spacing lookup 0 subtable" dx=5 dy=0 dh=10 dv=0
EndChar

StartChar: AE
Encoding: 198 198 11
Width: 1011
GlyphClass: 2
Flags: MW
HStem: 0 164<656 942 656 942> 122 145<311 433 311 439 221 433> 275 153<656 950 656 656> 528 158<642 997 642 642>
VStem: 433 209<428 475 475 475> 439 217<0 275 122 275>
LayerCount: 2
Fore
SplineSet
997 528 m 1,0,-1
 642 528 l 1,1,-1
 642 428 l 1,2,-1
 971 428 l 1,3,-1
 950 275 l 1,4,-1
 656 275 l 1,5,-1
 656 164 l 1,6,-1
 942 164 l 1,7,-1
 942 0 l 1,8,-1
 439 0 l 1,9,-1
 439 122 l 1,10,-1
 221 122 l 1,11,-1
 146 0 l 1,12,-1
 -53 0 l 1,13,-1
 368 686 l 1,14,-1
 1039 686 l 1,15,-1
 997 528 l 1,0,-1
428 475 m 1,16,-1
 311 267 l 1,17,-1
 433 267 l 1,18,-1
 433 475 l 1,19,-1
 428 475 l 1,16,-1
EndSplineSet
Position2: "'cpsp' Capital Spacing lookup 0 subtable" dx=5 dy=0 dh=10 dv=0
EndChar

StartChar: B
Encoding: 66 66 12
Width: 656
GlyphClass: 2
Flags: MW
HStem: 0 159<232 359 359 372 232 398> 277 146<248 384 269 375> 540 146<285 285 285 400>
VStem: 418 198<234 246.5> 443 203<497 509.5>
LayerCount: 2
Fore
SplineSet
113 686 m 1,0,-1
 489 686 l 2,1,2
 557 686 557 686 601.5 644 c 128,-1,3
 646 602 646 602 646 540 c 0,4,5
 646 399 646 399 508 358 c 1,6,-1
 507 354 l 1,7,8
 616 327 616 327 616 218 c 0,9,10
 616 132 616 132 555.5 66 c 128,-1,11
 495 0 495 0 398 0 c 2,12,-1
 16 0 l 1,13,-1
 113 686 l 1,0,-1
285 540 m 1,14,-1
 269 423 l 1,15,-1
 384 423 l 2,16,17
 404 423 404 423 422 438 c 128,-1,18
 440 453 440 453 441 473 c 2,19,-1
 443 497 l 1,20,21
 443 516 443 516 431 528 c 128,-1,22
 419 540 419 540 400 540 c 2,23,-1
 285 540 l 1,14,-1
248 277 m 1,24,-1
 232 159 l 1,25,-1
 359 159 l 2,26,27
 379 159 379 159 397 174 c 128,-1,28
 415 189 415 189 416 209 c 2,29,-1
 418 234 l 1,30,31
 418 253 418 253 406 265 c 128,-1,32
 394 277 394 277 375 277 c 2,33,-1
 248 277 l 1,24,-1
EndSplineSet
Position2: "'cpsp' Capital Spacing lookup 0 subtable" dx=5 dy=0 dh=10 dv=0
EndChar

StartChar: C
Encoding: 67 67 13
Width: 684
GlyphClass: 2
Flags: MW
HStem: -10 157<226.5 351 307 351> 540 156<358 426 392 426>
VStem: 27 223<208.5 233 233 240 208.5 250> 484 195<450.5 457 457 483>
AnchorPoint: "Bottom" 342 0 basechar 0
LayerCount: 2
Fore
SplineSet
398 696 m 2,0,-1
 426 696 l 2,1,2
 540 696 540 696 609.5 635 c 128,-1,3
 679 574 679 574 679 460 c 0,4,5
 679 430 679 430 675 405 c 1,6,-1
 478 405 l 1,7,-1
 483 440 l 2,8,9
 484 443 484 443 484 448 c 2,10,-1
 484 457 l 2,11,12
 484 495 484 495 460 517.5 c 128,-1,13
 436 540 436 540 397 540 c 2,14,-1
 392 540 l 2,15,16
 343 540 343 540 313.5 512 c 128,-1,17
 284 484 284 484 278 440 c 2,18,-1
 251 247 l 2,19,20
 250 245 250 245 250 240 c 2,21,-1
 250 233 l 2,22,23
 250 196 250 196 274.5 171.5 c 128,-1,24
 299 147 299 147 337 147 c 2,25,-1
 351 147 l 2,26,27
 449 147 449 147 465 247 c 2,28,-1
 470 280 l 1,29,-1
 658 280 l 1,30,31
 638 144 638 144 553.5 67 c 128,-1,32
 469 -10 469 -10 335 -10 c 2,33,-1
 307 -10 l 2,34,35
 183 -10 183 -10 105 57 c 128,-1,36
 27 124 27 124 27 242 c 0,37,38
 27 257 27 257 45.5 393.5 c 0,39,40
 64 530 64 530 162.5 613 c 128,-1,41
 261 696 261 696 398 696 c 2,0,-1
EndSplineSet
Position2: "'cpsp' Capital Spacing lookup 0 subtable" dx=5 dy=0 dh=10 dv=0
EndChar

StartChar: Cacute
Encoding: 262 262 14
Width: 684
GlyphClass: 2
Flags: MW
HStem: -10 157<226.5 351 307 351> 540 156<358 426 392 426> 750 145<462 468 350 613>
VStem: 27 223<208.5 233 233 240 208.5 250> 484 195<450.5 457 457 483>
AnchorPoint: "Bottom" 342 0 basechar 0
LayerCount: 2
Fore
SplineSet
614 892 m 1,0,-1
 468 750 l 1,1,-1
 350 750 l 1,2,-1
 462 895 l 1,3,-1
 613 895 l 1,4,-1
 614 892 l 1,0,-1
398 696 m 2,5,-1
 426 696 l 2,6,7
 540 696 540 696 609.5 635 c 128,-1,8
 679 574 679 574 679 460 c 0,9,10
 679 430 679 430 675 405 c 1,11,-1
 478 405 l 1,12,-1
 483 440 l 2,13,14
 484 443 484 443 484 448 c 2,15,-1
 484 457 l 2,16,17
 484 495 484 495 460 517.5 c 128,-1,18
 436 540 436 540 397 540 c 2,19,-1
 392 540 l 2,20,21
 343 540 343 540 313.5 512 c 128,-1,22
 284 484 284 484 278 440 c 2,23,-1
 251 247 l 2,24,25
 250 245 250 245 250 240 c 2,26,-1
 250 233 l 2,27,28
 250 196 250 196 274.5 171.5 c 128,-1,29
 299 147 299 147 337 147 c 2,30,-1
 351 147 l 2,31,32
 449 147 449 147 465 247 c 2,33,-1
 470 280 l 1,34,-1
 658 280 l 1,35,36
 638 144 638 144 553.5 67 c 128,-1,37
 469 -10 469 -10 335 -10 c 2,38,-1
 307 -10 l 2,39,40
 183 -10 183 -10 105 57 c 128,-1,41
 27 124 27 124 27 242 c 0,42,43
 27 257 27 257 45.5 393.5 c 0,44,45
 64 530 64 530 162.5 613 c 128,-1,46
 261 696 261 696 398 696 c 2,5,-1
EndSplineSet
EndChar

StartChar: Ccaron
Encoding: 268 268 15
Width: 684
GlyphClass: 2
Flags: MW
HStem: -10 157<226.5 351 307 351> 540 156<358 426 392 426> 750 145<377 389 259 505 377 377>
VStem: 27 223<208.5 233 233 240 208.5 250> 484 195<450.5 457 457 483>
AnchorPoint: "Bottom" 342 0 basechar 0
LayerCount: 2
Fore
SplineSet
505 750 m 1,0,-1
 377 750 l 1,1,-1
 259 895 l 1,2,-1
 389 895 l 1,3,-1
 452 818 l 1,4,-1
 537 895 l 1,5,-1
 665 895 l 1,6,-1
 505 750 l 1,0,-1
398 696 m 2,7,-1
 426 696 l 2,8,9
 540 696 540 696 609.5 635 c 128,-1,10
 679 574 679 574 679 460 c 0,11,12
 679 430 679 430 675 405 c 1,13,-1
 478 405 l 1,14,-1
 483 440 l 2,15,16
 484 443 484 443 484 448 c 2,17,-1
 484 457 l 2,18,19
 484 495 484 495 460 517.5 c 128,-1,20
 436 540 436 540 397 540 c 2,21,-1
 392 540 l 2,22,23
 343 540 343 540 313.5 512 c 128,-1,24
 284 484 284 484 278 440 c 2,25,-1
 251 247 l 2,26,27
 250 245 250 245 250 240 c 2,28,-1
 250 233 l 2,29,30
 250 196 250 196 274.5 171.5 c 128,-1,31
 299 147 299 147 337 147 c 2,32,-1
 351 147 l 2,33,34
 449 147 449 147 465 247 c 2,35,-1
 470 280 l 1,36,-1
 658 280 l 1,37,38
 638 144 638 144 553.5 67 c 128,-1,39
 469 -10 469 -10 335 -10 c 2,40,-1
 307 -10 l 2,41,42
 183 -10 183 -10 105 57 c 128,-1,43
 27 124 27 124 27 242 c 0,44,45
 27 257 27 257 45.5 393.5 c 0,46,47
 64 530 64 530 162.5 613 c 128,-1,48
 261 696 261 696 398 696 c 2,7,-1
EndSplineSet
EndChar

StartChar: Ccedilla
Encoding: 199 199 16
Width: 684
GlyphClass: 2
Flags: MW
HStem: -197 58<253 288.5 253 297> -76 59<276 286 268 297> -10 157<226.5 351 307 351> 540 156<358 426 392 426>
VStem: 27 223<208.5 233 233 240 208.5 250> 320 87<-114.5 -100 -100 -92.5> 484 195<450.5 457 457 483>
LayerCount: 2
Fore
SplineSet
398 696 m 2,0,-1
 426 696 l 2,1,2
 540 696 540 696 609.5 635 c 128,-1,3
 679 574 679 574 679 460 c 0,4,5
 679 430 679 430 675 405 c 1,6,-1
 478 405 l 1,7,-1
 483 440 l 2,8,9
 484 443 484 443 484 448 c 2,10,-1
 484 457 l 2,11,12
 484 495 484 495 460 517.5 c 128,-1,13
 436 540 436 540 397 540 c 2,14,-1
 392 540 l 2,15,16
 343 540 343 540 313.5 512 c 128,-1,17
 284 484 284 484 278 440 c 2,18,-1
 251 247 l 2,19,20
 250 244 250 244 250 240 c 2,21,-1
 250 233 l 2,22,23
 250 196 250 196 274.5 171.5 c 128,-1,24
 299 147 299 147 337 147 c 2,25,-1
 351 147 l 2,26,27
 449 147 449 147 465 247 c 2,28,-1
 470 280 l 1,29,-1
 658 280 l 1,30,31
 638 144 638 144 553.5 67 c 128,-1,32
 469 -10 469 -10 335 -10 c 2,33,-1
 307 -10 l 2,34,35
 183 -10 183 -10 105 57 c 128,-1,36
 27 124 27 124 27 242 c 0,37,38
 27 257 27 257 45.5 393.5 c 128,-1,39
 64 530 64 530 162.5 613 c 128,-1,40
 261 696 261 696 398 696 c 2,0,-1
276 -17 m 1,41,-1
 297 -17 l 2,42,43
 407 -17 407 -17 407 -92 c 2,44,-1
 407 -100 l 2,45,46
 407 -128 407 -128 393 -148.5 c 128,-1,47
 379 -169 379 -169 357 -179 c 0,48,49
 317.4 -197 317.4 -197 276 -197 c 0,50,51
 196 -197 196 -197 155 -161 c 1,52,-1
 195 -107 l 1,53,54
 220 -139 220 -139 275 -139 c 0,55,56
 320 -139 320 -139 320 -100 c 0,57,58
 320 -76 320 -76 286 -76 c 2,59,-1
 268 -76 l 1,60,-1
 276 -17 l 1,41,-1
EndSplineSet
Position2: "'cpsp' Capital Spacing lookup 0 subtable" dx=5 dy=0 dh=10 dv=0
EndChar

StartChar: D
Encoding: 68 68 17
Width: 697
GlyphClass: 2
Flags: MW
HStem: 0 159<251 325> 530 156<303 303 303 380>
VStem: 16 667<0 501> 467 216<443 467.5>
LayerCount: 2
Fore
SplineSet
113 686 m 1,0,-1
 422 686 l 2,1,2
 535 686 535 686 609 612 c 128,-1,3
 683 538 683 538 683 428 c 0,4,5
 683 407 683 407 680 386 c 2,6,-1
 667 300 l 2,7,8
 647 170 647 170 556.5 85 c 128,-1,9
 466 0 466 0 325 0 c 2,10,-1
 16 0 l 1,11,-1
 113 686 l 1,0,-1
303 530 m 1,12,-1
 251 159 l 1,13,-1
 328 159 l 2,14,15
 377 159 377 159 406.5 187 c 128,-1,16
 436 215 436 215 442 259 c 2,17,-1
 467 443 l 1,18,19
 467 480 467 480 442.5 505 c 128,-1,20
 418 530 418 530 380 530 c 2,21,-1
 303 530 l 1,12,-1
EndSplineSet
Position2: "'cpsp' Capital Spacing lookup 0 subtable" dx=5 dy=0 dh=10 dv=0
EndChar

StartChar: Eth
Encoding: 208 208 18
Width: 718
GlyphClass: 2
Flags: MW
HStem: 0 159<272 346> 297 94<18 79 5 92 304 368> 530 156<324 324 324 401>
VStem: 5 699<297 501> 488 216<443 467.5>
LayerCount: 2
Fore
SplineSet
134 686 m 1,0,-1
 443 686 l 2,1,2
 556 686 556 686 630 612 c 128,-1,3
 704 538 704 538 704 428 c 0,4,5
 704 407 704 407 701 386 c 2,6,-1
 688 300 l 2,7,8
 668 170 668 170 577.5 85 c 128,-1,9
 487 0 487 0 346 0 c 2,10,-1
 37 0 l 1,11,-1
 79 297 l 1,12,-1
 5 297 l 1,13,-1
 18 391 l 1,14,-1
 92 391 l 1,15,-1
 134 686 l 1,0,-1
324 530 m 1,16,-1
 304 391 l 1,17,-1
 381 391 l 1,18,-1
 368 297 l 1,19,-1
 291 297 l 1,20,-1
 272 159 l 1,21,-1
 349 159 l 2,22,23
 398 159 398 159 427.5 187 c 128,-1,24
 457 215 457 215 463 259 c 2,25,-1
 488 443 l 1,26,27
 488 480 488 480 463.5 505 c 128,-1,28
 439 530 439 530 401 530 c 2,29,-1
 324 530 l 1,16,-1
EndSplineSet
Position2: "'cpsp' Capital Spacing lookup 0 subtable" dx=5 dy=0 dh=10 dv=0
EndChar

StartChar: Dcaron
Encoding: 270 270 19
Width: 697
GlyphClass: 2
Flags: MW
HStem: 0 159<251 325> 530 156<303 303 303 380> 750 145<304 316 186 432 304 304>
VStem: 16 667<0 501> 467 216<443 467.5>
LayerCount: 2
Fore
SplineSet
432 750 m 1,0,-1
 304 750 l 1,1,-1
 186 895 l 1,2,-1
 316 895 l 1,3,-1
 379 818 l 1,4,-1
 464 895 l 1,5,-1
 592 895 l 1,6,-1
 432 750 l 1,0,-1
113 686 m 1,7,-1
 422 686 l 2,8,9
 535 686 535 686 609 612 c 128,-1,10
 683 538 683 538 683 428 c 0,11,12
 683 407 683 407 680 386 c 2,13,-1
 667 300 l 2,14,15
 647 170 647 170 556.5 85 c 128,-1,16
 466 0 466 0 325 0 c 2,17,-1
 16 0 l 1,18,-1
 113 686 l 1,7,-1
303 530 m 1,19,-1
 251 159 l 1,20,-1
 328 159 l 2,21,22
 377 159 377 159 406.5 187 c 128,-1,23
 436 215 436 215 442 259 c 2,24,-1
 467 443 l 1,25,26
 467 480 467 480 442.5 505 c 128,-1,27
 418 530 418 530 380 530 c 2,28,-1
 303 530 l 1,19,-1
EndSplineSet
EndChar

StartChar: Dcroat
Encoding: 272 272 20
Width: 718
GlyphClass: 2
Flags: MW
HStem: 0 159<272 346> 297 94<18 79 5 92 304 368> 530 156<324 324 324 401>
VStem: 5 699<297 501> 488 216<443 467.5>
LayerCount: 2
Fore
SplineSet
134 686 m 1,0,-1
 443 686 l 2,1,2
 556 686 556 686 630 612 c 128,-1,3
 704 538 704 538 704 428 c 0,4,5
 704 407 704 407 701 386 c 2,6,-1
 688 300 l 2,7,8
 668 170 668 170 577.5 85 c 128,-1,9
 487 0 487 0 346 0 c 2,10,-1
 37 0 l 1,11,-1
 79 297 l 1,12,-1
 5 297 l 1,13,-1
 18 391 l 1,14,-1
 92 391 l 1,15,-1
 134 686 l 1,0,-1
324 530 m 1,16,-1
 304 391 l 1,17,-1
 381 391 l 1,18,-1
 368 297 l 1,19,-1
 291 297 l 1,20,-1
 272 159 l 1,21,-1
 349 159 l 2,22,23
 398 159 398 159 427.5 187 c 128,-1,24
 457 215 457 215 463 259 c 2,25,-1
 488 443 l 1,26,27
 488 480 488 480 463.5 505 c 128,-1,28
 439 530 439 530 401 530 c 2,29,-1
 324 530 l 1,16,-1
EndSplineSet
EndChar

StartChar: E
Encoding: 69 69 21
Width: 600
GlyphClass: 2
Flags: MW
HStem: 0 164<245 531 245 531> 275 153<282 539 261 560> 528 158<297 586 297 297>
VStem: 16 612
AnchorPoint: "Bottom" 300 0 basechar 0
LayerCount: 2
Fore
SplineSet
586 528 m 1,0,-1
 297 528 l 1,1,-1
 282 428 l 1,2,-1
 560 428 l 1,3,-1
 539 275 l 1,4,-1
 261 275 l 1,5,-1
 245 164 l 1,6,-1
 531 164 l 1,7,-1
 531 0 l 1,8,-1
 16 0 l 1,9,-1
 113 686 l 1,10,-1
 628 686 l 1,11,-1
 586 528 l 1,0,-1
EndSplineSet
Position2: "'cpsp' Capital Spacing lookup 0 subtable" dx=5 dy=0 dh=10 dv=0
EndChar

StartChar: Eacute
Encoding: 201 201 22
Width: 600
GlyphClass: 2
Flags: MW
HStem: 0 164<245 531 245 531> 275 153<282 539 261 560> 528 158<297 586 297 297> 750 145<420 426 308 571>
VStem: 16 612
LayerCount: 2
Fore
SplineSet
572 892 m 1,0,-1
 426 750 l 1,1,-1
 308 750 l 1,2,-1
 420 895 l 1,3,-1
 571 895 l 1,4,-1
 572 892 l 1,0,-1
586 528 m 1,5,-1
 297 528 l 1,6,-1
 282 428 l 1,7,-1
 560 428 l 1,8,-1
 539 275 l 1,9,-1
 261 275 l 1,10,-1
 245 164 l 1,11,-1
 531 164 l 1,12,-1
 531 0 l 1,13,-1
 16 0 l 1,14,-1
 113 686 l 1,15,-1
 628 686 l 1,16,-1
 586 528 l 1,5,-1
EndSplineSet
Position2: "'cpsp' Capital Spacing lookup 0 subtable" dx=5 dy=0 dh=10 dv=0
EndChar

StartChar: Ecaron
Encoding: 282 282 23
Width: 600
GlyphClass: 2
Flags: MW
HStem: 0 164<245 531 245 531> 275 153<282 539 261 560> 528 158<297 586 297 297> 750 145<305 317 187 433 305 305>
VStem: 16 612
AnchorPoint: "Bottom" 300 0 basechar 0
LayerCount: 2
Fore
SplineSet
433 750 m 1,0,-1
 305 750 l 1,1,-1
 187 895 l 1,2,-1
 317 895 l 1,3,-1
 380 818 l 1,4,-1
 465 895 l 1,5,-1
 593 895 l 1,6,-1
 433 750 l 1,0,-1
586 528 m 1,7,-1
 297 528 l 1,8,-1
 282 428 l 1,9,-1
 560 428 l 1,10,-1
 539 275 l 1,11,-1
 261 275 l 1,12,-1
 245 164 l 1,13,-1
 531 164 l 1,14,-1
 531 0 l 1,15,-1
 16 0 l 1,16,-1
 113 686 l 1,17,-1
 628 686 l 1,18,-1
 586 528 l 1,7,-1
EndSplineSet
EndChar

StartChar: Ecircumflex
Encoding: 202 202 24
Width: 600
GlyphClass: 2
Flags: MW
HStem: 0 164<245 531 245 531> 275 153<282 539 261 560> 528 158<297 586 297 297> 751 145<176 464 452 464 336 582 452 452>
VStem: 16 612
LayerCount: 2
Fore
SplineSet
582 751 m 1,0,-1
 452 751 l 1,1,-1
 389 828 l 1,2,-1
 304 751 l 1,3,-1
 176 751 l 1,4,-1
 336 896 l 1,5,-1
 464 896 l 1,6,-1
 582 751 l 1,0,-1
586 528 m 1,7,-1
 297 528 l 1,8,-1
 282 428 l 1,9,-1
 560 428 l 1,10,-1
 539 275 l 1,11,-1
 261 275 l 1,12,-1
 245 164 l 1,13,-1
 531 164 l 1,14,-1
 531 0 l 1,15,-1
 16 0 l 1,16,-1
 113 686 l 1,17,-1
 628 686 l 1,18,-1
 586 528 l 1,7,-1
EndSplineSet
Position2: "'cpsp' Capital Spacing lookup 0 subtable" dx=5 dy=0 dh=10 dv=0
EndChar

StartChar: Edieresis
Encoding: 203 203 25
Width: 600
GlyphClass: 2
Flags: MW
HStem: 0 164<245 531 245 531> 275 153<282 539 261 560> 528 158<297 586 297 297> 751 147<204 335 183 356 204 403 424 555>
VStem: 16 612
LayerCount: 2
Fore
SplineSet
335 751 m 1,0,-1
 183 751 l 1,1,-1
 204 898 l 1,2,-1
 356 898 l 1,3,-1
 335 751 l 1,0,-1
555 751 m 1,4,-1
 403 751 l 1,5,-1
 424 898 l 1,6,-1
 576 898 l 1,7,-1
 555 751 l 1,4,-1
586 528 m 1,8,-1
 297 528 l 1,9,-1
 282 428 l 1,10,-1
 560 428 l 1,11,-1
 539 275 l 1,12,-1
 261 275 l 1,13,-1
 245 164 l 1,14,-1
 531 164 l 1,15,-1
 531 0 l 1,16,-1
 16 0 l 1,17,-1
 113 686 l 1,18,-1
 628 686 l 1,19,-1
 586 528 l 1,8,-1
EndSplineSet
Position2: "'cpsp' Capital Spacing lookup 0 subtable" dx=5 dy=0 dh=10 dv=0
EndChar

StartChar: Edotaccent
Encoding: 278 278 26
Width: 600
GlyphClass: 2
Flags: MW
HStem: 0 164<245 531 245 531> 275 153<282 539 261 560> 528 158<297 586 297 297> 779 132<358.5 379.5>
VStem: 303 134<834 855.5>
AnchorPoint: "Bottom" 300 0 basechar 0
LayerCount: 2
Fore
SplineSet
325.5 888.5 m 128,-1,1
 348 911 348 911 376.5 911 c 128,-1,2
 405 911 405 911 421 894.5 c 128,-1,3
 437 878 437 878 437 851 c 128,-1,4
 437 824 437 824 413.5 801.5 c 128,-1,5
 390 779 390 779 362.5 779 c 128,-1,6
 335 779 335 779 319 795 c 128,-1,7
 303 811 303 811 303 838.5 c 128,-1,0
 303 866 303 866 325.5 888.5 c 128,-1,1
586 528 m 1,8,-1
 297 528 l 1,9,-1
 282 428 l 1,10,-1
 560 428 l 1,11,-1
 539 275 l 1,12,-1
 261 275 l 1,13,-1
 245 164 l 1,14,-1
 531 164 l 1,15,-1
 531 0 l 1,16,-1
 16 0 l 1,17,-1
 113 686 l 1,18,-1
 628 686 l 1,19,-1
 586 528 l 1,8,-1
EndSplineSet
EndChar

StartChar: Egrave
Encoding: 200 200 27
Width: 600
GlyphClass: 2
Flags: MW
HStem: 0 164<245 531 245 531> 275 153<282 539 261 560> 528 158<297 586 297 297> 751 145<322 370 219 440 322 322>
VStem: 16 612
LayerCount: 2
Fore
SplineSet
440 751 m 1,0,-1
 322 751 l 1,1,-1
 216 893 l 1,2,-1
 219 896 l 1,3,-1
 370 896 l 1,4,-1
 440 751 l 1,0,-1
586 528 m 1,5,-1
 297 528 l 1,6,-1
 282 428 l 1,7,-1
 560 428 l 1,8,-1
 539 275 l 1,9,-1
 261 275 l 1,10,-1
 245 164 l 1,11,-1
 531 164 l 1,12,-1
 531 0 l 1,13,-1
 16 0 l 1,14,-1
 113 686 l 1,15,-1
 628 686 l 1,16,-1
 586 528 l 1,5,-1
EndSplineSet
Position2: "'cpsp' Capital Spacing lookup 0 subtable" dx=5 dy=0 dh=10 dv=0
EndChar

StartChar: Emacron
Encoding: 274 274 28
Width: 600
GlyphClass: 2
Flags: MW
HStem: 0 164<245 531 245 531> 275 153<282 539 261 560> 528 158<297 586 297 297> 837 74<201 519 201 519>
VStem: 201 318<837 911 837 911>
AnchorPoint: "Bottom" 300 0 basechar 0
LayerCount: 2
Fore
SplineSet
519 837 m 1,0,-1
 201 837 l 1,1,-1
 201 911 l 1,2,-1
 519 911 l 1,3,-1
 519 837 l 1,0,-1
586 528 m 1,4,-1
 297 528 l 1,5,-1
 282 428 l 1,6,-1
 560 428 l 1,7,-1
 539 275 l 1,8,-1
 261 275 l 1,9,-1
 245 164 l 1,10,-1
 531 164 l 1,11,-1
 531 0 l 1,12,-1
 16 0 l 1,13,-1
 113 686 l 1,14,-1
 628 686 l 1,15,-1
 586 528 l 1,4,-1
EndSplineSet
EndChar

StartChar: Eogonek
Encoding: 280 280 29
Width: 600
GlyphClass: 2
Flags: MW
HStem: -143 53<440.5 505.5> 0 164<245 440 510 531 510 510> 275 153<282 539 261 560> 528 158<297 297 297 586>
VStem: 375 79<-72.5 -63.5> 440 91<0 164>
AnchorPoint: "Bottom" 300 0 basechar 0
LayerCount: 2
Fore
SplineSet
297 528 m 1,0,-1
 282 428 l 1,1,-1
 560 428 l 1,2,-1
 539 275 l 1,3,-1
 261 275 l 1,4,-1
 245 164 l 1,5,-1
 531 164 l 1,6,-1
 531 0 l 1,7,-1
 510 0 l 1,8,9
 493 -10 493 -10 484 -15.5 c 128,-1,10
 475 -21 475 -21 464.5 -34.5 c 128,-1,11
 454 -48 454 -48 454 -62 c 0,12,13
 454 -90 454 -90 494 -90 c 0,14,15
 523 -90 523 -90 563 -76 c 1,16,-1
 570 -119 l 1,17,18
 518 -143 518 -143 471.5 -143 c 0,19,20
 375 -143 375 -143 375 -83 c 0,21,22
 375 -39 375 -39 440 0 c 1,23,-1
 16 0 l 1,24,-1
 113 686 l 1,25,-1
 628 686 l 1,26,-1
 586 528 l 1,27,-1
 297 528 l 1,0,-1
EndSplineSet
EndChar

StartChar: F
Encoding: 70 70 30
Width: 563
GlyphClass: 2
Flags: MW
HStem: 257 154<279 509 257 531> 523 163<295 566 295 295>
VStem: 16 593
LayerCount: 2
Fore
SplineSet
566 523 m 1,0,-1
 295 523 l 1,1,-1
 279 411 l 1,2,-1
 531 411 l 1,3,-1
 509 257 l 1,4,-1
 257 257 l 1,5,-1
 221 0 l 1,6,-1
 16 0 l 1,7,-1
 113 686 l 1,8,-1
 609 686 l 1,9,-1
 566 523 l 1,0,-1
EndSplineSet
Position2: "'cpsp' Capital Spacing lookup 0 subtable" dx=5 dy=0 dh=10 dv=0
EndChar

StartChar: G
Encoding: 71 71 31
Width: 699
GlyphClass: 2
Flags: MW
HStem: -10 157<200 355 275 355> 248 136<359 456 340 669> 439 257<483 504 407 677 483 483> 540 156<360 435 392 435>
VStem: 28 222<208.5 233 233 240 208.5 251.5> 484 196<449 543 473.5 487.5>
AnchorPoint: "Bottom" 350 0 basechar 0
LayerCount: 2
Fore
SplineSet
680 479 m 0,0,1
 680 460 680 460 677 439 c 1,2,-1
 483 439 l 1,3,4
 484 442 484 442 484 449 c 2,5,-1
 484 459 l 2,6,7
 484 500 484 500 460 520 c 128,-1,8
 436 540 436 540 397 540 c 2,9,-1
 392 540 l 2,10,11
 345 540 345 540 314.5 512 c 128,-1,12
 284 484 284 484 278 440 c 2,13,-1
 251 247 l 2,14,15
 250 244 250 244 250 240 c 2,16,-1
 250 233 l 2,17,18
 250 196 250 196 274.5 171.5 c 128,-1,19
 299 147 299 147 337 147 c 2,20,-1
 355 147 l 2,21,22
 397 147 397 147 423 173.5 c 128,-1,23
 449 200 449 200 456 248 c 1,24,-1
 340 248 l 1,25,-1
 359 384 l 1,26,-1
 669 384 l 1,27,-1
 636 144 l 1,28,29
 622 62 622 62 622 0 c 1,30,-1
 510 0 l 1,31,-1
 493 73 l 1,32,33
 407 -10 407 -10 285 -10 c 2,34,-1
 275 -10 l 2,35,36
 164 -10 164 -10 96 62 c 128,-1,37
 28 134 28 134 28 244 c 0,38,39
 28 266 28 266 31 290 c 2,40,-1
 46 396 l 2,41,42
 64 526 64 526 160 611 c 128,-1,43
 256 696 256 696 407 696 c 2,44,-1
 435 696 l 2,45,46
 540 696 540 696 610 635 c 128,-1,47
 680 574 680 574 680 479 c 0,0,1
EndSplineSet
Position2: "'cpsp' Capital Spacing lookup 0 subtable" dx=5 dy=0 dh=10 dv=0
EndChar

StartChar: Gbreve
Encoding: 286 286 32
Width: 699
GlyphClass: 2
Flags: MW
HStem: -10 157<200 355 275 355> 248 136<359 456 340 669> 439 257<483 504 407 677 483 483> 540 156<360 435 392 435> 788 86<402.5 456 402.5 482.5>
VStem: 28 222<208.5 233 233 240 208.5 251.5> 237 96<906.5 912 906.5 912> 484 196<449 543 473.5 487.5> 527 95<906.5 912>
AnchorPoint: "Bottom" 350 0 basechar 0
LayerCount: 2
Fore
SplineSet
527 912 m 1,0,-1
 622 912 l 1,1,2
 622 868 622 868 564 828 c 128,-1,3
 506 788 506 788 429 788 c 128,-1,4
 352 788 352 788 294.5 828 c 128,-1,5
 237 868 237 868 237 912 c 1,6,-1
 333 912 l 1,7,8
 333 906 333 906 345.5 897.5 c 128,-1,9
 358 889 358 889 381 881.5 c 128,-1,10
 404 874 404 874 429 874 c 128,-1,11
 454 874 454 874 477.5 881.5 c 128,-1,12
 501 889 501 889 514 897.5 c 128,-1,13
 527 906 527 906 527 912 c 1,0,-1
680 479 m 0,14,15
 680 460 680 460 677 439 c 1,16,-1
 483 439 l 1,17,18
 484 442 484 442 484 449 c 2,19,-1
 484 459 l 2,20,21
 484 500 484 500 460 520 c 128,-1,22
 436 540 436 540 397 540 c 2,23,-1
 392 540 l 2,24,25
 345 540 345 540 314.5 512 c 128,-1,26
 284 484 284 484 278 440 c 2,27,-1
 251 247 l 2,28,29
 250 244 250 244 250 240 c 2,30,-1
 250 233 l 2,31,32
 250 196 250 196 274.5 171.5 c 128,-1,33
 299 147 299 147 337 147 c 2,34,-1
 355 147 l 2,35,36
 397 147 397 147 423 173.5 c 128,-1,37
 449 200 449 200 456 248 c 1,38,-1
 340 248 l 1,39,-1
 359 384 l 1,40,-1
 669 384 l 1,41,-1
 636 144 l 1,42,43
 622 62 622 62 622 0 c 1,44,-1
 510 0 l 1,45,-1
 493 73 l 1,46,47
 407 -10 407 -10 285 -10 c 2,48,-1
 275 -10 l 2,49,50
 164 -10 164 -10 96 62 c 128,-1,51
 28 134 28 134 28 244 c 0,52,53
 28 266 28 266 31 290 c 2,54,-1
 46 396 l 2,55,56
 64 526 64 526 160 611 c 128,-1,57
 256 696 256 696 407 696 c 2,58,-1
 435 696 l 2,59,60
 540 696 540 696 610 635 c 128,-1,61
 680 574 680 574 680 479 c 0,14,15
EndSplineSet
EndChar

StartChar: Gcommaaccent
Encoding: 290 290 33
Width: 699
GlyphClass: 2
Flags: MW
HStem: -171 151<251 315 230 442> -10 157<200 355 275 355> 248 136<359 456 340 669> 439 257<483 504 407 677 483 483> 540 156<360 435 392 435>
VStem: 28 222<208.5 233 233 240 208.5 251.5> 484 196<449 543 473.5 487.5>
AnchorPoint: "Bottom" 350 0 basechar 0
LayerCount: 2
Fore
SplineSet
680 479 m 0,0,1
 680 460 680 460 677 439 c 1,2,-1
 483 439 l 1,3,4
 484 442 484 442 484 449 c 2,5,-1
 484 459 l 2,6,7
 484 500 484 500 460 520 c 128,-1,8
 436 540 436 540 397 540 c 2,9,-1
 392 540 l 2,10,11
 345 540 345 540 314.5 512 c 128,-1,12
 284 484 284 484 278 440 c 2,13,-1
 251 247 l 2,14,15
 250 244 250 244 250 240 c 2,16,-1
 250 233 l 2,17,18
 250 196 250 196 274.5 171.5 c 128,-1,19
 299 147 299 147 337 147 c 2,20,-1
 355 147 l 2,21,22
 397 147 397 147 423 173.5 c 128,-1,23
 449 200 449 200 456 248 c 1,24,-1
 340 248 l 1,25,-1
 359 384 l 1,26,-1
 669 384 l 1,27,-1
 636 144 l 1,28,29
 622 62 622 62 622 0 c 1,30,-1
 510 0 l 1,31,-1
 493 73 l 1,32,33
 407 -10 407 -10 285 -10 c 2,34,-1
 275 -10 l 2,35,36
 164 -10 164 -10 96 62 c 128,-1,37
 28 134 28 134 28 244 c 0,38,39
 28 266 28 266 31 290 c 2,40,-1
 46 396 l 2,41,42
 64 526 64 526 160 611 c 128,-1,43
 256 696 256 696 407 696 c 2,44,-1
 435 696 l 2,45,46
 540 696 540 696 610 635 c 128,-1,47
 680 574 680 574 680 479 c 0,0,1
425 -139 m 1,48,-1
 381 -250 l 1,49,-1
 287 -250 l 1,50,-1
 315 -171 l 1,51,-1
 230 -171 l 1,52,-1
 251 -20 l 1,53,-1
 442 -20 l 1,54,-1
 425 -139 l 1,48,-1
EndSplineSet
EndChar

StartChar: H
Encoding: 72 72 34
Width: 697
GlyphClass: 2
Flags: MW
HStem: 267 166<287 427 265 449> 666 20G<113 323 323 323 485 696 696 696>
VStem: 16 680
LayerCount: 2
Fore
SplineSet
599 0 m 1,0,-1
 389 0 l 1,1,-1
 427 267 l 1,2,-1
 265 267 l 1,3,-1
 227 0 l 1,4,-1
 16 0 l 1,5,-1
 113 686 l 1,6,-1
 323 686 l 1,7,-1
 287 433 l 1,8,-1
 449 433 l 1,9,-1
 485 686 l 1,10,-1
 696 686 l 1,11,-1
 599 0 l 1,0,-1
EndSplineSet
Position2: "'cpsp' Capital Spacing lookup 0 subtable" dx=5 dy=0 dh=10 dv=0
EndChar

StartChar: I
Encoding: 73 73 35
Width: 446
GlyphClass: 2
Flags: MW
HStem: 0 148<16 97 309 369 -5 97> 539 147<92 152 71 466 364 445 364 364>
VStem: -5 471
LayerCount: 2
Fore
SplineSet
445 539 m 1,0,-1
 364 539 l 1,1,-1
 309 148 l 1,2,-1
 390 148 l 1,3,-1
 369 0 l 1,4,-1
 -5 0 l 1,5,-1
 16 148 l 1,6,-1
 97 148 l 1,7,-1
 152 539 l 1,8,-1
 71 539 l 1,9,-1
 92 686 l 1,10,-1
 466 686 l 1,11,-1
 445 539 l 1,0,-1
EndSplineSet
Position2: "'cpsp' Capital Spacing lookup 0 subtable" dx=5 dy=0 dh=10 dv=0
EndChar

StartChar: Iacute
Encoding: 205 205 36
Width: 446
GlyphClass: 2
Flags: MW
HStem: 0 148<16 97 309 369 -5 97> 539 147<92 152 71 466 364 445 364 364> 750 145<336 342 224 487>
VStem: -5 493
LayerCount: 2
Fore
SplineSet
488 892 m 1,0,-1
 342 750 l 1,1,-1
 224 750 l 1,2,-1
 336 895 l 1,3,-1
 487 895 l 1,4,-1
 488 892 l 1,0,-1
445 539 m 1,5,-1
 364 539 l 1,6,-1
 309 148 l 1,7,-1
 390 148 l 1,8,-1
 369 0 l 1,9,-1
 -5 0 l 1,10,-1
 16 148 l 1,11,-1
 97 148 l 1,12,-1
 152 539 l 1,13,-1
 71 539 l 1,14,-1
 92 686 l 1,15,-1
 466 686 l 1,16,-1
 445 539 l 1,5,-1
EndSplineSet
Position2: "'cpsp' Capital Spacing lookup 0 subtable" dx=5 dy=0 dh=10 dv=0
EndChar

StartChar: Icircumflex
Encoding: 206 206 37
Width: 446
GlyphClass: 2
Flags: MW
HStem: 0 148<16 97 309 369 -5 97> 539 147<92 152 71 466 364 445 364 364> 750 145<81 369 357 369 241 487 357 357>
VStem: -5 492
LayerCount: 2
Fore
SplineSet
487 750 m 1,0,-1
 357 750 l 1,1,-1
 294 827 l 1,2,-1
 209 750 l 1,3,-1
 81 750 l 1,4,-1
 241 895 l 1,5,-1
 369 895 l 1,6,-1
 487 750 l 1,0,-1
445 539 m 1,7,-1
 364 539 l 1,8,-1
 309 148 l 1,9,-1
 390 148 l 1,10,-1
 369 0 l 1,11,-1
 -5 0 l 1,12,-1
 16 148 l 1,13,-1
 97 148 l 1,14,-1
 152 539 l 1,15,-1
 71 539 l 1,16,-1
 92 686 l 1,17,-1
 466 686 l 1,18,-1
 445 539 l 1,7,-1
EndSplineSet
Position2: "'cpsp' Capital Spacing lookup 0 subtable" dx=5 dy=0 dh=10 dv=0
EndChar

StartChar: Idieresis
Encoding: 207 207 38
Width: 446
GlyphClass: 2
Flags: MW
HStem: 0 148<16 97 309 369 -5 97> 539 147<92 152 71 466 364 445 364 364> 750 147<119 250 98 271 119 318 339 470>
VStem: -5 496
LayerCount: 2
Fore
SplineSet
250 750 m 1,0,-1
 98 750 l 1,1,-1
 119 897 l 1,2,-1
 271 897 l 1,3,-1
 250 750 l 1,0,-1
470 750 m 1,4,-1
 318 750 l 1,5,-1
 339 897 l 1,6,-1
 491 897 l 1,7,-1
 470 750 l 1,4,-1
445 539 m 1,8,-1
 364 539 l 1,9,-1
 309 148 l 1,10,-1
 390 148 l 1,11,-1
 369 0 l 1,12,-1
 -5 0 l 1,13,-1
 16 148 l 1,14,-1
 97 148 l 1,15,-1
 152 539 l 1,16,-1
 71 539 l 1,17,-1
 92 686 l 1,18,-1
 466 686 l 1,19,-1
 445 539 l 1,8,-1
EndSplineSet
Position2: "'cpsp' Capital Spacing lookup 0 subtable" dx=5 dy=0 dh=10 dv=0
EndChar

StartChar: Idotaccent
Encoding: 304 304 39
Width: 446
GlyphClass: 2
Flags: MW
HStem: 0 148<16 97 309 369 -5 97> 539 147<92 152 71 466 364 445 364 364> 779 132<291.5 312.5>
VStem: 236 134<834 855.5>
LayerCount: 2
Fore
SplineSet
258.5 888.5 m 128,-1,1
 281 911 281 911 309.5 911 c 128,-1,2
 338 911 338 911 354 894.5 c 128,-1,3
 370 878 370 878 370 851 c 128,-1,4
 370 824 370 824 346.5 801.5 c 128,-1,5
 323 779 323 779 295.5 779 c 128,-1,6
 268 779 268 779 252 795 c 128,-1,7
 236 811 236 811 236 838.5 c 128,-1,0
 236 866 236 866 258.5 888.5 c 128,-1,1
445 539 m 1,8,-1
 364 539 l 1,9,-1
 309 148 l 1,10,-1
 390 148 l 1,11,-1
 369 0 l 1,12,-1
 -5 0 l 1,13,-1
 16 148 l 1,14,-1
 97 148 l 1,15,-1
 152 539 l 1,16,-1
 71 539 l 1,17,-1
 92 686 l 1,18,-1
 466 686 l 1,19,-1
 445 539 l 1,8,-1
EndSplineSet
EndChar

StartChar: Igrave
Encoding: 204 204 40
Width: 446
GlyphClass: 2
Flags: MW
HStem: 0 148<16 97 309 369 -5 97> 539 147<92 152 71 466 364 445 364 364> 750 145<220 268 117 338 220 220>
VStem: -5 471
LayerCount: 2
Fore
SplineSet
338 750 m 1,0,-1
 220 750 l 1,1,-1
 114 892 l 1,2,-1
 117 895 l 1,3,-1
 268 895 l 1,4,-1
 338 750 l 1,0,-1
445 539 m 1,5,-1
 364 539 l 1,6,-1
 309 148 l 1,7,-1
 390 148 l 1,8,-1
 369 0 l 1,9,-1
 -5 0 l 1,10,-1
 16 148 l 1,11,-1
 97 148 l 1,12,-1
 152 539 l 1,13,-1
 71 539 l 1,14,-1
 92 686 l 1,15,-1
 466 686 l 1,16,-1
 445 539 l 1,5,-1
EndSplineSet
Position2: "'cpsp' Capital Spacing lookup 0 subtable" dx=5 dy=0 dh=10 dv=0
EndChar

StartChar: Imacron
Encoding: 298 298 41
Width: 446
GlyphClass: 2
Flags: MW
HStem: 0 148<16 97 309 369 -5 97> 539 147<92 152 71 466 364 445 364 364> 837 74<134 452 134 452>
VStem: 134 318<837 911 837 911>
LayerCount: 2
Fore
SplineSet
452 837 m 1,0,-1
 134 837 l 1,1,-1
 134 911 l 1,2,-1
 452 911 l 1,3,-1
 452 837 l 1,0,-1
445 539 m 1,4,-1
 364 539 l 1,5,-1
 309 148 l 1,6,-1
 390 148 l 1,7,-1
 369 0 l 1,8,-1
 -5 0 l 1,9,-1
 16 148 l 1,10,-1
 97 148 l 1,11,-1
 152 539 l 1,12,-1
 71 539 l 1,13,-1
 92 686 l 1,14,-1
 466 686 l 1,15,-1
 445 539 l 1,4,-1
EndSplineSet
EndChar

StartChar: Iogonek
Encoding: 302 302 42
Width: 446
GlyphClass: 2
Flags: MW
HStem: -143 53<281.5 346.5> 0 148<16 97 16 281 -5 97 351 369 351 351> 539 147<92 152 71 466 364 445 364 364>
VStem: 216 79<-72.5 -63.5>
LayerCount: 2
Fore
SplineSet
364 539 m 1,0,-1
 309 148 l 1,1,-1
 390 148 l 1,2,-1
 369 0 l 1,3,-1
 351 0 l 1,4,5
 334 -10 334 -10 325 -15.5 c 128,-1,6
 316 -21 316 -21 305.5 -34.5 c 128,-1,7
 295 -48 295 -48 295 -62 c 0,8,9
 295 -90 295 -90 335 -90 c 0,10,11
 364 -90 364 -90 404 -76 c 1,12,-1
 411 -119 l 1,13,14
 358 -143 358 -143 312 -143 c 0,15,16
 216 -143 216 -143 216 -83 c 0,17,18
 216 -39 216 -39 281 0 c 1,19,-1
 -5 0 l 1,20,-1
 16 148 l 1,21,-1
 97 148 l 1,22,-1
 152 539 l 1,23,-1
 71 539 l 1,24,-1
 92 686 l 1,25,-1
 466 686 l 1,26,-1
 445 539 l 1,27,-1
 364 539 l 1,0,-1
EndSplineSet
EndChar

StartChar: J
Encoding: 74 74 43
Width: 543
GlyphClass: 2
Flags: MW
HStem: -10 150<124.5 232.5 211 217> 666 20G<339 544 544 544>
VStem: -9 194<147 180 158 180> -9 553<147 686 158 686>
LayerCount: 2
Fore
SplineSet
544 686 m 1,0,-1
 473 180 l 1,1,2
 459 89 459 89 389.5 39.5 c 128,-1,3
 320 -10 320 -10 217 -10 c 2,4,-1
 186 -10 l 2,5,6
 93 -10 93 -10 42 31 c 128,-1,7
 -9 72 -9 72 -9 147 c 2,8,-1
 -9 158 l 2,9,10
 -9 177 -9 177 3 248 c 1,11,-1
 195 248 l 1,12,-1
 190 216 l 2,13,14
 185 188 185 188 185 174.5 c 0,15,16
 185 161 185 161 195.5 150.5 c 128,-1,17
 206 140 206 140 222.5 140 c 0,18,19
 239 140 239 140 252.5 152.5 c 128,-1,20
 266 165 266 165 269 186 c 2,21,-1
 339 686 l 1,22,-1
 544 686 l 1,0,-1
EndSplineSet
Position2: "'cpsp' Capital Spacing lookup 0 subtable" dx=5 dy=0 dh=10 dv=0
EndChar

StartChar: K
Encoding: 75 75 44
Width: 684
GlyphClass: 2
Flags: MW
HStem: 666 20G<113 317 317 317 513 745 745 745>
VStem: 16 729<0 686>
AnchorPoint: "Bottom" 342 0 basechar 0
LayerCount: 2
Fore
SplineSet
497 411 m 1,0,-1
 654 0 l 1,1,-1
 419 0 l 1,2,-1
 335 248 l 1,3,-1
 242 152 l 1,4,-1
 220 0 l 1,5,-1
 16 0 l 1,6,-1
 113 686 l 1,7,-1
 317 686 l 1,8,-1
 279 415 l 1,9,-1
 513 686 l 1,10,-1
 745 686 l 1,11,-1
 497 411 l 1,0,-1
EndSplineSet
Position2: "'cpsp' Capital Spacing lookup 0 subtable" dx=5 dy=0 dh=10 dv=0
EndChar

StartChar: Kcommaaccent
Encoding: 310 310 45
Width: 684
GlyphClass: 2
Flags: MW
HStem: -171 151<243 307 222 434> 666 20G<113 317 317 317 513 745 745 745>
VStem: 16 729<0 686>
AnchorPoint: "Bottom" 342 0 basechar 0
LayerCount: 2
Fore
SplineSet
497 411 m 1,0,-1
 654 0 l 1,1,-1
 419 0 l 1,2,-1
 335 248 l 1,3,-1
 242 152 l 1,4,-1
 220 0 l 1,5,-1
 16 0 l 1,6,-1
 113 686 l 1,7,-1
 317 686 l 1,8,-1
 279 415 l 1,9,-1
 513 686 l 1,10,-1
 745 686 l 1,11,-1
 497 411 l 1,0,-1
417 -139 m 1,12,-1
 373 -250 l 1,13,-1
 279 -250 l 1,14,-1
 307 -171 l 1,15,-1
 222 -171 l 1,16,-1
 243 -20 l 1,17,-1
 434 -20 l 1,18,-1
 417 -139 l 1,12,-1
EndSplineSet
EndChar

StartChar: L
Encoding: 76 76 46
Width: 540
GlyphClass: 2
Flags: MW
HStem: 0 168<252 497 252 497> 666 20G<113 325 325 325>
VStem: 16 481<0 168>
AnchorPoint: "Bottom" 270 0 basechar 0
LayerCount: 2
Fore
SplineSet
252 168 m 1,0,-1
 497 168 l 1,1,-1
 497 0 l 1,2,-1
 16 0 l 1,3,-1
 113 686 l 1,4,-1
 325 686 l 1,5,-1
 252 168 l 1,0,-1
EndSplineSet
Position2: "'cpsp' Capital Spacing lookup 0 subtable" dx=5 dy=0 dh=10 dv=0
EndChar

StartChar: Lacute
Encoding: 313 313 47
Width: 540
GlyphClass: 2
Flags: MW
HStem: 0 168<252 497 252 497> 666 20G<113 325 325 325> 750 145<310 316 198 461>
VStem: 16 481<0 168>
AnchorPoint: "Bottom" 270 0 basechar 0
LayerCount: 2
Fore
SplineSet
462 892 m 1,0,-1
 316 750 l 1,1,-1
 198 750 l 1,2,-1
 310 895 l 1,3,-1
 461 895 l 1,4,-1
 462 892 l 1,0,-1
252 168 m 1,5,-1
 497 168 l 1,6,-1
 497 0 l 1,7,-1
 16 0 l 1,8,-1
 113 686 l 1,9,-1
 325 686 l 1,10,-1
 252 168 l 1,5,-1
EndSplineSet
EndChar

StartChar: Lcaron
Encoding: 317 317 48
Width: 540
GlyphClass: 2
Flags: MW
HStem: 0 168<252 497 252 497> 503 183<418 476 113 392>
VStem: 16 593
AnchorPoint: "Bottom" 270 0 basechar 0
LayerCount: 2
Fore
SplineSet
252 168 m 1,0,-1
 497 168 l 1,1,-1
 497 0 l 1,2,-1
 16 0 l 1,3,-1
 113 686 l 1,4,-1
 325 686 l 1,5,-1
 252 168 l 1,0,-1
586 525 m 1,6,-1
 510 338 l 1,7,-1
 416 338 l 1,8,-1
 476 503 l 1,9,-1
 392 503 l 1,10,-1
 418 686 l 1,11,-1
 609 686 l 1,12,-1
 586 525 l 1,6,-1
EndSplineSet
EndChar

StartChar: Lcommaaccent
Encoding: 315 315 49
Width: 540
GlyphClass: 2
Flags: MW
HStem: -171 151<171 235 150 362> 0 168<252 497 252 497> 666 20G<113 325 325 325>
VStem: 16 481<0 168>
AnchorPoint: "Bottom" 270 0 basechar 0
LayerCount: 2
Fore
SplineSet
252 168 m 1,0,-1
 497 168 l 1,1,-1
 497 0 l 1,2,-1
 16 0 l 1,3,-1
 113 686 l 1,4,-1
 325 686 l 1,5,-1
 252 168 l 1,0,-1
345 -139 m 1,6,-1
 301 -250 l 1,7,-1
 207 -250 l 1,8,-1
 235 -171 l 1,9,-1
 150 -171 l 1,10,-1
 171 -20 l 1,11,-1
 362 -20 l 1,12,-1
 345 -139 l 1,6,-1
EndSplineSet
EndChar

StartChar: Lslash
Encoding: 321 321 50
Width: 555
GlyphClass: 2
Flags: MW
HStem: 0 168<267 506 267 506> 666 20G<128 340 340 340>
VStem: 2 504<0 255>
LayerCount: 2
Fore
SplineSet
313 499 m 1,0,-1
 411 544 l 1,1,-1
 396 439 l 1,2,-1
 299 394 l 1,3,-1
 267 168 l 1,4,-1
 506 168 l 1,5,-1
 506 0 l 1,6,-1
 31 0 l 1,7,-1
 72 288 l 1,8,-1
 2 255 l 1,9,-1
 17 360 l 1,10,-1
 87 393 l 1,11,-1
 128 686 l 1,12,-1
 340 686 l 1,13,-1
 313 499 l 1,0,-1
EndSplineSet
Position2: "'cpsp' Capital Spacing lookup 0 subtable" dx=5 dy=0 dh=10 dv=0
EndChar

StartChar: M
Encoding: 77 77 51
Width: 1004
GlyphClass: 2
Flags: MW
HStem: 440 246<269 274 269 269 754 758 754 754> 666 20G<113 457 457 457 657 1003 1003 1003>
VStem: 16 987<0 686>
LayerCount: 2
Fore
SplineSet
906 0 m 1,0,-1
 696 0 l 1,1,-1
 758 440 l 1,2,-1
 754 440 l 1,3,-1
 572 0 l 1,4,-1
 331 0 l 1,5,-1
 274 440 l 1,6,-1
 269 440 l 1,7,-1
 207 0 l 1,8,-1
 16 0 l 1,9,-1
 113 686 l 1,10,-1
 457 686 l 1,11,-1
 504 320 l 1,12,-1
 508 320 l 1,13,-1
 657 686 l 1,14,-1
 1003 686 l 1,15,-1
 906 0 l 1,0,-1
EndSplineSet
Position2: "'cpsp' Capital Spacing lookup 0 subtable" dx=5 dy=0 dh=10 dv=0
EndChar

StartChar: N
Encoding: 78 78 52
Width: 696
GlyphClass: 2
Flags: MW
HStem: 666 20G<113 289 289 289 501 695 695 695>
VStem: 16 679
AnchorPoint: "Bottom" 348 0 basechar 0
LayerCount: 2
Fore
SplineSet
598 0 m 1,0,-1
 418 0 l 1,1,-1
 282 246 l 1,2,3
 276 254 276 254 265 278 c 2,4,-1
 252 304 l 1,5,-1
 209 0 l 1,6,-1
 16 0 l 1,7,-1
 113 686 l 1,8,-1
 289 686 l 1,9,-1
 429 431 l 1,10,-1
 457 375 l 1,11,-1
 501 686 l 1,12,-1
 695 686 l 1,13,-1
 598 0 l 1,0,-1
EndSplineSet
Position2: "'cpsp' Capital Spacing lookup 0 subtable" dx=5 dy=0 dh=10 dv=0
EndChar

StartChar: Nacute
Encoding: 323 323 53
Width: 696
GlyphClass: 2
Flags: MW
HStem: 666 20G<113 289 289 289 501 695 695 695> 750 145<468 474 356 619>
VStem: 16 679
AnchorPoint: "Bottom" 348 0 basechar 0
LayerCount: 2
Fore
SplineSet
620 892 m 1,0,-1
 474 750 l 1,1,-1
 356 750 l 1,2,-1
 468 895 l 1,3,-1
 619 895 l 1,4,-1
 620 892 l 1,0,-1
598 0 m 1,5,-1
 418 0 l 1,6,-1
 282 246 l 1,7,8
 276 254 276 254 265 278 c 2,9,-1
 252 304 l 1,10,-1
 209 0 l 1,11,-1
 16 0 l 1,12,-1
 113 686 l 1,13,-1
 289 686 l 1,14,-1
 429 431 l 1,15,-1
 457 375 l 1,16,-1
 501 686 l 1,17,-1
 695 686 l 1,18,-1
 598 0 l 1,5,-1
EndSplineSet
EndChar

StartChar: Ncaron
Encoding: 327 327 54
Width: 696
GlyphClass: 2
Flags: MW
HStem: 666 20G<113 289 289 289 501 695 695 695> 750 145<383 395 265 511 383 383>
VStem: 16 679
AnchorPoint: "Bottom" 348 0 basechar 0
LayerCount: 2
Fore
SplineSet
511 750 m 1,0,-1
 383 750 l 1,1,-1
 265 895 l 1,2,-1
 395 895 l 1,3,-1
 458 818 l 1,4,-1
 543 895 l 1,5,-1
 671 895 l 1,6,-1
 511 750 l 1,0,-1
598 0 m 1,7,-1
 418 0 l 1,8,-1
 282 246 l 1,9,10
 276 254 276 254 265 278 c 2,11,-1
 252 304 l 1,12,-1
 209 0 l 1,13,-1
 16 0 l 1,14,-1
 113 686 l 1,15,-1
 289 686 l 1,16,-1
 429 431 l 1,17,-1
 457 375 l 1,18,-1
 501 686 l 1,19,-1
 695 686 l 1,20,-1
 598 0 l 1,7,-1
EndSplineSet
EndChar

StartChar: Ncommaaccent
Encoding: 325 325 55
Width: 696
GlyphClass: 2
Flags: MW
HStem: -171 151<249 313 228 440> 666 20G<113 289 289 289 501 695 695 695>
VStem: 16 679
AnchorPoint: "Bottom" 348 0 basechar 0
LayerCount: 2
Fore
SplineSet
598 0 m 1,0,-1
 418 0 l 1,1,-1
 282 246 l 1,2,3
 276 254 276 254 265 278 c 2,4,-1
 252 304 l 1,5,-1
 209 0 l 1,6,-1
 16 0 l 1,7,-1
 113 686 l 1,8,-1
 289 686 l 1,9,-1
 429 431 l 1,10,-1
 457 375 l 1,11,-1
 501 686 l 1,12,-1
 695 686 l 1,13,-1
 598 0 l 1,0,-1
423 -139 m 1,14,-1
 379 -250 l 1,15,-1
 285 -250 l 1,16,-1
 313 -171 l 1,17,-1
 228 -171 l 1,18,-1
 249 -20 l 1,19,-1
 440 -20 l 1,20,-1
 423 -139 l 1,14,-1
EndSplineSet
EndChar

StartChar: Ntilde
Encoding: 209 209 56
Width: 696
GlyphClass: 2
Flags: MW
HStem: 666 20G<113 289 289 289 501 695 695 695> 746 103<493 532.5 493 539.5> 786 103<316.5 355.5>
VStem: 16 679
LayerCount: 2
Fore
SplineSet
576 889 m 1,0,-1
 657 889 l 1,1,2
 648 832 648 832 603 789 c 128,-1,3
 558 746 558 746 496 746 c 0,4,5
 463 746 463 746 408.5 766 c 128,-1,6
 354 786 354 786 329 786 c 0,7,8
 292 786 292 786 273 746 c 1,9,-1
 193 746 l 1,10,11
 202 803 202 803 247 846 c 128,-1,12
 292 889 292 889 353 889 c 0,13,14
 386 889 386 889 440 869 c 128,-1,15
 494 849 494 849 520 849 c 0,16,17
 557 849 557 849 576 889 c 1,0,-1
598 0 m 1,18,-1
 418 0 l 1,19,-1
 282 246 l 1,20,21
 276 254 276 254 265 278 c 2,22,-1
 252 304 l 1,23,-1
 209 0 l 1,24,-1
 16 0 l 1,25,-1
 113 686 l 1,26,-1
 289 686 l 1,27,-1
 429 431 l 1,28,-1
 457 375 l 1,29,-1
 501 686 l 1,30,-1
 695 686 l 1,31,-1
 598 0 l 1,18,-1
EndSplineSet
Position2: "'cpsp' Capital Spacing lookup 0 subtable" dx=5 dy=0 dh=10 dv=0
EndChar

StartChar: O
Encoding: 79 79 57
Width: 719
GlyphClass: 2
Flags: MW
HStem: -10 157<213 342 337 342 342 345> 540 154<388 392 392 397>
VStem: 28 222<208.5 233 233 240 208.5 262.5> 484 221<451 478>
LayerCount: 2
Fore
SplineSet
388 694 m 2,0,-1
 444 694 l 2,1,2
 557 694 557 694 631 620 c 128,-1,3
 705 546 705 546 705 436 c 0,4,5
 705 423 705 423 686.5 292.5 c 0,6,7
 668 162 668 162 574.5 76 c 128,-1,8
 481 -10 481 -10 345 -10 c 2,9,-1
 289 -10 l 2,10,11
 176 -10 176 -10 102 64 c 128,-1,12
 28 138 28 138 28 248 c 0,13,14
 28 269 28 269 46 395.5 c 0,15,16
 64 522 64 522 158 608 c 128,-1,17
 252 694 252 694 388 694 c 2,0,-1
397 540 m 2,18,-1
 392 540 l 2,19,20
 343 540 343 540 313.5 512 c 128,-1,21
 284 484 284 484 278 440 c 2,22,-1
 251 247 l 2,23,24
 250 245 250 245 250 240 c 2,25,-1
 250 233 l 2,26,27
 250 196 250 196 274.5 171.5 c 128,-1,28
 299 147 299 147 337 147 c 2,29,-1
 342 147 l 2,30,31
 391 147 391 147 420.5 175 c 128,-1,32
 450 203 450 203 456 247 c 2,33,-1
 483 440 l 2,34,35
 484 443 484 443 484 454 c 0,36,37
 484 490 484 490 459.5 515 c 128,-1,38
 435 540 435 540 397 540 c 2,18,-1
EndSplineSet
Substitution2: "Single Substitution lookup 5 subtable" ordmasculine
Substitution2: "'aalt' Access All Alternates lookup 0 subtable" ordmasculine
Position2: "'cpsp' Capital Spacing lookup 0 subtable" dx=5 dy=0 dh=10 dv=0
EndChar

StartChar: Oacute
Encoding: 211 211 58
Width: 719
GlyphClass: 2
Flags: MW
HStem: -10 157<213 342 337 342 342 345> 540 154<388 392 392 397> 750 145<482 488 370 633>
VStem: 28 222<208.5 233 233 240 208.5 262.5> 484 221<451 478>
LayerCount: 2
Fore
SplineSet
634 892 m 1,0,-1
 488 750 l 1,1,-1
 370 750 l 1,2,-1
 482 895 l 1,3,-1
 633 895 l 1,4,-1
 634 892 l 1,0,-1
388 694 m 2,5,-1
 444 694 l 2,6,7
 557 694 557 694 631 620 c 128,-1,8
 705 546 705 546 705 436 c 0,9,10
 705 423 705 423 686.5 292.5 c 0,11,12
 668 162 668 162 574.5 76 c 128,-1,13
 481 -10 481 -10 345 -10 c 2,14,-1
 289 -10 l 2,15,16
 176 -10 176 -10 102 64 c 128,-1,17
 28 138 28 138 28 248 c 0,18,19
 28 269 28 269 46 395.5 c 0,20,21
 64 522 64 522 158 608 c 128,-1,22
 252 694 252 694 388 694 c 2,5,-1
397 540 m 2,23,-1
 392 540 l 2,24,25
 343 540 343 540 313.5 512 c 128,-1,26
 284 484 284 484 278 440 c 2,27,-1
 251 247 l 2,28,29
 250 244 250 244 250 240 c 2,30,-1
 250 233 l 2,31,32
 250 196 250 196 274.5 171.5 c 128,-1,33
 299 147 299 147 337 147 c 2,34,-1
 342 147 l 2,35,36
 391 147 391 147 420.5 175 c 128,-1,37
 450 203 450 203 456 247 c 2,38,-1
 483 440 l 2,39,40
 484 443 484 443 484 454 c 0,41,42
 484 490 484 490 459.5 515 c 128,-1,43
 435 540 435 540 397 540 c 2,23,-1
EndSplineSet
Position2: "'cpsp' Capital Spacing lookup 0 subtable" dx=5 dy=0 dh=10 dv=0
EndChar

StartChar: Ocircumflex
Encoding: 212 212 59
Width: 719
GlyphClass: 2
Flags: MW
HStem: -10 157<213 342 337 342 342 345> 540 154<388 392 392 397> 750 145<222 510 498 510 382 628 498 498>
VStem: 28 222<208.5 233 233 240 208.5 262.5> 484 221<451 478>
LayerCount: 2
Fore
SplineSet
628 750 m 1,0,-1
 498 750 l 1,1,-1
 435 827 l 1,2,-1
 350 750 l 1,3,-1
 222 750 l 1,4,-1
 382 895 l 1,5,-1
 510 895 l 1,6,-1
 628 750 l 1,0,-1
388 694 m 2,7,-1
 444 694 l 2,8,9
 557 694 557 694 631 620 c 128,-1,10
 705 546 705 546 705 436 c 0,11,12
 705 423 705 423 686.5 292.5 c 0,13,14
 668 162 668 162 574.5 76 c 128,-1,15
 481 -10 481 -10 345 -10 c 2,16,-1
 289 -10 l 2,17,18
 176 -10 176 -10 102 64 c 128,-1,19
 28 138 28 138 28 248 c 0,20,21
 28 269 28 269 46 395.5 c 0,22,23
 64 522 64 522 158 608 c 128,-1,24
 252 694 252 694 388 694 c 2,7,-1
397 540 m 2,25,-1
 392 540 l 2,26,27
 343 540 343 540 313.5 512 c 128,-1,28
 284 484 284 484 278 440 c 2,29,-1
 251 247 l 2,30,31
 250 244 250 244 250 240 c 2,32,-1
 250 233 l 2,33,34
 250 196 250 196 274.5 171.5 c 128,-1,35
 299 147 299 147 337 147 c 2,36,-1
 342 147 l 2,37,38
 391 147 391 147 420.5 175 c 128,-1,39
 450 203 450 203 456 247 c 2,40,-1
 483 440 l 2,41,42
 484 443 484 443 484 454 c 0,43,44
 484 490 484 490 459.5 515 c 128,-1,45
 435 540 435 540 397 540 c 2,25,-1
EndSplineSet
Position2: "'cpsp' Capital Spacing lookup 0 subtable" dx=5 dy=0 dh=10 dv=0
EndChar

StartChar: Odieresis
Encoding: 214 214 60
Width: 719
GlyphClass: 2
Flags: MW
HStem: -10 157<213 342 337 342 342 345> 540 154<388 392 392 397> 750 147<264 395 243 416 264 463 484 615>
VStem: 28 222<208.5 233 233 240 208.5 262.5> 484 221<451 478>
LayerCount: 2
Fore
SplineSet
395 750 m 1,0,-1
 243 750 l 1,1,-1
 264 897 l 1,2,-1
 416 897 l 1,3,-1
 395 750 l 1,0,-1
615 750 m 1,4,-1
 463 750 l 1,5,-1
 484 897 l 1,6,-1
 636 897 l 1,7,-1
 615 750 l 1,4,-1
388 694 m 2,8,-1
 444 694 l 2,9,10
 557 694 557 694 631 620 c 128,-1,11
 705 546 705 546 705 436 c 0,12,13
 705 423 705 423 686.5 292.5 c 0,14,15
 668 162 668 162 574.5 76 c 128,-1,16
 481 -10 481 -10 345 -10 c 2,17,-1
 289 -10 l 2,18,19
 176 -10 176 -10 102 64 c 128,-1,20
 28 138 28 138 28 248 c 0,21,22
 28 269 28 269 46 395.5 c 0,23,24
 64 522 64 522 158 608 c 128,-1,25
 252 694 252 694 388 694 c 2,8,-1
397 540 m 2,26,-1
 392 540 l 2,27,28
 343 540 343 540 313.5 512 c 128,-1,29
 284 484 284 484 278 440 c 2,30,-1
 251 247 l 2,31,32
 250 244 250 244 250 240 c 2,33,-1
 250 233 l 2,34,35
 250 196 250 196 274.5 171.5 c 128,-1,36
 299 147 299 147 337 147 c 2,37,-1
 342 147 l 2,38,39
 391 147 391 147 420.5 175 c 128,-1,40
 450 203 450 203 456 247 c 2,41,-1
 483 440 l 2,42,43
 484 443 484 443 484 454 c 0,44,45
 484 490 484 490 459.5 515 c 128,-1,46
 435 540 435 540 397 540 c 2,26,-1
EndSplineSet
Position2: "'cpsp' Capital Spacing lookup 0 subtable" dx=5 dy=0 dh=10 dv=0
EndChar

StartChar: Ograve
Encoding: 210 210 61
Width: 719
GlyphClass: 2
Flags: MW
HStem: -10 157<213 342 337 342 342 345> 540 154<388 392 392 397> 750 145<357 405 254 475 357 357>
VStem: 28 222<208.5 233 233 240 208.5 262.5> 484 221<451 478>
LayerCount: 2
Fore
SplineSet
475 750 m 1,0,-1
 357 750 l 1,1,-1
 251 892 l 1,2,-1
 254 895 l 1,3,-1
 405 895 l 1,4,-1
 475 750 l 1,0,-1
388 694 m 2,5,-1
 444 694 l 2,6,7
 557 694 557 694 631 620 c 128,-1,8
 705 546 705 546 705 436 c 0,9,10
 705 423 705 423 686.5 292.5 c 0,11,12
 668 162 668 162 574.5 76 c 128,-1,13
 481 -10 481 -10 345 -10 c 2,14,-1
 289 -10 l 2,15,16
 176 -10 176 -10 102 64 c 128,-1,17
 28 138 28 138 28 248 c 0,18,19
 28 269 28 269 46 395.5 c 0,20,21
 64 522 64 522 158 608 c 128,-1,22
 252 694 252 694 388 694 c 2,5,-1
397 540 m 2,23,-1
 392 540 l 2,24,25
 343 540 343 540 313.5 512 c 128,-1,26
 284 484 284 484 278 440 c 2,27,-1
 251 247 l 2,28,29
 250 244 250 244 250 240 c 2,30,-1
 250 233 l 2,31,32
 250 196 250 196 274.5 171.5 c 128,-1,33
 299 147 299 147 337 147 c 2,34,-1
 342 147 l 2,35,36
 391 147 391 147 420.5 175 c 128,-1,37
 450 203 450 203 456 247 c 2,38,-1
 483 440 l 2,39,40
 484 443 484 443 484 454 c 0,41,42
 484 490 484 490 459.5 515 c 128,-1,43
 435 540 435 540 397 540 c 2,23,-1
EndSplineSet
Position2: "'cpsp' Capital Spacing lookup 0 subtable" dx=5 dy=0 dh=10 dv=0
EndChar

StartChar: Ohungarumlaut
Encoding: 336 336 62
Width: 719
GlyphClass: 2
Flags: MW
HStem: -10 157<213 342 337 342 342 345> 540 154<388 392 392 397> 750 145<366 372 254 517 481 481 481 517 593 599>
VStem: 28 222<208.5 233 233 240 208.5 262.5> 484 221<451 478>
LayerCount: 2
Fore
SplineSet
518 892 m 1,0,-1
 372 750 l 1,1,-1
 254 750 l 1,2,-1
 366 895 l 1,3,-1
 517 895 l 1,4,-1
 518 892 l 1,0,-1
745 892 m 1,5,-1
 599 750 l 1,6,-1
 481 750 l 1,7,-1
 593 895 l 1,8,-1
 744 895 l 1,9,-1
 745 892 l 1,5,-1
388 694 m 2,10,-1
 444 694 l 2,11,12
 557 694 557 694 631 620 c 128,-1,13
 705 546 705 546 705 436 c 0,14,15
 705 423 705 423 686.5 292.5 c 0,16,17
 668 162 668 162 574.5 76 c 128,-1,18
 481 -10 481 -10 345 -10 c 2,19,-1
 289 -10 l 2,20,21
 176 -10 176 -10 102 64 c 128,-1,22
 28 138 28 138 28 248 c 0,23,24
 28 269 28 269 46 395.5 c 0,25,26
 64 522 64 522 158 608 c 128,-1,27
 252 694 252 694 388 694 c 2,10,-1
397 540 m 2,28,-1
 392 540 l 2,29,30
 343 540 343 540 313.5 512 c 128,-1,31
 284 484 284 484 278 440 c 2,32,-1
 251 247 l 2,33,34
 250 245 250 245 250 240 c 2,35,-1
 250 233 l 2,36,37
 250 196 250 196 274.5 171.5 c 128,-1,38
 299 147 299 147 337 147 c 2,39,-1
 342 147 l 2,40,41
 391 147 391 147 420.5 175 c 128,-1,42
 450 203 450 203 456 247 c 2,43,-1
 483 440 l 2,44,45
 484 443 484 443 484 454 c 0,46,47
 484 490 484 490 459.5 515 c 128,-1,48
 435 540 435 540 397 540 c 2,28,-1
EndSplineSet
EndChar

StartChar: Omacron
Encoding: 332 332 63
Width: 719
GlyphClass: 2
Flags: MW
HStem: -10 157<213 342 337 342 342 345> 540 154<388 392 392 397> 837 74<281 599 281 599>
VStem: 28 222<208.5 233 233 240 208.5 262.5> 281 318<837 911 837 911> 484 221<451 478>
LayerCount: 2
Fore
SplineSet
599 837 m 1,0,-1
 281 837 l 1,1,-1
 281 911 l 1,2,-1
 599 911 l 1,3,-1
 599 837 l 1,0,-1
388 694 m 2,4,-1
 444 694 l 2,5,6
 557 694 557 694 631 620 c 128,-1,7
 705 546 705 546 705 436 c 0,8,9
 705 423 705 423 686.5 292.5 c 0,10,11
 668 162 668 162 574.5 76 c 128,-1,12
 481 -10 481 -10 345 -10 c 2,13,-1
 289 -10 l 2,14,15
 176 -10 176 -10 102 64 c 128,-1,16
 28 138 28 138 28 248 c 0,17,18
 28 269 28 269 46 395.5 c 0,19,20
 64 522 64 522 158 608 c 128,-1,21
 252 694 252 694 388 694 c 2,4,-1
397 540 m 2,22,-1
 392 540 l 2,23,24
 343 540 343 540 313.5 512 c 128,-1,25
 284 484 284 484 278 440 c 2,26,-1
 251 247 l 2,27,28
 250 245 250 245 250 240 c 2,29,-1
 250 233 l 2,30,31
 250 196 250 196 274.5 171.5 c 128,-1,32
 299 147 299 147 337 147 c 2,33,-1
 342 147 l 2,34,35
 391 147 391 147 420.5 175 c 128,-1,36
 450 203 450 203 456 247 c 2,37,-1
 483 440 l 2,38,39
 484 443 484 443 484 454 c 0,40,41
 484 490 484 490 459.5 515 c 128,-1,42
 435 540 435 540 397 540 c 2,22,-1
EndSplineSet
EndChar

StartChar: Oslash
Encoding: 216 216 64
Width: 719
GlyphClass: 2
Flags: MW
HStem: -10 157<267.5 342 337 342 342 345> 540 154<388 392 392 397>
VStem: 4 722
LayerCount: 2
Fore
SplineSet
726 754 m 1,0,-1
 628 623 l 1,1,2
 705 548 705 548 705 436 c 0,3,4
 705 423 705 423 686.5 292.5 c 0,5,6
 668 162 668 162 574.5 76 c 128,-1,7
 481 -10 481 -10 345 -10 c 2,8,-1
 289 -10 l 2,9,10
 229 -10 229 -10 171 15 c 1,11,-1
 111 -65 l 1,12,-1
 4 -65 l 1,13,-1
 101 64 l 1,14,15
 28 137 28 137 28 248 c 0,16,17
 28 269 28 269 46 395.5 c 0,18,19
 64 522 64 522 158 608 c 128,-1,20
 252 694 252 694 388 694 c 2,21,-1
 444 694 l 2,22,23
 502 694 502 694 556 671 c 1,24,-1
 618 754 l 1,25,-1
 726 754 l 1,0,-1
397 540 m 2,26,-1
 392 540 l 2,27,28
 343 540 343 540 313.5 512 c 128,-1,29
 284 484 284 484 278 440 c 2,30,-1
 254 268 l 1,31,-1
 446 525 l 1,32,33
 423 540 423 540 397 540 c 2,26,-1
481 428 m 1,34,-1
 283 164 l 1,35,36
 306 147 306 147 337 147 c 2,37,-1
 342 147 l 2,38,39
 391 147 391 147 420.5 175 c 128,-1,40
 450 203 450 203 456 247 c 2,41,-1
 481 428 l 1,34,-1
EndSplineSet
Position2: "'cpsp' Capital Spacing lookup 0 subtable" dx=5 dy=0 dh=10 dv=0
EndChar

StartChar: Otilde
Encoding: 213 213 65
Width: 719
GlyphClass: 2
Flags: MW
HStem: -10 157<213 342 337 342 342 345> 540 154<388 392 392 397> 745 103<510 549.5 510 556.5> 785 103<333.5 372.5>
VStem: 28 222<208.5 233 233 240 208.5 262.5> 484 221<451 478>
LayerCount: 2
Fore
SplineSet
593 888 m 1,0,-1
 674 888 l 1,1,2
 665 831 665 831 620 788 c 128,-1,3
 575 745 575 745 513 745 c 0,4,5
 480 745 480 745 425.5 765 c 128,-1,6
 371 785 371 785 346 785 c 0,7,8
 309 785 309 785 290 745 c 1,9,-1
 210 745 l 1,10,11
 219 802 219 802 264 845 c 128,-1,12
 309 888 309 888 370 888 c 0,13,14
 403 888 403 888 457 868 c 128,-1,15
 511 848 511 848 537 848 c 0,16,17
 574 848 574 848 593 888 c 1,0,-1
388 694 m 2,18,-1
 444 694 l 2,19,20
 557 694 557 694 631 620 c 128,-1,21
 705 546 705 546 705 436 c 0,22,23
 705 423 705 423 686.5 292.5 c 0,24,25
 668 162 668 162 574.5 76 c 128,-1,26
 481 -10 481 -10 345 -10 c 2,27,-1
 289 -10 l 2,28,29
 176 -10 176 -10 102 64 c 128,-1,30
 28 138 28 138 28 248 c 0,31,32
 28 269 28 269 46 395.5 c 0,33,34
 64 522 64 522 158 608 c 128,-1,35
 252 694 252 694 388 694 c 2,18,-1
397 540 m 2,36,-1
 392 540 l 2,37,38
 343 540 343 540 313.5 512 c 128,-1,39
 284 484 284 484 278 440 c 2,40,-1
 251 247 l 2,41,42
 250 244 250 244 250 240 c 2,43,-1
 250 233 l 2,44,45
 250 196 250 196 274.5 171.5 c 128,-1,46
 299 147 299 147 337 147 c 2,47,-1
 342 147 l 2,48,49
 391 147 391 147 420.5 175 c 128,-1,50
 450 203 450 203 456 247 c 2,51,-1
 483 440 l 2,52,53
 484 443 484 443 484 454 c 0,54,55
 484 490 484 490 459.5 515 c 128,-1,56
 435 540 435 540 397 540 c 2,36,-1
EndSplineSet
Position2: "'cpsp' Capital Spacing lookup 0 subtable" dx=5 dy=0 dh=10 dv=0
EndChar

StartChar: OE
Encoding: 338 338 66
Width: 1004
GlyphClass: 2
Flags: MW
HStem: 0 164<649 935 649 935> 275 153<686 943 665 964> 528 158<701 990 701 701> 532 154<388 392 392 397>
VStem: 28 222<218.5 246 218.5 248>
LayerCount: 2
Fore
SplineSet
990 528 m 1,0,-1
 701 528 l 1,1,-1
 686 428 l 1,2,-1
 964 428 l 1,3,-1
 943 275 l 1,4,-1
 665 275 l 1,5,-1
 649 164 l 1,6,-1
 935 164 l 1,7,-1
 935 0 l 1,8,-1
 289 0 l 2,9,10
 176 0 176 0 102 71 c 128,-1,11
 28 142 28 142 28 248 c 0,12,13
 29 276 29 276 46.5 397.5 c 0,14,15
 64 519 64 519 158 602.5 c 128,-1,16
 252 686 252 686 388 686 c 2,17,-1
 1032 686 l 1,18,-1
 990 528 l 1,0,-1
397 532 m 2,19,-1
 392 532 l 2,20,21
 343 532 343 532 314 504.5 c 128,-1,22
 285 477 285 477 278 432 c 2,23,-1
 251 257 l 2,24,25
 250 254 250 254 250 243 c 0,26,27
 250 206 250 206 274.5 181.5 c 128,-1,28
 299 157 299 157 337 157 c 2,29,-1
 342 157 l 2,30,31
 391 157 391 157 420 184.5 c 128,-1,32
 449 212 449 212 456 257 c 2,33,-1
 483 432 l 2,34,35
 484 435 484 435 484 446 c 0,36,37
 484 483 484 483 459.5 507.5 c 128,-1,38
 435 532 435 532 397 532 c 2,19,-1
EndSplineSet
Position2: "'cpsp' Capital Spacing lookup 0 subtable" dx=5 dy=0 dh=10 dv=0
EndChar

StartChar: P
Encoding: 80 80 67
Width: 645
GlyphClass: 2
Flags: MW
HStem: 244 153<282 374 374 395.5 282 416 261 374> 529 157<301 301 301 393>
VStem: 445 215<478 490.5>
LayerCount: 2
Fore
SplineSet
113 686 m 1,0,-1
 478 686 l 2,1,2
 557 686 557 686 608.5 634 c 128,-1,3
 660 582 660 582 660 505 c 0,4,5
 660 397 660 397 593.5 320.5 c 128,-1,6
 527 244 527 244 416 244 c 2,7,-1
 261 244 l 1,8,-1
 226 0 l 1,9,-1
 16 0 l 1,10,-1
 113 686 l 1,0,-1
301 529 m 1,11,-1
 282 397 l 1,12,-1
 374 397 l 2,13,14
 404 397 404 397 422 415 c 128,-1,15
 440 433 440 433 443 457 c 2,16,-1
 445 478 l 1,17,18
 445 499 445 499 431.5 514 c 128,-1,19
 418 529 418 529 393 529 c 2,20,-1
 301 529 l 1,11,-1
EndSplineSet
Position2: "'cpsp' Capital Spacing lookup 0 subtable" dx=5 dy=0 dh=10 dv=0
EndChar

StartChar: Thorn
Encoding: 222 222 68
Width: 646
GlyphClass: 2
Flags: MW
HStem: 146 148<267 370 370 383.5 267 402 246 370> 427 156<285 463 307 388> 666 20G<113 322 322 322>
VStem: 16 630<0 452.5> 431 215<382.5 396.5>
LayerCount: 2
Fore
SplineSet
307 583 m 1,0,-1
 463 583 l 2,1,2
 542 583 542 583 594 531 c 128,-1,3
 646 479 646 479 646 402 c 0,4,5
 646 296 646 296 576 221 c 128,-1,6
 506 146 506 146 402 146 c 2,7,-1
 246 146 l 1,8,-1
 225 0 l 1,9,-1
 16 0 l 1,10,-1
 113 686 l 1,11,-1
 322 686 l 1,12,-1
 307 583 l 1,0,-1
285 427 m 1,13,-1
 267 294 l 1,14,-1
 370 294 l 2,15,16
 390 294 390 294 407 308.5 c 128,-1,17
 424 323 424 323 427.5 351 c 0,18,19
 431 379 431 379 431 391 c 0,20,21
 431 403 431 403 419 415 c 128,-1,22
 407 427 407 427 388 427 c 2,23,-1
 285 427 l 1,13,-1
EndSplineSet
Position2: "'cpsp' Capital Spacing lookup 0 subtable" dx=5 dy=0 dh=10 dv=0
EndChar

StartChar: Q
Encoding: 81 81 69
Width: 718
GlyphClass: 2
Flags: MW
HStem: -162 123<367 534> 540 154<388 392 392 397>
VStem: 28 222<208.5 233 233 240 208.5 254> 484 220<451 478>
LayerCount: 2
Fore
SplineSet
388 694 m 2,0,-1
 444 694 l 2,1,2
 557 694 557 694 630.5 621 c 128,-1,3
 704 548 704 548 704 437 c 0,4,5
 704 404.666666667 704 404.666666667 698 365.333333333 c 128,-1,6
 692 326 692 326 687 290 c 0,7,8
 672 188 672 188 610 112.5 c 128,-1,9
 548 37 548 37 444 6 c 1,10,11
 457 -39 457 -39 510.5 -39 c 128,-1,12
 564 -39 564 -39 632 -19 c 2,13,-1
 645 -15 l 1,14,-1
 630 -120 l 1,15,16
 546 -162 546 -162 443 -162 c 128,-1,17
 340 -162 340 -162 288.5 -114 c 128,-1,18
 237 -66 237 -66 232 -4 c 1,19,20
 140 14 140 14 84 82.5 c 128,-1,21
 28 151 28 151 28 247 c 0,22,23
 28 266 28 266 44.5 393.5 c 128,-1,24
 61 521 61 521 157.5 607.5 c 128,-1,25
 254 694 254 694 388 694 c 2,0,-1
397 540 m 2,26,-1
 392 540 l 2,27,28
 343 540 343 540 313.5 512 c 128,-1,29
 284 484 284 484 278 440 c 2,30,-1
 251 247 l 2,31,32
 250 244 250 244 250 240 c 2,33,-1
 250 233 l 2,34,35
 250 196 250 196 274.5 171.5 c 128,-1,36
 299 147 299 147 337 147 c 2,37,-1
 342 147 l 2,38,39
 391 147 391 147 420.5 175 c 128,-1,40
 450 203 450 203 456 247 c 2,41,-1
 483 440 l 2,42,43
 484 443 484 443 484 454 c 0,44,45
 484 490 484 490 459.5 515 c 128,-1,46
 435 540 435 540 397 540 c 2,26,-1
EndSplineSet
Position2: "'cpsp' Capital Spacing lookup 0 subtable" dx=5 dy=0 dh=10 dv=0
EndChar

StartChar: R
Encoding: 82 82 70
Width: 682
GlyphClass: 2
Flags: MW
HStem: 266 153<280 316 258 386> 529 157<295 295 295 401>
VStem: 390 208<105.5 202> 443.5 221.5
AnchorPoint: "Bottom" 341 0 basechar 0
LayerCount: 2
Fore
SplineSet
382 88 m 1,0,-1
 390 179 l 1,1,2
 390 266 390 266 316 266 c 2,3,-1
 258 266 l 1,4,-1
 221 0 l 1,5,-1
 16 0 l 1,6,-1
 112 686 l 1,7,-1
 497 686 l 2,8,9
 567 686 567 686 616 645 c 128,-1,10
 665 604 665 604 665 535 c 128,-1,11
 665 466 665 466 622 415 c 128,-1,12
 579 364 579 364 518 354 c 1,13,-1
 517 349 l 1,14,15
 605 322 605 322 605 213 c 1,16,-1
 598 122 l 1,17,18
 598 60 598 60 636 50 c 1,19,-1
 630 9 l 1,20,21
 581 -10 581 -10 513.5 -10 c 128,-1,22
 446 -10 446 -10 414 13 c 128,-1,23
 382 36 382 36 382 88 c 1,0,-1
295 529 m 1,24,-1
 280 419 l 1,25,-1
 386 419 l 2,26,27
 410 419 410 419 425 433 c 128,-1,28
 440 447 440 447 443 469 c 1,29,-1
 444 488 l 2,30,31
 445 505 445 505 431.5 517 c 128,-1,32
 418 529 418 529 401 529 c 2,33,-1
 295 529 l 1,24,-1
EndSplineSet
Position2: "'cpsp' Capital Spacing lookup 0 subtable" dx=5 dy=0 dh=10 dv=0
EndChar

StartChar: Racute
Encoding: 340 340 71
Width: 682
GlyphClass: 2
Flags: MW
HStem: 266 153<280 316 258 386> 529 157<295 295 295 401> 750 145<381 387 269 532>
VStem: 390 208<105.5 202> 443.5 221.5
AnchorPoint: "Bottom" 341 0 basechar 0
LayerCount: 2
Fore
SplineSet
533 892 m 1,0,-1
 387 750 l 1,1,-1
 269 750 l 1,2,-1
 381 895 l 1,3,-1
 532 895 l 1,4,-1
 533 892 l 1,0,-1
382 88 m 1,5,-1
 390 179 l 1,6,7
 390 266 390 266 316 266 c 2,8,-1
 258 266 l 1,9,-1
 221 0 l 1,10,-1
 16 0 l 1,11,-1
 112 686 l 1,12,-1
 497 686 l 2,13,14
 567 686 567 686 616 645 c 128,-1,15
 665 604 665 604 665 535 c 128,-1,16
 665 466 665 466 622 415 c 128,-1,17
 579 364 579 364 518 354 c 1,18,-1
 517 349 l 1,19,20
 605 322 605 322 605 213 c 1,21,-1
 598 122 l 1,22,23
 598 60 598 60 636 50 c 1,24,-1
 630 9 l 1,25,26
 581 -10 581 -10 513.5 -10 c 128,-1,27
 446 -10 446 -10 414 13 c 128,-1,28
 382 36 382 36 382 88 c 1,5,-1
295 529 m 1,29,-1
 280 419 l 1,30,-1
 386 419 l 2,31,32
 410 419 410 419 425 433 c 128,-1,33
 440 447 440 447 443 469 c 1,34,-1
 444 488 l 2,35,36
 445 505 445 505 431.5 517 c 128,-1,37
 418 529 418 529 401 529 c 2,38,-1
 295 529 l 1,29,-1
EndSplineSet
EndChar

StartChar: Rcaron
Encoding: 344 344 72
Width: 682
GlyphClass: 2
Flags: MW
HStem: 266 153<280 316 258 386> 529 157<295 295 295 401> 750 145<296 308 178 424 296 296>
VStem: 390 208<105.5 202> 443.5 221.5
AnchorPoint: "Bottom" 341 0 basechar 0
LayerCount: 2
Fore
SplineSet
424 750 m 1,0,-1
 296 750 l 1,1,-1
 178 895 l 1,2,-1
 308 895 l 1,3,-1
 371 818 l 1,4,-1
 456 895 l 1,5,-1
 584 895 l 1,6,-1
 424 750 l 1,0,-1
382 88 m 1,7,-1
 390 179 l 1,8,9
 390 266 390 266 316 266 c 2,10,-1
 258 266 l 1,11,-1
 221 0 l 1,12,-1
 16 0 l 1,13,-1
 112 686 l 1,14,-1
 497 686 l 2,15,16
 567 686 567 686 616 645 c 128,-1,17
 665 604 665 604 665 535 c 128,-1,18
 665 466 665 466 622 415 c 128,-1,19
 579 364 579 364 518 354 c 1,20,-1
 517 349 l 1,21,22
 605 322 605 322 605 213 c 1,23,-1
 598 122 l 1,24,25
 598 60 598 60 636 50 c 1,26,-1
 630 9 l 1,27,28
 581 -10 581 -10 513.5 -10 c 128,-1,29
 446 -10 446 -10 414 13 c 128,-1,30
 382 36 382 36 382 88 c 1,7,-1
295 529 m 1,31,-1
 280 419 l 1,32,-1
 386 419 l 2,33,34
 410 419 410 419 425 433 c 128,-1,35
 440 447 440 447 443 469 c 1,36,-1
 444 488 l 2,37,38
 445 505 445 505 431.5 517 c 128,-1,39
 418 529 418 529 401 529 c 2,40,-1
 295 529 l 1,31,-1
EndSplineSet
EndChar

StartChar: Rcommaaccent
Encoding: 342 342 73
Width: 682
GlyphClass: 2
Flags: MW
HStem: -171 151<242 306 221 433> 266 153<280 316 258 386> 529 157<295 295 295 401>
VStem: 390 208<105.5 202> 443.5 221.5
AnchorPoint: "Bottom" 341 0 basechar 0
LayerCount: 2
Fore
SplineSet
382 88 m 1,0,-1
 390 179 l 1,1,2
 390 266 390 266 316 266 c 2,3,-1
 258 266 l 1,4,-1
 221 0 l 1,5,-1
 16 0 l 1,6,-1
 112 686 l 1,7,-1
 497 686 l 2,8,9
 567 686 567 686 616 645 c 128,-1,10
 665 604 665 604 665 535 c 128,-1,11
 665 466 665 466 622 415 c 128,-1,12
 579 364 579 364 518 354 c 1,13,-1
 517 349 l 1,14,15
 605 322 605 322 605 213 c 1,16,-1
 598 122 l 1,17,18
 598 60 598 60 636 50 c 1,19,-1
 630 9 l 1,20,21
 581 -10 581 -10 513.5 -10 c 128,-1,22
 446 -10 446 -10 414 13 c 128,-1,23
 382 36 382 36 382 88 c 1,0,-1
295 529 m 1,24,-1
 280 419 l 1,25,-1
 386 419 l 2,26,27
 410 419 410 419 425 433 c 128,-1,28
 440 447 440 447 443 469 c 1,29,-1
 444 488 l 2,30,31
 445 505 445 505 431.5 517 c 128,-1,32
 418 529 418 529 401 529 c 2,33,-1
 295 529 l 1,24,-1
416 -139 m 1,34,-1
 372 -250 l 1,35,-1
 278 -250 l 1,36,-1
 306 -171 l 1,37,-1
 221 -171 l 1,38,-1
 242 -20 l 1,39,-1
 433 -20 l 1,40,-1
 416 -139 l 1,34,-1
EndSplineSet
EndChar

StartChar: S
Encoding: 83 83 74
Width: 651
GlyphClass: 2
Flags: MW
HStem: -10 161<260.5 335 260.5 410> 262.33 168.92 544 152<340.5 396>
VStem: 12 196<112 216> 63 218<453 510.5 453 527> 394 222<196.5 241.5> 444.5 195.5
AnchorPoint: "Bottom" 326 0 basechar 0
LayerCount: 2
Fore
SplineSet
388 696 m 0,0,1
 500 696 500 696 570 651 c 128,-1,2
 640 606 640 606 640 517 c 0,3,4
 640 494 640 494 636 474 c 1,5,-1
 444 474 l 1,6,-1
 445 493 l 2,7,8
 446 514 446 514 426.5 529 c 128,-1,9
 407 544 407 544 367 544 c 128,-1,10
 327 544 327 544 304 531 c 128,-1,11
 281 518 281 518 281 497.5 c 128,-1,12
 281 477 281 477 306 463.5 c 128,-1,13
 331 450 331 450 368 443 c 128,-1,14
 405 436 405 436 448.5 423.5 c 128,-1,15
 492 411 492 411 529 395 c 128,-1,16
 566 379 566 379 591 344.5 c 128,-1,17
 616 310 616 310 616 259.5 c 128,-1,18
 616 209 616 209 600 164 c 128,-1,19
 584 119 584 119 547.5 78 c 128,-1,20
 511 37 511 37 441.5 13.5 c 128,-1,21
 372 -10 372 -10 267 -10 c 128,-1,22
 162 -10 162 -10 87 37.5 c 128,-1,23
 12 85 12 85 12 177 c 0,24,25
 12 196 12 196 18 234 c 1,26,-1
 212 234 l 1,27,28
 208 225 208 225 208 212 c 0,29,30
 208 151 208 151 293 151 c 0,31,32
 394 151 394 151 394 199 c 0,33,34
 394 235.391891892 394 235.391891892 308 250.5 c 0,35,36
 225 265.081081081 225 265.081081081 149 300 c 0,37,38
 112 317 112 317 87.5 354 c 128,-1,39
 63 391 63 391 63 443 c 0,40,41
 63 565 63 565 152.5 630.5 c 128,-1,42
 242 696 242 696 388 696 c 0,0,1
EndSplineSet
Position2: "'cpsp' Capital Spacing lookup 0 subtable" dx=5 dy=0 dh=10 dv=0
EndChar

StartChar: Sacute
Encoding: 346 346 75
Width: 651
GlyphClass: 2
Flags: MW
HStem: -10 161<260.5 335 260.5 410> 262.33 168.92 544 152<340.5 396> 750 145<406 412 294 557>
VStem: 12 196<112 216> 63 218<453 510.5 453 527> 394 222<196.5 241.5> 444.5 195.5
AnchorPoint: "Bottom" 326 0 basechar 0
LayerCount: 2
Fore
SplineSet
558 892 m 1,0,-1
 412 750 l 1,1,-1
 294 750 l 1,2,-1
 406 895 l 1,3,-1
 557 895 l 1,4,-1
 558 892 l 1,0,-1
388 696 m 0,5,6
 500 696 500 696 570 651 c 128,-1,7
 640 606 640 606 640 517 c 0,8,9
 640 494 640 494 636 474 c 1,10,-1
 444 474 l 1,11,-1
 445 493 l 2,12,13
 446 514 446 514 426.5 529 c 128,-1,14
 407 544 407 544 367 544 c 128,-1,15
 327 544 327 544 304 531 c 128,-1,16
 281 518 281 518 281 497.5 c 128,-1,17
 281 477 281 477 306 463.5 c 128,-1,18
 331 450 331 450 368 443 c 128,-1,19
 405 436 405 436 448.5 423.5 c 128,-1,20
 492 411 492 411 529 395 c 128,-1,21
 566 379 566 379 591 344.5 c 128,-1,22
 616 310 616 310 616 259.5 c 128,-1,23
 616 209 616 209 600 164 c 128,-1,24
 584 119 584 119 547.5 78 c 128,-1,25
 511 37 511 37 441.5 13.5 c 128,-1,26
 372 -10 372 -10 267 -10 c 128,-1,27
 162 -10 162 -10 87 37.5 c 128,-1,28
 12 85 12 85 12 177 c 0,29,30
 12 196 12 196 18 234 c 1,31,-1
 212 234 l 1,32,33
 208 225 208 225 208 212 c 0,34,35
 208 151 208 151 293 151 c 0,36,37
 394 151 394 151 394 199 c 0,38,39
 394 235.391891892 394 235.391891892 308 250.5 c 0,40,41
 225 265.081081081 225 265.081081081 149 300 c 0,42,43
 112 317 112 317 87.5 354 c 128,-1,44
 63 391 63 391 63 443 c 0,45,46
 63 565 63 565 152.5 630.5 c 128,-1,47
 242 696 242 696 388 696 c 0,5,6
EndSplineSet
EndChar

StartChar: Scaron
Encoding: 352 352 76
Width: 651
GlyphClass: 2
Flags: MW
HStem: -10 161<260.5 335 260.5 410> 262.33 168.92 544 152<340.5 396> 750 145<322 334 204 450 322 322>
VStem: 12 196<112 216> 63 218<453 510.5 453 527> 394 222<196.5 241.5> 444.5 195.5
LayerCount: 2
Fore
SplineSet
450 750 m 1,0,-1
 322 750 l 1,1,-1
 204 895 l 1,2,-1
 334 895 l 1,3,-1
 397 818 l 1,4,-1
 482 895 l 1,5,-1
 610 895 l 1,6,-1
 450 750 l 1,0,-1
388 696 m 0,7,8
 500 696 500 696 570 651 c 128,-1,9
 640 606 640 606 640 517 c 0,10,11
 640 494 640 494 636 474 c 1,12,-1
 444 474 l 1,13,-1
 445 493 l 2,14,15
 446 514 446 514 426.5 529 c 128,-1,16
 407 544 407 544 367 544 c 128,-1,17
 327 544 327 544 304 531 c 128,-1,18
 281 518 281 518 281 497.5 c 128,-1,19
 281 477 281 477 306 463.5 c 128,-1,20
 331 450 331 450 368 443 c 128,-1,21
 405 436 405 436 448.5 423.5 c 128,-1,22
 492 411 492 411 529 395 c 128,-1,23
 566 379 566 379 591 344.5 c 128,-1,24
 616 310 616 310 616 259.5 c 128,-1,25
 616 209 616 209 600 164 c 128,-1,26
 584 119 584 119 547.5 78 c 128,-1,27
 511 37 511 37 441.5 13.5 c 128,-1,28
 372 -10 372 -10 267 -10 c 128,-1,29
 162 -10 162 -10 87 37.5 c 128,-1,30
 12 85 12 85 12 177 c 0,31,32
 12 196 12 196 18 234 c 1,33,-1
 212 234 l 1,34,35
 208 225 208 225 208 212 c 0,36,37
 208 151 208 151 293 151 c 0,38,39
 394 151 394 151 394 199 c 0,40,41
 394 235.391891892 394 235.391891892 308 250.5 c 0,42,43
 225 265.081081081 225 265.081081081 149 300 c 0,44,45
 112 317 112 317 87.5 354 c 128,-1,46
 63 391 63 391 63 443 c 0,47,48
 63 565 63 565 152.5 630.5 c 128,-1,49
 242 696 242 696 388 696 c 0,7,8
EndSplineSet
Position2: "'cpsp' Capital Spacing lookup 0 subtable" dx=5 dy=0 dh=10 dv=0
EndChar

StartChar: Scedilla
Encoding: 350 350 77
Width: 651
GlyphClass: 2
Flags: MW
HStem: -197 58<298 333.5 298 342> -76 59<321 331 313 342> -10 161<260.5 335 260.5 410> 262.33 168.92 544 152<340.5 396>
VStem: 12 196<112 216> 63 218<453 510.5 453 527> 365 87<-114.5 -100 -100 -92.5> 394 222<196.5 241.5> 444.5 195.5
AnchorPoint: "Bottom" 326 0 basechar 0
LayerCount: 2
Fore
SplineSet
388 696 m 0,0,1
 500 696 500 696 570 651 c 128,-1,2
 640 606 640 606 640 517 c 0,3,4
 640 494 640 494 636 474 c 1,5,-1
 444 474 l 1,6,-1
 445 493 l 2,7,8
 446 514 446 514 426.5 529 c 128,-1,9
 407 544 407 544 367 544 c 128,-1,10
 327 544 327 544 304 531 c 128,-1,11
 281 518 281 518 281 497.5 c 128,-1,12
 281 477 281 477 306 463.5 c 128,-1,13
 331 450 331 450 368 443 c 128,-1,14
 405 436 405 436 448.5 423.5 c 128,-1,15
 492 411 492 411 529 395 c 128,-1,16
 566 379 566 379 591 344.5 c 128,-1,17
 616 310 616 310 616 259.5 c 128,-1,18
 616 209 616 209 600 164 c 128,-1,19
 584 119 584 119 547.5 78 c 128,-1,20
 511 37 511 37 441.5 13.5 c 128,-1,21
 372 -10 372 -10 267 -10 c 128,-1,22
 162 -10 162 -10 87 37.5 c 128,-1,23
 12 85 12 85 12 177 c 0,24,25
 12 196 12 196 18 234 c 1,26,-1
 212 234 l 1,27,28
 208 225 208 225 208 212 c 0,29,30
 208 151 208 151 293 151 c 0,31,32
 394 151 394 151 394 199 c 0,33,34
 394 235.391891892 394 235.391891892 308 250.5 c 0,35,36
 225 265.081081081 225 265.081081081 149 300 c 0,37,38
 112 317 112 317 87.5 354 c 128,-1,39
 63 391 63 391 63 443 c 0,40,41
 63 565 63 565 152.5 630.5 c 128,-1,42
 242 696 242 696 388 696 c 0,0,1
321 -17 m 1,43,-1
 342 -17 l 2,44,45
 452 -17 452 -17 452 -92 c 2,46,-1
 452 -100 l 2,47,48
 452 -128 452 -128 438 -148.5 c 128,-1,49
 424 -169 424 -169 402 -179 c 0,50,51
 362.4 -197 362.4 -197 321 -197 c 0,52,53
 240 -197 240 -197 200 -161 c 1,54,-1
 240 -107 l 1,55,56
 265 -139 265 -139 320 -139 c 0,57,58
 365 -139 365 -139 365 -100 c 0,59,60
 365 -76 365 -76 331 -76 c 2,61,-1
 313 -76 l 1,62,-1
 321 -17 l 1,43,-1
EndSplineSet
EndChar

StartChar: Scommaaccent
Encoding: 536 536 78
Width: 651
GlyphClass: 2
Flags: MW
HStem: -171 151<227 291 206 418> -10 161<260.5 335 260.5 410> 262.33 168.92 544 152<340.5 396>
VStem: 12 196<112 216> 63 218<453 510.5 453 527> 394 222<196.5 241.5> 444.5 195.5
AnchorPoint: "Bottom" 326 0 basechar 0
LayerCount: 2
Fore
SplineSet
388 696 m 0,0,1
 500 696 500 696 570 651 c 128,-1,2
 640 606 640 606 640 517 c 0,3,4
 640 494 640 494 636 474 c 1,5,-1
 444 474 l 1,6,-1
 445 493 l 2,7,8
 446 514 446 514 426.5 529 c 128,-1,9
 407 544 407 544 367 544 c 128,-1,10
 327 544 327 544 304 531 c 128,-1,11
 281 518 281 518 281 497.5 c 128,-1,12
 281 477 281 477 306 463.5 c 128,-1,13
 331 450 331 450 368 443 c 128,-1,14
 405 436 405 436 448.5 423.5 c 128,-1,15
 492 411 492 411 529 395 c 128,-1,16
 566 379 566 379 591 344.5 c 128,-1,17
 616 310 616 310 616 259.5 c 128,-1,18
 616 209 616 209 600 164 c 128,-1,19
 584 119 584 119 547.5 78 c 128,-1,20
 511 37 511 37 441.5 13.5 c 128,-1,21
 372 -10 372 -10 267 -10 c 128,-1,22
 162 -10 162 -10 87 37.5 c 128,-1,23
 12 85 12 85 12 177 c 0,24,25
 12 196 12 196 18 234 c 1,26,-1
 212 234 l 1,27,28
 208 225 208 225 208 212 c 0,29,30
 208 151 208 151 293 151 c 0,31,32
 394 151 394 151 394 199 c 0,33,34
 394 235.391891892 394 235.391891892 308 250.5 c 0,35,36
 225 265.081081081 225 265.081081081 149 300 c 0,37,38
 112 317 112 317 87.5 354 c 128,-1,39
 63 391 63 391 63 443 c 0,40,41
 63 565 63 565 152.5 630.5 c 128,-1,42
 242 696 242 696 388 696 c 0,0,1
401 -139 m 1,43,-1
 357 -250 l 1,44,-1
 263 -250 l 1,45,-1
 291 -171 l 1,46,-1
 206 -171 l 1,47,-1
 227 -20 l 1,48,-1
 418 -20 l 1,49,-1
 401 -139 l 1,43,-1
EndSplineSet
EndChar

StartChar: T
Encoding: 84 84 79
Width: 585
GlyphClass: 2
Flags: MW
HStem: 521 165<70 221 47 626 429 603 429 429>
VStem: 47 579<521 686>
AnchorPoint: "Bottom" 251 0 basechar 0
LayerCount: 2
Fore
SplineSet
603 521 m 1,0,-1
 429 521 l 1,1,-1
 355 0 l 1,2,-1
 147 0 l 1,3,-1
 221 521 l 1,4,-1
 47 521 l 1,5,-1
 70 686 l 1,6,-1
 626 686 l 1,7,-1
 603 521 l 1,0,-1
EndSplineSet
Position2: "'cpsp' Capital Spacing lookup 0 subtable" dx=5 dy=0 dh=10 dv=0
EndChar

StartChar: Tcaron
Encoding: 356 356 80
Width: 585
GlyphClass: 2
Flags: MW
HStem: 521 165<70 221 47 626 429 603 429 429> 750 145<298 310 180 426 298 298>
VStem: 47 579<521 686>
AnchorPoint: "Bottom" 251 0 basechar 0
LayerCount: 2
Fore
SplineSet
426 750 m 1,0,-1
 298 750 l 1,1,-1
 180 895 l 1,2,-1
 310 895 l 1,3,-1
 373 818 l 1,4,-1
 458 895 l 1,5,-1
 586 895 l 1,6,-1
 426 750 l 1,0,-1
603 521 m 1,7,-1
 429 521 l 1,8,-1
 355 0 l 1,9,-1
 147 0 l 1,10,-1
 221 521 l 1,11,-1
 47 521 l 1,12,-1
 70 686 l 1,13,-1
 626 686 l 1,14,-1
 603 521 l 1,7,-1
EndSplineSet
EndChar

StartChar: Tcedilla
Encoding: 354 354 81
Width: 585
GlyphClass: 2
Flags: MW
HStem: -197 58<223 258.5 223 267> -76 59<246 256 238 267> 521 165<70 221 47 626 429 603 429 429>
VStem: 290 87<-114.5 -100 -100 -92.5>
AnchorPoint: "Bottom" 251 0 basechar 0
LayerCount: 2
Fore
SplineSet
603 521 m 1,0,-1
 429 521 l 1,1,-1
 355 0 l 1,2,-1
 147 0 l 1,3,-1
 221 521 l 1,4,-1
 47 521 l 1,5,-1
 70 686 l 1,6,-1
 626 686 l 1,7,-1
 603 521 l 1,0,-1
246 -17 m 1,8,-1
 267 -17 l 2,9,10
 377 -17 377 -17 377 -92 c 2,11,-1
 377 -100 l 2,12,13
 377 -128 377 -128 363 -148.5 c 128,-1,14
 349 -169 349 -169 327 -179 c 0,15,16
 287.4 -197 287.4 -197 246 -197 c 0,17,18
 165 -197 165 -197 125 -161 c 1,19,-1
 165 -107 l 1,20,21
 190 -139 190 -139 245 -139 c 0,22,23
 290 -139 290 -139 290 -100 c 0,24,25
 290 -76 290 -76 256 -76 c 2,26,-1
 238 -76 l 1,27,-1
 246 -17 l 1,8,-1
EndSplineSet
EndChar

StartChar: Tcommaaccent
Encoding: 538 538 82
Width: 585
GlyphClass: 2
Flags: MW
HStem: -171 151<152 216 131 343> 521 165<70 221 47 626 429 603 429 429>
VStem: 47 579<521 686>
AnchorPoint: "Bottom" 251 0 basechar 0
LayerCount: 2
Fore
SplineSet
603 521 m 1,0,-1
 429 521 l 1,1,-1
 355 0 l 1,2,-1
 147 0 l 1,3,-1
 221 521 l 1,4,-1
 47 521 l 1,5,-1
 70 686 l 1,6,-1
 626 686 l 1,7,-1
 603 521 l 1,0,-1
326 -139 m 1,8,-1
 282 -250 l 1,9,-1
 188 -250 l 1,10,-1
 216 -171 l 1,11,-1
 131 -171 l 1,12,-1
 152 -20 l 1,13,-1
 343 -20 l 1,14,-1
 326 -139 l 1,8,-1
EndSplineSet
EndChar

StartChar: U
Encoding: 85 85 83
Width: 687
GlyphClass: 2
Flags: MW
HStem: -10 156<205.5 351.5 303.5 323> 666 20G<107 318 318 318 480 690 690 690>
VStem: 39 213<123.5 212.5> 39 651<123.5 686>
LayerCount: 2
Fore
SplineSet
690 686 m 1,0,-1
 625 218 l 1,1,2
 609 111 609 111 532 50.5 c 128,-1,3
 455 -10 455 -10 323 -10 c 2,4,-1
 280 -10 l 2,5,6
 169 -10 169 -10 104 42 c 128,-1,7
 39 94 39 94 39 182 c 0,8,9
 39 200 39 200 42 218 c 2,10,-1
 107 686 l 1,11,-1
 318 686 l 1,12,-1
 253 221 l 2,13,14
 252 218 252 218 252 210 c 0,15,16
 252 181 252 181 272.5 163.5 c 128,-1,17
 293 146 293 146 328.5 146 c 0,18,19
 364 146 364 146 387 166.5 c 128,-1,20
 410 187 410 187 415 221 c 2,21,-1
 480 686 l 1,22,-1
 690 686 l 1,0,-1
EndSplineSet
Position2: "'cpsp' Capital Spacing lookup 0 subtable" dx=5 dy=0 dh=10 dv=0
EndChar

StartChar: Uacute
Encoding: 218 218 84
Width: 687
GlyphClass: 2
Flags: MW
HStem: -10 156<205.5 351.5 303.5 323> 666 20G<107 318 318 318 480 690 690 690> 750 145<457 463 345 608>
VStem: 39 213<123.5 212.5> 39 651<123.5 686>
LayerCount: 2
Fore
SplineSet
609 892 m 1,0,-1
 463 750 l 1,1,-1
 345 750 l 1,2,-1
 457 895 l 1,3,-1
 608 895 l 1,4,-1
 609 892 l 1,0,-1
690 686 m 1,5,-1
 625 218 l 1,6,7
 609 111 609 111 532 50.5 c 128,-1,8
 455 -10 455 -10 323 -10 c 2,9,-1
 280 -10 l 2,10,11
 169 -10 169 -10 104 42 c 128,-1,12
 39 94 39 94 39 182 c 0,13,14
 39 200 39 200 42 218 c 2,15,-1
 107 686 l 1,16,-1
 318 686 l 1,17,-1
 253 221 l 2,18,19
 252 218 252 218 252 210 c 0,20,21
 252 181 252 181 272.5 163.5 c 128,-1,22
 293 146 293 146 328.5 146 c 0,23,24
 364 146 364 146 387 166.5 c 128,-1,25
 410 187 410 187 415 221 c 2,26,-1
 480 686 l 1,27,-1
 690 686 l 1,5,-1
EndSplineSet
Position2: "'cpsp' Capital Spacing lookup 0 subtable" dx=5 dy=0 dh=10 dv=0
EndChar

StartChar: Ucircumflex
Encoding: 219 219 85
Width: 687
GlyphClass: 2
Flags: MW
HStem: -10 156<205.5 351.5 303.5 323> 666 20G<107 318 318 318 480 690 690 690> 750 145<203 491 479 491 363 609 479 479>
VStem: 39 213<123.5 212.5> 39 651<123.5 686>
LayerCount: 2
Fore
SplineSet
609 750 m 1,0,-1
 479 750 l 1,1,-1
 416 827 l 1,2,-1
 331 750 l 1,3,-1
 203 750 l 1,4,-1
 363 895 l 1,5,-1
 491 895 l 1,6,-1
 609 750 l 1,0,-1
690 686 m 1,7,-1
 625 218 l 1,8,9
 609 111 609 111 532 50.5 c 128,-1,10
 455 -10 455 -10 323 -10 c 2,11,-1
 280 -10 l 2,12,13
 169 -10 169 -10 104 42 c 128,-1,14
 39 94 39 94 39 182 c 0,15,16
 39 200 39 200 42 218 c 2,17,-1
 107 686 l 1,18,-1
 318 686 l 1,19,-1
 253 221 l 2,20,21
 252 218 252 218 252 210 c 0,22,23
 252 181 252 181 272.5 163.5 c 128,-1,24
 293 146 293 146 328.5 146 c 0,25,26
 364 146 364 146 387 166.5 c 128,-1,27
 410 187 410 187 415 221 c 2,28,-1
 480 686 l 1,29,-1
 690 686 l 1,7,-1
EndSplineSet
Position2: "'cpsp' Capital Spacing lookup 0 subtable" dx=5 dy=0 dh=10 dv=0
EndChar

StartChar: Udieresis
Encoding: 220 220 86
Width: 687
GlyphClass: 2
Flags: MW
HStem: -10 156<205.5 351.5 303.5 323> 666 20G<107 318 318 318 480 690 690 690> 750 147<239 370 218 391 239 438 459 590>
VStem: 39 213<123.5 212.5> 39 651<123.5 686>
LayerCount: 2
Fore
SplineSet
370 750 m 1,0,-1
 218 750 l 1,1,-1
 239 897 l 1,2,-1
 391 897 l 1,3,-1
 370 750 l 1,0,-1
590 750 m 1,4,-1
 438 750 l 1,5,-1
 459 897 l 1,6,-1
 611 897 l 1,7,-1
 590 750 l 1,4,-1
690 686 m 1,8,-1
 625 218 l 1,9,10
 609 111 609 111 532 50.5 c 128,-1,11
 455 -10 455 -10 323 -10 c 2,12,-1
 280 -10 l 2,13,14
 169 -10 169 -10 104 42 c 128,-1,15
 39 94 39 94 39 182 c 0,16,17
 39 200 39 200 42 218 c 2,18,-1
 107 686 l 1,19,-1
 318 686 l 1,20,-1
 253 221 l 2,21,22
 252 218 252 218 252 210 c 0,23,24
 252 181 252 181 272.5 163.5 c 128,-1,25
 293 146 293 146 328.5 146 c 0,26,27
 364 146 364 146 387 166.5 c 128,-1,28
 410 187 410 187 415 221 c 2,29,-1
 480 686 l 1,30,-1
 690 686 l 1,8,-1
EndSplineSet
Position2: "'cpsp' Capital Spacing lookup 0 subtable" dx=5 dy=0 dh=10 dv=0
EndChar

StartChar: Ugrave
Encoding: 217 217 87
Width: 687
GlyphClass: 2
Flags: MW
HStem: -10 156<205.5 351.5 303.5 323> 666 20G<107 318 318 318 480 690 690 690> 750 145<345 393 242 463 345 345>
VStem: 39 213<123.5 212.5> 39 651<123.5 686>
LayerCount: 2
Fore
SplineSet
463 750 m 1,0,-1
 345 750 l 1,1,-1
 239 892 l 1,2,-1
 242 895 l 1,3,-1
 393 895 l 1,4,-1
 463 750 l 1,0,-1
690 686 m 1,5,-1
 625 218 l 1,6,7
 609 111 609 111 532 50.5 c 128,-1,8
 455 -10 455 -10 323 -10 c 2,9,-1
 280 -10 l 2,10,11
 169 -10 169 -10 104 42 c 128,-1,12
 39 94 39 94 39 182 c 0,13,14
 39 200 39 200 42 218 c 2,15,-1
 107 686 l 1,16,-1
 318 686 l 1,17,-1
 253 221 l 2,18,19
 252 218 252 218 252 210 c 0,20,21
 252 181 252 181 272.5 163.5 c 128,-1,22
 293 146 293 146 328.5 146 c 0,23,24
 364 146 364 146 387 166.5 c 128,-1,25
 410 187 410 187 415 221 c 2,26,-1
 480 686 l 1,27,-1
 690 686 l 1,5,-1
EndSplineSet
Position2: "'cpsp' Capital Spacing lookup 0 subtable" dx=5 dy=0 dh=10 dv=0
EndChar

StartChar: Uhungarumlaut
Encoding: 368 368 88
Width: 687
GlyphClass: 2
Flags: MW
HStem: -10 156<205.5 351.5 303.5 323> 666 20G<107 318 318 318 480 690 690 690> 750 145<340 346 228 491 455 455 455 491 567 573>
VStem: 39 213<123.5 212.5> 39 680
LayerCount: 2
Fore
SplineSet
492 892 m 1,0,-1
 346 750 l 1,1,-1
 228 750 l 1,2,-1
 340 895 l 1,3,-1
 491 895 l 1,4,-1
 492 892 l 1,0,-1
719 892 m 1,5,-1
 573 750 l 1,6,-1
 455 750 l 1,7,-1
 567 895 l 1,8,-1
 718 895 l 1,9,-1
 719 892 l 1,5,-1
690 686 m 1,10,-1
 625 218 l 1,11,12
 609 111 609 111 532 50.5 c 128,-1,13
 455 -10 455 -10 323 -10 c 2,14,-1
 280 -10 l 2,15,16
 169 -10 169 -10 104 42 c 128,-1,17
 39 94 39 94 39 182 c 0,18,19
 39 200 39 200 42 218 c 2,20,-1
 107 686 l 1,21,-1
 318 686 l 1,22,-1
 253 221 l 2,23,24
 252 218 252 218 252 210 c 0,25,26
 252 181 252 181 272.5 163.5 c 128,-1,27
 293 146 293 146 328.5 146 c 0,28,29
 364 146 364 146 387 166.5 c 128,-1,30
 410 187 410 187 415 221 c 2,31,-1
 480 686 l 1,32,-1
 690 686 l 1,10,-1
EndSplineSet
EndChar

StartChar: Umacron
Encoding: 362 362 89
Width: 687
GlyphClass: 2
Flags: MW
HStem: -10 156<205.5 351.5 303.5 323> 666 20G<107 318 318 318 480 690 690 690> 837 74<255 573 255 573>
VStem: 39 213<123.5 212.5> 255 318<837 911 837 911>
LayerCount: 2
Fore
SplineSet
573 837 m 1,0,-1
 255 837 l 1,1,-1
 255 911 l 1,2,-1
 573 911 l 1,3,-1
 573 837 l 1,0,-1
690 686 m 1,4,-1
 625 218 l 1,5,6
 609 111 609 111 532 50.5 c 128,-1,7
 455 -10 455 -10 323 -10 c 2,8,-1
 280 -10 l 2,9,10
 169 -10 169 -10 104 42 c 128,-1,11
 39 94 39 94 39 182 c 0,12,13
 39 200 39 200 42 218 c 2,14,-1
 107 686 l 1,15,-1
 318 686 l 1,16,-1
 253 221 l 2,17,18
 252 218 252 218 252 210 c 0,19,20
 252 181 252 181 272.5 163.5 c 128,-1,21
 293 146 293 146 328.5 146 c 0,22,23
 364 146 364 146 387 166.5 c 128,-1,24
 410 187 410 187 415 221 c 2,25,-1
 480 686 l 1,26,-1
 690 686 l 1,4,-1
EndSplineSet
EndChar

StartChar: Uogonek
Encoding: 370 370 90
Width: 687
GlyphClass: 2
Flags: MW
HStem: -143 53<358.5 423.5> -20 20G<420 428 428 428> -10 156<205.5 351.5 303.5 323 323 343> 666 20G<107 318 318 318 480 690 690 690>
VStem: 39 213<123.5 212.5> 293 79<-72.5 -66.5>
LayerCount: 2
Fore
SplineSet
690 686 m 1,0,-1
 625 218 l 1,1,2
 612 133 612 133 560 76.5 c 128,-1,3
 508 20 508 20 420 0 c 1,4,-1
 428 0 l 1,5,6
 411 -10 411 -10 402 -15.5 c 128,-1,7
 393 -21 393 -21 382.5 -34.5 c 128,-1,8
 372 -48 372 -48 372 -62 c 0,9,10
 372 -90 372 -90 412 -90 c 0,11,12
 441 -90 441 -90 481 -76 c 1,13,-1
 488 -119 l 1,14,15
 436 -143 436 -143 389.5 -143 c 0,16,17
 293 -143 293 -143 293 -83 c 0,18,19
 293 -41 293 -41 343 -10 c 1,20,-1
 280 -10 l 2,21,22
 169 -10 169 -10 104 42 c 128,-1,23
 39 94 39 94 39 182 c 0,24,25
 39 200 39 200 42 218 c 2,26,-1
 107 686 l 1,27,-1
 318 686 l 1,28,-1
 253 221 l 2,29,30
 252 218 252 218 252 210 c 0,31,32
 252 181 252 181 272.5 163.5 c 128,-1,33
 293 146 293 146 328.5 146 c 128,-1,34
 364 146 364 146 387 166.5 c 128,-1,35
 410 187 410 187 415 221 c 2,36,-1
 480 686 l 1,37,-1
 690 686 l 1,0,-1
EndSplineSet
EndChar

StartChar: Uring
Encoding: 366 366 91
Width: 687
GlyphClass: 2
Flags: MW
HStem: -10 156<205.5 351.5 303.5 323> 666 20G<107 318 318 318 480 690 690 690> 720 65<390.5 409.5 390.5 422> 855 66<397.5 418.5>
VStem: 39 213<123.5 212.5> 302 67<806.5 826.5 806.5 838> 440 66<810.5 833.5>
LayerCount: 2
Fore
SplineSet
337 887 m 128,-1,1
 372 921 372 921 414.5 921 c 128,-1,2
 457 921 457 921 481.5 896.5 c 128,-1,3
 506 872 506 872 506 829.5 c 128,-1,4
 506 787 506 787 472 753.5 c 128,-1,5
 438 720 438 720 395 720 c 128,-1,6
 352 720 352 720 327 744.5 c 128,-1,7
 302 769 302 769 302 811 c 128,-1,0
 302 853 302 853 337 887 c 128,-1,1
409 855 m 0,8,9
 392 855 392 855 380.5 843.5 c 128,-1,10
 369 832 369 832 369 817 c 128,-1,11
 369 802 369 802 377.5 793.5 c 128,-1,12
 386 785 386 785 401 785 c 128,-1,13
 416 785 416 785 428 795 c 128,-1,14
 440 805 440 805 440 824 c 0,15,16
 440 855 440 855 409 855 c 0,8,9
690 686 m 1,17,-1
 625 218 l 1,18,19
 609 111 609 111 532 50.5 c 128,-1,20
 455 -10 455 -10 323 -10 c 2,21,-1
 280 -10 l 2,22,23
 169 -10 169 -10 104 42 c 128,-1,24
 39 94 39 94 39 182 c 0,25,26
 39 200 39 200 42 218 c 2,27,-1
 107 686 l 1,28,-1
 318 686 l 1,29,-1
 253 221 l 2,30,31
 252 218 252 218 252 210 c 0,32,33
 252 181 252 181 272.5 163.5 c 128,-1,34
 293 146 293 146 328.5 146 c 128,-1,35
 364 146 364 146 387 166.5 c 128,-1,36
 410 187 410 187 415 221 c 2,37,-1
 480 686 l 1,38,-1
 690 686 l 1,17,-1
EndSplineSet
EndChar

StartChar: V
Encoding: 86 86 92
Width: 655
GlyphClass: 2
Flags: MW
HStem: 666 20G<51 269 269 269 512 714 714 714>
VStem: 51 663<686 686>
LayerCount: 2
Fore
SplineSet
409 0 m 1,0,-1
 159 0 l 1,1,-1
 51 686 l 1,2,-1
 269 686 l 1,3,-1
 329 260 l 1,4,-1
 333 260 l 1,5,-1
 512 686 l 1,6,-1
 714 686 l 1,7,-1
 409 0 l 1,0,-1
EndSplineSet
Position2: "'cpsp' Capital Spacing lookup 0 subtable" dx=5 dy=0 dh=10 dv=0
EndChar

StartChar: W
Encoding: 87 87 93
Width: 1022
GlyphClass: 2
Flags: MW
HStem: 666 20G<53 270 270 270 469 684 684 684 881 1078 1078 1078>
VStem: 53 1025<686 686>
LayerCount: 2
Fore
SplineSet
795 0 m 1,0,-1
 557 0 l 1,1,-1
 521 329 l 1,2,-1
 515 329 l 1,3,-1
 385 0 l 1,4,-1
 143 0 l 1,5,-1
 53 686 l 1,6,-1
 270 686 l 1,7,-1
 313 305 l 1,8,-1
 317 305 l 1,9,-1
 469 686 l 1,10,-1
 684 686 l 1,11,-1
 726 305 l 1,12,-1
 730 305 l 1,13,-1
 881 686 l 1,14,-1
 1078 686 l 1,15,-1
 795 0 l 1,0,-1
EndSplineSet
Position2: "'cpsp' Capital Spacing lookup 0 subtable" dx=5 dy=0 dh=10 dv=0
EndChar

StartChar: X
Encoding: 88 88 94
Width: 672
GlyphClass: 2
Flags: MW
HStem: 491 20G<375 379 379 379> 666 20G<62 305 305 305 499 724 724 724>
VStem: -56 780<0 686>
LayerCount: 2
Fore
SplineSet
484 362 m 1,0,-1
 648 0 l 1,1,-1
 404 0 l 1,2,-1
 318 213 l 1,3,-1
 314 213 l 1,4,-1
 169 0 l 1,5,-1
 -56 0 l 1,6,-1
 209 363 l 1,7,-1
 62 686 l 1,8,-1
 305 686 l 1,9,-1
 375 511 l 1,10,-1
 379 511 l 1,11,-1
 499 686 l 1,12,-1
 724 686 l 1,13,-1
 484 362 l 1,0,-1
EndSplineSet
Position2: "'cpsp' Capital Spacing lookup 0 subtable" dx=5 dy=0 dh=10 dv=0
EndChar

StartChar: Y
Encoding: 89 89 95
Width: 644
GlyphClass: 2
Flags: MW
HStem: 666 20G<44 280 280 280 493 708 708 708>
VStem: 44 664<686 686>
LayerCount: 2
Fore
SplineSet
421 262 m 1,0,-1
 384 0 l 1,1,-1
 175 0 l 1,2,-1
 212 262 l 1,3,-1
 44 686 l 1,4,-1
 280 686 l 1,5,-1
 351 461 l 1,6,-1
 356 461 l 1,7,-1
 493 686 l 1,8,-1
 708 686 l 1,9,-1
 421 262 l 1,0,-1
EndSplineSet
Position2: "'cpsp' Capital Spacing lookup 0 subtable" dx=5 dy=0 dh=10 dv=0
EndChar

StartChar: Yacute
Encoding: 221 221 96
Width: 644
GlyphClass: 2
Flags: MW
HStem: 666 20G<44 280 280 280 493 708 708 708> 750 145<447 453 335 598>
VStem: 44 664<686 686>
LayerCount: 2
Fore
SplineSet
599 892 m 1,0,-1
 453 750 l 1,1,-1
 335 750 l 1,2,-1
 447 895 l 1,3,-1
 598 895 l 1,4,-1
 599 892 l 1,0,-1
421 262 m 1,5,-1
 384 0 l 1,6,-1
 175 0 l 1,7,-1
 212 262 l 1,8,-1
 44 686 l 1,9,-1
 280 686 l 1,10,-1
 351 461 l 1,11,-1
 356 461 l 1,12,-1
 493 686 l 1,13,-1
 708 686 l 1,14,-1
 421 262 l 1,5,-1
EndSplineSet
Position2: "'cpsp' Capital Spacing lookup 0 subtable" dx=5 dy=0 dh=10 dv=0
EndChar

StartChar: Ydieresis
Encoding: 376 376 97
Width: 644
GlyphClass: 2
Flags: MW
HStem: 666 20G<44 280 280 280 493 708 708 708> 750 147<220 351 199 372 220 419 440 571>
VStem: 44 664<686 686>
LayerCount: 2
Fore
SplineSet
351 750 m 1,0,-1
 199 750 l 1,1,-1
 220 897 l 1,2,-1
 372 897 l 1,3,-1
 351 750 l 1,0,-1
571 750 m 1,4,-1
 419 750 l 1,5,-1
 440 897 l 1,6,-1
 592 897 l 1,7,-1
 571 750 l 1,4,-1
421 262 m 1,8,-1
 384 0 l 1,9,-1
 175 0 l 1,10,-1
 212 262 l 1,11,-1
 44 686 l 1,12,-1
 280 686 l 1,13,-1
 351 461 l 1,14,-1
 356 461 l 1,15,-1
 493 686 l 1,16,-1
 708 686 l 1,17,-1
 421 262 l 1,8,-1
EndSplineSet
Position2: "'cpsp' Capital Spacing lookup 0 subtable" dx=5 dy=0 dh=10 dv=0
EndChar

StartChar: Z
Encoding: 90 90 98
Width: 607
GlyphClass: 2
Flags: MW
HStem: 0 161<294 543> 526 160<93 315 70 632>
VStem: -27 659
LayerCount: 2
Fore
SplineSet
623 625 m 1,0,-1
 294 161 l 1,1,-1
 566 161 l 1,2,-1
 543 0 l 1,3,-1
 -27 0 l 1,4,-1
 -18 61 l 1,5,-1
 315 526 l 1,6,-1
 70 526 l 1,7,-1
 93 686 l 1,8,-1
 632 686 l 1,9,-1
 623 625 l 1,0,-1
EndSplineSet
Position2: "'cpsp' Capital Spacing lookup 0 subtable" dx=5 dy=0 dh=10 dv=0
EndChar

StartChar: Zacute
Encoding: 377 377 99
Width: 607
GlyphClass: 2
Flags: MW
HStem: 0 161<294 543> 526 160<93 315 70 632> 750 145<374 380 262 525>
VStem: -27 659
LayerCount: 2
Fore
SplineSet
526 892 m 1,0,-1
 380 750 l 1,1,-1
 262 750 l 1,2,-1
 374 895 l 1,3,-1
 525 895 l 1,4,-1
 526 892 l 1,0,-1
623 625 m 1,5,-1
 294 161 l 1,6,-1
 566 161 l 1,7,-1
 543 0 l 1,8,-1
 -27 0 l 1,9,-1
 -18 61 l 1,10,-1
 315 526 l 1,11,-1
 70 526 l 1,12,-1
 93 686 l 1,13,-1
 632 686 l 1,14,-1
 623 625 l 1,5,-1
EndSplineSet
EndChar

StartChar: Zcaron
Encoding: 381 381 100
Width: 607
GlyphClass: 2
Flags: MW
HStem: 0 161<294 543> 526 160<93 315 70 632> 750 145<308 320 190 436 308 308>
VStem: -27 659
LayerCount: 2
Fore
SplineSet
436 750 m 1,0,-1
 308 750 l 1,1,-1
 190 895 l 1,2,-1
 320 895 l 1,3,-1
 383 818 l 1,4,-1
 468 895 l 1,5,-1
 596 895 l 1,6,-1
 436 750 l 1,0,-1
623 625 m 1,7,-1
 294 161 l 1,8,-1
 566 161 l 1,9,-1
 543 0 l 1,10,-1
 -27 0 l 1,11,-1
 -18 61 l 1,12,-1
 315 526 l 1,13,-1
 70 526 l 1,14,-1
 93 686 l 1,15,-1
 632 686 l 1,16,-1
 623 625 l 1,7,-1
EndSplineSet
Position2: "'cpsp' Capital Spacing lookup 0 subtable" dx=5 dy=0 dh=10 dv=0
EndChar

StartChar: Zdotaccent
Encoding: 379 379 101
Width: 607
GlyphClass: 2
Flags: MW
HStem: 0 161<294 543> 526 160<93 315 70 632> 779 132<342.5 363.5>
VStem: 287 134<834 855.5>
LayerCount: 2
Fore
SplineSet
309.5 888.5 m 128,-1,1
 332 911 332 911 360.5 911 c 128,-1,2
 389 911 389 911 405 894.5 c 128,-1,3
 421 878 421 878 421 851 c 128,-1,4
 421 824 421 824 397.5 801.5 c 128,-1,5
 374 779 374 779 346.5 779 c 128,-1,6
 319 779 319 779 303 795 c 128,-1,7
 287 811 287 811 287 838.5 c 128,-1,0
 287 866 287 866 309.5 888.5 c 128,-1,1
623 625 m 1,8,-1
 294 161 l 1,9,-1
 566 161 l 1,10,-1
 543 0 l 1,11,-1
 -27 0 l 1,12,-1
 -18 61 l 1,13,-1
 315 526 l 1,14,-1
 70 526 l 1,15,-1
 93 686 l 1,16,-1
 632 686 l 1,17,-1
 623 625 l 1,8,-1
EndSplineSet
EndChar

StartChar: a
Encoding: 97 97 102
Width: 628
GlyphClass: 2
Flags: MW
HStem: -10 121<126 287.5> 396 125<171.5 321.5> 491 20G<432 581 581 581>
VStem: 17 196<152.5 172 152.5 265>
LayerCount: 2
Fore
SplineSet
148 490.5 m 128,-1,1
 196 521 196 521 247 521 c 0,2,3
 349.147058824 521 349.147058824 521 393 450 c 1,4,-1
 398 450 l 1,5,-1
 432 511 l 1,6,-1
 581 511 l 1,7,8
 528 195 528 195 528 137 c 0,9,10
 528 110 528 110 554 110 c 0,11,12
 571 110 571 110 591 123 c 1,13,-1
 576 13 l 1,14,15
 532 -10 532 -10 475.5 -10 c 128,-1,16
 419 -10 419 -10 383.5 6 c 128,-1,17
 348 22 348 22 337 68 c 1,18,19
 310 34 310 34 269.5 12 c 128,-1,20
 229 -10 229 -10 188 -10 c 0,21,22
 100 -10 100 -10 58.5 46 c 128,-1,23
 17 102 17 102 17 193 c 0,24,25
 17 310.6 17 310.6 72.5 410.5 c 0,26,0
 100 460 100 460 148 490.5 c 128,-1,1
344.5 381 m 128,-1,28
 330 396 330 396 304.5 396 c 128,-1,29
 279 396 279 396 258.5 376 c 128,-1,30
 238 356 238 356 234 326 c 0,31,32
 213 178 213 178 213 170 c 0,33,34
 213 144 213 144 228 127.5 c 128,-1,35
 243 111 243 111 270 111 c 128,-1,36
 297 111 297 111 315 130.5 c 128,-1,37
 333 150 333 150 338 181 c 2,38,-1
 348 253 l 2,39,40
 359 334 359 334 359 338 c 0,41,27
 359 366 359 366 344.5 381 c 128,-1,28
EndSplineSet
Substitution2: "Single Substitution lookup 5 subtable" ordfeminine
Substitution2: "'aalt' Access All Alternates lookup 0 subtable" ordfeminine
EndChar

StartChar: aacute
Encoding: 225 225 103
Width: 628
GlyphClass: 2
Flags: MW
HStem: -10 121<126 287.5> 396 125<171.5 321.5> 491 20G<432 581 581 581> 575 145<376 382 264 527>
VStem: 17 196<152.5 172 152.5 265>
LayerCount: 2
Fore
SplineSet
528 717 m 1,0,-1
 382 575 l 1,1,-1
 264 575 l 1,2,-1
 376 720 l 1,3,-1
 527 720 l 1,4,-1
 528 717 l 1,0,-1
148 490.5 m 128,-1,6
 196 521 196 521 247 521 c 0,7,8
 349.147058824 521 349.147058824 521 393 450 c 1,9,-1
 398 450 l 1,10,-1
 432 511 l 1,11,-1
 581 511 l 1,12,13
 528 195 528 195 528 137 c 0,14,15
 528 110 528 110 554 110 c 0,16,17
 571 110 571 110 591 123 c 1,18,-1
 576 13 l 1,19,20
 532 -10 532 -10 475.5 -10 c 128,-1,21
 419 -10 419 -10 383.5 6 c 128,-1,22
 348 22 348 22 337 68 c 1,23,24
 310 34 310 34 269.5 12 c 128,-1,25
 229 -10 229 -10 188 -10 c 0,26,27
 100 -10 100 -10 58.5 46 c 128,-1,28
 17 102 17 102 17 193 c 0,29,30
 17 310.6 17 310.6 72.5 410.5 c 0,31,5
 100 460 100 460 148 490.5 c 128,-1,6
344.5 381 m 128,-1,33
 330 396 330 396 304.5 396 c 128,-1,34
 279 396 279 396 258.5 376 c 128,-1,35
 238 356 238 356 234 326 c 0,36,37
 213 178 213 178 213 170 c 0,38,39
 213 144 213 144 228 127.5 c 128,-1,40
 243 111 243 111 270 111 c 128,-1,41
 297 111 297 111 315 130.5 c 128,-1,42
 333 150 333 150 338 181 c 2,43,-1
 348 253 l 2,44,45
 359 334 359 334 359 338 c 0,46,32
 359 366 359 366 344.5 381 c 128,-1,33
EndSplineSet
EndChar

StartChar: abreve
Encoding: 259 259 104
Width: 628
GlyphClass: 2
Flags: MW
HStem: -10 121<126 287.5> 396 125<171.5 321.5> 491 20G<432 581 581 581> 613 86<346.5 400 346.5 426.5>
VStem: 17 196<152.5 172 152.5 265> 181 96<731.5 737 731.5 737> 471 95<731.5 737>
LayerCount: 2
Fore
SplineSet
471 737 m 1,0,-1
 566 737 l 1,1,2
 566 693 566 693 508 653 c 128,-1,3
 450 613 450 613 373 613 c 128,-1,4
 296 613 296 613 238.5 653 c 128,-1,5
 181 693 181 693 181 737 c 1,6,-1
 277 737 l 1,7,8
 277 731 277 731 289.5 722.5 c 128,-1,9
 302 714 302 714 325 706.5 c 128,-1,10
 348 699 348 699 373 699 c 128,-1,11
 398 699 398 699 421.5 706.5 c 128,-1,12
 445 714 445 714 458 722.5 c 128,-1,13
 471 731 471 731 471 737 c 1,0,-1
148 490.5 m 128,-1,15
 196 521 196 521 247 521 c 0,16,17
 349.147058824 521 349.147058824 521 393 450 c 1,18,-1
 398 450 l 1,19,-1
 432 511 l 1,20,-1
 581 511 l 1,21,22
 528 195 528 195 528 137 c 0,23,24
 528 110 528 110 554 110 c 0,25,26
 571 110 571 110 591 123 c 1,27,-1
 576 13 l 1,28,29
 532 -10 532 -10 475.5 -10 c 128,-1,30
 419 -10 419 -10 383.5 6 c 128,-1,31
 348 22 348 22 337 68 c 1,32,33
 310 34 310 34 269.5 12 c 128,-1,34
 229 -10 229 -10 188 -10 c 0,35,36
 100 -10 100 -10 58.5 46 c 128,-1,37
 17 102 17 102 17 193 c 0,38,39
 17 310.6 17 310.6 72.5 410.5 c 0,40,14
 100 460 100 460 148 490.5 c 128,-1,15
344.5 381 m 128,-1,42
 330 396 330 396 304.5 396 c 128,-1,43
 279 396 279 396 258.5 376 c 128,-1,44
 238 356 238 356 234 326 c 0,45,46
 213 178 213 178 213 170 c 0,47,48
 213 144 213 144 228 127.5 c 128,-1,49
 243 111 243 111 270 111 c 128,-1,50
 297 111 297 111 315 130.5 c 128,-1,51
 333 150 333 150 338 181 c 2,52,-1
 348 253 l 2,53,54
 359 334 359 334 359 338 c 0,55,41
 359 366 359 366 344.5 381 c 128,-1,42
EndSplineSet
EndChar

StartChar: acircumflex
Encoding: 226 226 105
Width: 628
GlyphClass: 2
Flags: MW
HStem: -10 121<126 287.5> 396 125<171.5 321.5> 491 20G<432 581 581 581> 575 145<148 436 424 436 308 554 424 424> 652 68<361 361>
VStem: 17 196<152.5 172 152.5 265>
LayerCount: 2
Fore
SplineSet
554 575 m 1,0,-1
 424 575 l 1,1,-1
 361 652 l 1,2,-1
 276 575 l 1,3,-1
 148 575 l 1,4,-1
 308 720 l 1,5,-1
 436 720 l 1,6,-1
 554 575 l 1,0,-1
148 490.5 m 128,-1,8
 196 521 196 521 247 521 c 0,9,10
 349.147058824 521 349.147058824 521 393 450 c 1,11,-1
 398 450 l 1,12,-1
 432 511 l 1,13,-1
 581 511 l 1,14,15
 528 195 528 195 528 137 c 0,16,17
 528 110 528 110 554 110 c 0,18,19
 571 110 571 110 591 123 c 1,20,-1
 576 13 l 1,21,22
 532 -10 532 -10 475.5 -10 c 128,-1,23
 419 -10 419 -10 383.5 6 c 128,-1,24
 348 22 348 22 337 68 c 1,25,26
 310 34 310 34 269.5 12 c 128,-1,27
 229 -10 229 -10 188 -10 c 0,28,29
 100 -10 100 -10 58.5 46 c 128,-1,30
 17 102 17 102 17 193 c 0,31,32
 17 310.6 17 310.6 72.5 410.5 c 0,33,7
 100 460 100 460 148 490.5 c 128,-1,8
344.5 381 m 128,-1,35
 330 396 330 396 304.5 396 c 128,-1,36
 279 396 279 396 258.5 376 c 128,-1,37
 238 356 238 356 234 326 c 0,38,39
 213 178 213 178 213 170 c 0,40,41
 213 144 213 144 228 127.5 c 128,-1,42
 243 111 243 111 270 111 c 128,-1,43
 297 111 297 111 315 130.5 c 128,-1,44
 333 150 333 150 338 181 c 2,45,-1
 348 253 l 2,46,47
 359 334 359 334 359 338 c 0,48,34
 359 366 359 366 344.5 381 c 128,-1,35
EndSplineSet
EndChar

StartChar: adieresis
Encoding: 228 228 106
Width: 628
GlyphClass: 2
Flags: MW
HStem: -10 121<126 287.5> 396 125<171.5 321.5> 491 20G<432 581 581 581> 573 147<197 328 176 349 197 396 417 548>
VStem: 17 196<152.5 172 152.5 265>
LayerCount: 2
Fore
SplineSet
328 573 m 1,0,-1
 176 573 l 1,1,-1
 197 720 l 1,2,-1
 349 720 l 1,3,-1
 328 573 l 1,0,-1
548 573 m 1,4,-1
 396 573 l 1,5,-1
 417 720 l 1,6,-1
 569 720 l 1,7,-1
 548 573 l 1,4,-1
148 490.5 m 128,-1,9
 196 521 196 521 247 521 c 0,10,11
 349.147058824 521 349.147058824 521 393 450 c 1,12,-1
 398 450 l 1,13,-1
 432 511 l 1,14,-1
 581 511 l 1,15,16
 528 195 528 195 528 137 c 0,17,18
 528 110 528 110 554 110 c 0,19,20
 571 110 571 110 591 123 c 1,21,-1
 576 13 l 1,22,23
 532 -10 532 -10 475.5 -10 c 128,-1,24
 419 -10 419 -10 383.5 6 c 128,-1,25
 348 22 348 22 337 68 c 1,26,27
 310 34 310 34 269.5 12 c 128,-1,28
 229 -10 229 -10 188 -10 c 0,29,30
 100 -10 100 -10 58.5 46 c 128,-1,31
 17 102 17 102 17 193 c 0,32,33
 17 310.6 17 310.6 72.5 410.5 c 0,34,8
 100 460 100 460 148 490.5 c 128,-1,9
344.5 381 m 128,-1,36
 330 396 330 396 304.5 396 c 128,-1,37
 279 396 279 396 258.5 376 c 128,-1,38
 238 356 238 356 234 326 c 0,39,40
 213 178 213 178 213 170 c 0,41,42
 213 144 213 144 228 127.5 c 128,-1,43
 243 111 243 111 270 111 c 128,-1,44
 297 111 297 111 315 130.5 c 128,-1,45
 333 150 333 150 338 181 c 2,46,-1
 348 253 l 2,47,48
 359 334 359 334 359 338 c 0,49,35
 359 366 359 366 344.5 381 c 128,-1,36
EndSplineSet
EndChar

StartChar: agrave
Encoding: 224 224 107
Width: 628
GlyphClass: 2
Flags: MW
HStem: -10 121<126 287.5> 396 125<171.5 321.5> 491 20G<432 581 581 581> 575 145<291 339 188 409 291 291>
VStem: 17 196<152.5 172 152.5 265>
LayerCount: 2
Fore
SplineSet
409 575 m 1,0,-1
 291 575 l 1,1,-1
 185 717 l 1,2,-1
 188 720 l 1,3,-1
 339 720 l 1,4,-1
 409 575 l 1,0,-1
148 490.5 m 128,-1,6
 196 521 196 521 247 521 c 0,7,8
 349.147058824 521 349.147058824 521 393 450 c 1,9,-1
 398 450 l 1,10,-1
 432 511 l 1,11,-1
 581 511 l 1,12,13
 528 195 528 195 528 137 c 0,14,15
 528 110 528 110 554 110 c 0,16,17
 571 110 571 110 591 123 c 1,18,-1
 576 13 l 1,19,20
 532 -10 532 -10 475.5 -10 c 128,-1,21
 419 -10 419 -10 383.5 6 c 128,-1,22
 348 22 348 22 337 68 c 1,23,24
 310 34 310 34 269.5 12 c 128,-1,25
 229 -10 229 -10 188 -10 c 0,26,27
 100 -10 100 -10 58.5 46 c 128,-1,28
 17 102 17 102 17 193 c 0,29,30
 17 310.6 17 310.6 72.5 410.5 c 0,31,5
 100 460 100 460 148 490.5 c 128,-1,6
344.5 381 m 128,-1,33
 330 396 330 396 304.5 396 c 128,-1,34
 279 396 279 396 258.5 376 c 128,-1,35
 238 356 238 356 234 326 c 0,36,37
 213 178 213 178 213 170 c 0,38,39
 213 144 213 144 228 127.5 c 128,-1,40
 243 111 243 111 270 111 c 128,-1,41
 297 111 297 111 315 130.5 c 128,-1,42
 333 150 333 150 338 181 c 2,43,-1
 348 253 l 2,44,45
 359 334 359 334 359 338 c 0,46,32
 359 366 359 366 344.5 381 c 128,-1,33
EndSplineSet
EndChar

StartChar: amacron
Encoding: 257 257 108
Width: 628
GlyphClass: 2
Flags: MW
HStem: -10 121<126 287.5> 396 125<171.5 321.5> 491 20G<432 581 581 581> 662 74<205 523 205 523>
VStem: 17 196<152.5 172 152.5 265> 205 318<662 736 662 736>
LayerCount: 2
Fore
SplineSet
523 662 m 1,0,-1
 205 662 l 1,1,-1
 205 736 l 1,2,-1
 523 736 l 1,3,-1
 523 662 l 1,0,-1
148 490.5 m 128,-1,5
 196 521 196 521 247 521 c 0,6,7
 349.147058824 521 349.147058824 521 393 450 c 1,8,-1
 398 450 l 1,9,-1
 432 511 l 1,10,-1
 581 511 l 1,11,12
 528 195 528 195 528 137 c 0,13,14
 528 110 528 110 554 110 c 0,15,16
 571 110 571 110 591 123 c 1,17,-1
 576 13 l 1,18,19
 532 -10 532 -10 475.5 -10 c 128,-1,20
 419 -10 419 -10 383.5 6 c 128,-1,21
 348 22 348 22 337 68 c 1,22,23
 310 34 310 34 269.5 12 c 128,-1,24
 229 -10 229 -10 188 -10 c 0,25,26
 100 -10 100 -10 58.5 46 c 128,-1,27
 17 102 17 102 17 193 c 0,28,29
 17 310.6 17 310.6 72.5 410.5 c 0,30,4
 100 460 100 460 148 490.5 c 128,-1,5
344.5 381 m 128,-1,32
 330 396 330 396 304.5 396 c 128,-1,33
 279 396 279 396 258.5 376 c 128,-1,34
 238 356 238 356 234 326 c 0,35,36
 213 178 213 178 213 170 c 0,37,38
 213 144 213 144 228 127.5 c 128,-1,39
 243 111 243 111 270 111 c 128,-1,40
 297 111 297 111 315 130.5 c 128,-1,41
 333 150 333 150 338 181 c 2,42,-1
 348 253 l 2,43,44
 359 334 359 334 359 338 c 0,45,31
 359 366 359 366 344.5 381 c 128,-1,32
EndSplineSet
EndChar

StartChar: aogonek
Encoding: 261 261 109
Width: 628
GlyphClass: 2
Flags: MW
HStem: -143 53<495.5 560.5> -20 20G<542 565 565 565> -10 121<126 287.5> 396 125<171.5 321.5> 491 20G<432 581 581 581>
VStem: 17 196<152.5 172 152.5 265> 430 79<-72.5 -66.5>
LayerCount: 2
Fore
SplineSet
618 -76 m 1,0,-1
 625 -119 l 1,1,2
 572 -143 572 -143 526 -143 c 0,3,4
 430 -143 430 -143 430 -83 c 0,5,6
 430 -44 430 -44 479 -10 c 1,7,-1
 473 -10 l 2,8,9
 419 -10 419 -10 383.5 6 c 128,-1,10
 348 22 348 22 337 68 c 1,11,12
 310 34 310 34 269.5 12 c 128,-1,13
 229 -10 229 -10 188 -10 c 0,14,15
 100 -10 100 -10 58.5 46 c 128,-1,16
 17 102 17 102 17 193 c 0,17,18
 17 310.6 17 310.6 72.5 410.5 c 0,19,20
 100 460 100 460 148 490.5 c 128,-1,21
 196 521 196 521 247 521 c 0,22,23
 349.147058824 521 349.147058824 521 393 450 c 1,24,-1
 398 450 l 1,25,-1
 432 511 l 1,26,-1
 581 511 l 1,27,28
 528 195 528 195 528 137 c 0,29,30
 528 110 528 110 554 110 c 0,31,32
 571 110 571 110 591 123 c 1,33,-1
 576 13 l 1,34,35
 558 4 558 4 542 0 c 1,36,-1
 565 0 l 1,37,38
 548 -10 548 -10 539 -15.5 c 128,-1,39
 530 -21 530 -21 519.5 -34.5 c 128,-1,40
 509 -48 509 -48 509 -62 c 0,41,42
 509 -90 509 -90 549 -90 c 0,43,44
 578 -90 578 -90 618 -76 c 1,0,-1
338 181 m 2,45,-1
 348 253 l 2,46,47
 359 334 359 334 359 338 c 0,48,49
 359 366 359 366 344.5 381 c 128,-1,50
 330 396 330 396 304.5 396 c 128,-1,51
 279 396 279 396 258.5 376 c 128,-1,52
 238 356 238 356 234 326 c 0,53,54
 213 178 213 178 213 170 c 0,55,56
 213 144 213 144 228 127.5 c 128,-1,57
 243 111 243 111 270 111 c 128,-1,58
 297 111 297 111 315 130.5 c 128,-1,59
 333 150 333 150 338 181 c 2,45,-1
EndSplineSet
EndChar

StartChar: aring
Encoding: 229 229 110
Width: 628
GlyphClass: 2
Flags: MW
HStem: -10 121<126 287.5> 396 125<171.5 321.5> 491 20G<432 581 581 581> 559 65<356.5 375.5 356.5 388> 694 66<363.5 384.5>
VStem: 17 196<152.5 172 152.5 265> 268 67<645.5 665.5 645.5 677> 406 66<649.5 672.5>
LayerCount: 2
Fore
SplineSet
303 726 m 128,-1,1
 338 760 338 760 380.5 760 c 128,-1,2
 423 760 423 760 447.5 735.5 c 128,-1,3
 472 711 472 711 472 668.5 c 128,-1,4
 472 626 472 626 438 592.5 c 128,-1,5
 404 559 404 559 361 559 c 128,-1,6
 318 559 318 559 293 583.5 c 128,-1,7
 268 608 268 608 268 650 c 128,-1,0
 268 692 268 692 303 726 c 128,-1,1
375 694 m 0,8,9
 358 694 358 694 346.5 682.5 c 128,-1,10
 335 671 335 671 335 656 c 128,-1,11
 335 641 335 641 343.5 632.5 c 128,-1,12
 352 624 352 624 367 624 c 128,-1,13
 382 624 382 624 394 634 c 128,-1,14
 406 644 406 644 406 663 c 0,15,16
 406 694 406 694 375 694 c 0,8,9
148 490.5 m 128,-1,18
 196 521 196 521 247 521 c 0,19,20
 349.147058824 521 349.147058824 521 393 450 c 1,21,-1
 398 450 l 1,22,-1
 432 511 l 1,23,-1
 581 511 l 1,24,25
 528 195 528 195 528 137 c 0,26,27
 528 110 528 110 554 110 c 0,28,29
 571 110 571 110 591 123 c 1,30,-1
 576 13 l 1,31,32
 532 -10 532 -10 475.5 -10 c 128,-1,33
 419 -10 419 -10 383.5 6 c 128,-1,34
 348 22 348 22 337 68 c 1,35,36
 310 34 310 34 269.5 12 c 128,-1,37
 229 -10 229 -10 188 -10 c 0,38,39
 100 -10 100 -10 58.5 46 c 128,-1,40
 17 102 17 102 17 193 c 0,41,42
 17 310.6 17 310.6 72.5 410.5 c 0,43,17
 100 460 100 460 148 490.5 c 128,-1,18
344.5 381 m 128,-1,45
 330 396 330 396 304.5 396 c 128,-1,46
 279 396 279 396 258.5 376 c 128,-1,47
 238 356 238 356 234 326 c 0,48,49
 213 178 213 178 213 170 c 0,50,51
 213 144 213 144 228 127.5 c 128,-1,52
 243 111 243 111 270 111 c 128,-1,53
 297 111 297 111 315 130.5 c 128,-1,54
 333 150 333 150 338 181 c 2,55,-1
 348 253 l 2,56,57
 359 334 359 334 359 338 c 0,58,44
 359 366 359 366 344.5 381 c 128,-1,45
EndSplineSet
EndChar

StartChar: atilde
Encoding: 227 227 111
Width: 628
GlyphClass: 2
Flags: MW
HStem: -10 121<126 287.5> 396 125<171.5 321.5> 491 20G<432 581 581 581> 577 103<422 461.5 422 468.5> 577 143<122 314 122 314 239.5 468.5> 617 103<245.5 284.5>
VStem: 17 196<152.5 172 152.5 265>
LayerCount: 2
Fore
SplineSet
505 720 m 1,0,-1
 586 720 l 1,1,2
 577 663 577 663 532 620 c 128,-1,3
 487 577 487 577 425 577 c 0,4,5
 392 577 392 577 337.5 597 c 128,-1,6
 283 617 283 617 258 617 c 0,7,8
 221 617 221 617 202 577 c 1,9,-1
 122 577 l 1,10,11
 131 634 131 634 176 677 c 128,-1,12
 221 720 221 720 282 720 c 0,13,14
 315 720 315 720 369 700 c 128,-1,15
 423 680 423 680 449 680 c 0,16,17
 486 680 486 680 505 720 c 1,0,-1
148 490.5 m 128,-1,19
 196 521 196 521 247 521 c 0,20,21
 349.147058824 521 349.147058824 521 393 450 c 1,22,-1
 398 450 l 1,23,-1
 432 511 l 1,24,-1
 581 511 l 1,25,26
 528 195 528 195 528 137 c 0,27,28
 528 110 528 110 554 110 c 0,29,30
 571 110 571 110 591 123 c 1,31,-1
 576 13 l 1,32,33
 532 -10 532 -10 475.5 -10 c 128,-1,34
 419 -10 419 -10 383.5 6 c 128,-1,35
 348 22 348 22 337 68 c 1,36,37
 310 34 310 34 269.5 12 c 128,-1,38
 229 -10 229 -10 188 -10 c 0,39,40
 100 -10 100 -10 58.5 46 c 128,-1,41
 17 102 17 102 17 193 c 0,42,43
 17 310.6 17 310.6 72.5 410.5 c 0,44,18
 100 460 100 460 148 490.5 c 128,-1,19
344.5 381 m 128,-1,46
 330 396 330 396 304.5 396 c 128,-1,47
 279 396 279 396 258.5 376 c 128,-1,48
 238 356 238 356 234 326 c 0,49,50
 213 178 213 178 213 170 c 0,51,52
 213 144 213 144 228 127.5 c 128,-1,53
 243 111 243 111 270 111 c 128,-1,54
 297 111 297 111 315 130.5 c 128,-1,55
 333 150 333 150 338 181 c 2,56,-1
 348 253 l 2,57,58
 359 334 359 334 359 338 c 0,59,45
 359 366 359 366 344.5 381 c 128,-1,46
EndSplineSet
EndChar

StartChar: ae
Encoding: 230 230 112
Width: 924
GlyphClass: 2
Flags: MW
HStem: -10 121<137 282.5 594.5 603> 229 87<566 704> 354 167<48 344> 400 121<656 664.5> 405 116<311 326>
VStem: 1 210<133.5 170.5 133.5 197.5> 706 192<336 356.5>
LayerCount: 2
Fore
SplineSet
362 316 m 1,0,-1
 367 356 l 1,1,2
 367 379 367 379 351 392 c 128,-1,3
 335 405 335 405 310.5 405 c 128,-1,4
 286 405 286 405 263.5 391.5 c 128,-1,5
 241 378 241 378 239 358 c 1,6,-1
 238 354 l 1,7,-1
 48 354 l 1,8,9
 48 424 48 424 122.5 472.5 c 128,-1,10
 197 521 197 521 311 521 c 2,11,-1
 344 521 l 2,12,13
 442 521 442 521 500 487 c 1,14,15
 569 521 569 521 656 521 c 2,16,-1
 681 521 l 2,17,18
 786 521 786 521 842 469 c 128,-1,19
 898 417 898 417 898 330 c 1,20,-1
 896 303 l 2,21,22
 895 288 895 288 887 229 c 1,23,-1
 554 229 l 1,24,-1
 547 181 l 2,25,26
 546 178 546 178 546 170 c 0,27,28
 546 142 546 142 565 126.5 c 128,-1,29
 584 111 584 111 616.5 111 c 128,-1,30
 649 111 649 111 671 132.5 c 128,-1,31
 693 154 693 154 698 192 c 1,32,-1
 881 192 l 1,33,34
 869 105 869 105 793.5 47.5 c 128,-1,35
 718 -10 718 -10 603 -10 c 2,36,-1
 588 -10 l 2,37,38
 463 -10 463 -10 395 58 c 1,39,40
 308 -10 308 -10 175 -10 c 0,41,42
 1 -10 1 -10 1 114 c 0,43,44
 1 254 1 254 142 293 c 0,45,46
 225.153846154 316 225.153846154 316 362 316 c 1,0,-1
704 316 m 1,47,-1
 706 339 l 1,48,49
 706 365 706 365 689.5 382.5 c 128,-1,50
 673 400 673 400 644.5 400 c 128,-1,51
 616 400 616 400 594 380 c 128,-1,52
 572 360 572 360 568 330 c 2,53,-1
 566 316 l 1,54,-1
 704 316 l 1,47,-1
343 181 m 2,55,-1
 349 225 l 1,56,57
 211 225 211 225 211 149 c 0,58,59
 211 111 211 111 265 111 c 0,60,61
 292 111 292 111 315.5 130.5 c 128,-1,62
 339 150 339 150 343 181 c 2,55,-1
EndSplineSet
EndChar

StartChar: b
Encoding: 98 98 113
Width: 599
GlyphClass: 2
Flags: MW
HStem: -10 121<276 304.5 267.5 403.5> 396 125<304.5 457.5> 501 20G<376 457.5> 700 20G<109 307 307 307>
VStem: 376 196<333.5 357.5>
LayerCount: 2
Fore
SplineSet
307 720 m 1,0,-1
 270 458 l 1,1,2
 333 521 333 521 408.5 521 c 128,-1,3
 484 521 484 521 528 471 c 128,-1,4
 572 421 572 421 572 326 c 0,5,6
 572 196.633333333 572 196.633333333 511 97 c 0,7,8
 481 48 481 48 429.5 19 c 128,-1,9
 378 -10 378 -10 312 -10 c 0,10,11
 204 -10 204 -10 156 75 c 1,12,-1
 78 0 l 1,13,-1
 9 0 l 1,14,-1
 109 720 l 1,15,-1
 307 720 l 1,0,-1
361.5 381 m 128,-1,17
 347 396 347 396 321.5 396 c 128,-1,18
 296 396 296 396 275.5 376 c 128,-1,19
 255 356 255 356 251 326 c 0,20,21
 230 178 230 178 230 170 c 0,22,23
 230 144 230 144 245 127.5 c 128,-1,24
 260 111 260 111 287 111 c 128,-1,25
 314 111 314 111 332 130.5 c 128,-1,26
 350 150 350 150 355 181 c 2,27,-1
 365 253 l 2,28,29
 376 334 376 334 376 338 c 0,30,16
 376 366 376 366 361.5 381 c 128,-1,17
EndSplineSet
EndChar

StartChar: c
Encoding: 99 99 114
Width: 568
GlyphClass: 2
Flags: MW
HStem: -10 121<266.5 315.5 266.5 336.5> 400 121<298.5 339.5>
VStem: 16 205<153.5 179 153.5 286> 381 168<336 356.5>
AnchorPoint: "Bottom" 284 0 basechar 0
LayerCount: 2
Fore
SplineSet
378 304 m 1,0,-1
 381 339 l 1,1,2
 381 365 381 365 364.5 382.5 c 128,-1,3
 348 400 348 400 318 400 c 128,-1,4
 288 400 288 400 267.5 380.5 c 128,-1,5
 247 361 247 361 243 330 c 0,6,7
 221 212 221 212 221 178 c 0,8,9
 221 111 221 111 288 111 c 0,10,11
 326 111 326 111 346.5 132 c 128,-1,12
 367 153 367 153 371 181 c 2,13,-1
 375 207 l 1,14,-1
 533 207 l 1,15,16
 517 104 517 104 445.5 47 c 128,-1,17
 374 -10 374 -10 258.5 -10 c 128,-1,18
 143 -10 143 -10 79.5 50 c 128,-1,19
 16 110 16 110 16 198 c 0,20,21
 16 337 16 337 98 429 c 128,-1,22
 180 521 180 521 326 521 c 0,23,24
 392 521 392 521 439 503.5 c 128,-1,25
 486 486 486 486 508.5 456.5 c 0,26,27
 549 403.4 549 403.4 549 340 c 0,28,29
 549 322 549 322 546 304 c 1,30,-1
 378 304 l 1,0,-1
EndSplineSet
EndChar

StartChar: cacute
Encoding: 263 263 115
Width: 568
GlyphClass: 2
Flags: MW
HStem: -10 121<266.5 315.5 266.5 336.5> 400 121<298.5 339.5> 575 145<364 370 252 515>
VStem: 16 205<153.5 179 153.5 286> 381 168<336 356.5>
AnchorPoint: "Bottom" 284 0 basechar 0
LayerCount: 2
Fore
SplineSet
516 717 m 1,0,-1
 370 575 l 1,1,-1
 252 575 l 1,2,-1
 364 720 l 1,3,-1
 515 720 l 1,4,-1
 516 717 l 1,0,-1
378 304 m 1,5,-1
 381 339 l 1,6,7
 381 365 381 365 364.5 382.5 c 128,-1,8
 348 400 348 400 318 400 c 128,-1,9
 288 400 288 400 267.5 380.5 c 128,-1,10
 247 361 247 361 243 330 c 0,11,12
 221 212 221 212 221 178 c 0,13,14
 221 111 221 111 288 111 c 0,15,16
 326 111 326 111 346.5 132 c 128,-1,17
 367 153 367 153 371 181 c 2,18,-1
 375 207 l 1,19,-1
 533 207 l 1,20,21
 517 104 517 104 445.5 47 c 128,-1,22
 374 -10 374 -10 258.5 -10 c 128,-1,23
 143 -10 143 -10 79.5 50 c 128,-1,24
 16 110 16 110 16 198 c 0,25,26
 16 337 16 337 98 429 c 128,-1,27
 180 521 180 521 326 521 c 0,28,29
 392 521 392 521 439 503.5 c 128,-1,30
 486 486 486 486 508.5 456.5 c 0,31,32
 549 403.4 549 403.4 549 340 c 0,33,34
 549 322 549 322 546 304 c 1,35,-1
 378 304 l 1,5,-1
EndSplineSet
EndChar

StartChar: ccaron
Encoding: 269 269 116
Width: 568
GlyphClass: 2
Flags: MW
HStem: -10 121<266.5 315.5 266.5 336.5> 400 121<298.5 339.5> 575 145<279 291 161 407 279 279>
VStem: 16 205<153.5 179 153.5 286> 381 168<336 356.5>
AnchorPoint: "Bottom" 284 0 basechar 0
LayerCount: 2
Fore
SplineSet
407 575 m 1,0,-1
 279 575 l 1,1,-1
 161 720 l 1,2,-1
 291 720 l 1,3,-1
 354 643 l 1,4,-1
 439 720 l 1,5,-1
 567 720 l 1,6,-1
 407 575 l 1,0,-1
378 304 m 1,7,-1
 381 339 l 1,8,9
 381 365 381 365 364.5 382.5 c 128,-1,10
 348 400 348 400 318 400 c 128,-1,11
 288 400 288 400 267.5 380.5 c 128,-1,12
 247 361 247 361 243 330 c 0,13,14
 221 212 221 212 221 178 c 0,15,16
 221 111 221 111 288 111 c 0,17,18
 326 111 326 111 346.5 132 c 128,-1,19
 367 153 367 153 371 181 c 2,20,-1
 375 207 l 1,21,-1
 533 207 l 1,22,23
 517 104 517 104 445.5 47 c 128,-1,24
 374 -10 374 -10 258.5 -10 c 128,-1,25
 143 -10 143 -10 79.5 50 c 128,-1,26
 16 110 16 110 16 198 c 0,27,28
 16 337 16 337 98 429 c 128,-1,29
 180 521 180 521 326 521 c 0,30,31
 392 521 392 521 439 503.5 c 128,-1,32
 486 486 486 486 508.5 456.5 c 0,33,34
 549 403.4 549 403.4 549 340 c 0,35,36
 549 322 549 322 546 304 c 1,37,-1
 378 304 l 1,7,-1
EndSplineSet
EndChar

StartChar: ccedilla
Encoding: 231 231 117
Width: 568
GlyphClass: 2
Flags: MW
HStem: -197 58<205 240.5 205 249> -76 59<228 238 220 249> -10 121<266.5 315.5 266.5 336.5> 400 121<298.5 339.5>
VStem: 16 205<153.5 179 153.5 286> 272 87<-114.5 -100 -100 -92.5> 381 168<336 356.5>
LayerCount: 2
Fore
SplineSet
378 304 m 1,0,-1
 381 339 l 1,1,2
 381 365 381 365 364.5 382.5 c 128,-1,3
 348 400 348 400 318 400 c 128,-1,4
 288 400 288 400 267.5 380.5 c 128,-1,5
 247 361 247 361 243 330 c 0,6,7
 221 212 221 212 221 178 c 0,8,9
 221 111 221 111 288 111 c 0,10,11
 326 111 326 111 346.5 132 c 128,-1,12
 367 153 367 153 371 181 c 2,13,-1
 375 207 l 1,14,-1
 533 207 l 1,15,16
 517 104 517 104 445.5 47 c 128,-1,17
 374 -10 374 -10 258.5 -10 c 128,-1,18
 143 -10 143 -10 79.5 50 c 128,-1,19
 16 110 16 110 16 198 c 0,20,21
 16 337 16 337 98 429 c 128,-1,22
 180 521 180 521 326 521 c 0,23,24
 392 521 392 521 439 503.5 c 128,-1,25
 486 486 486 486 508.5 456.5 c 0,26,27
 549 403.4 549 403.4 549 340 c 0,28,29
 549 322 549 322 546 304 c 1,30,-1
 378 304 l 1,0,-1
228 -17 m 1,31,-1
 249 -17 l 2,32,33
 359 -17 359 -17 359 -92 c 2,34,-1
 359 -100 l 2,35,36
 359 -128 359 -128 345 -148.5 c 128,-1,37
 331 -169 331 -169 309 -179 c 0,38,39
 269.4 -197 269.4 -197 228 -197 c 0,40,41
 147 -197 147 -197 107 -161 c 1,42,-1
 147 -107 l 1,43,44
 172 -139 172 -139 227 -139 c 0,45,46
 272 -139 272 -139 272 -100 c 0,47,48
 272 -76 272 -76 238 -76 c 2,49,-1
 220 -76 l 1,50,-1
 228 -17 l 1,31,-1
EndSplineSet
EndChar

StartChar: d
Encoding: 100 100 118
Width: 639
GlyphClass: 2
Flags: MW
HStem: -10 121<143 286.5> 396 125<286.5 288.5 195 320.5> 700 20G<413 611 611 611>
VStem: 18 194<152.5 172 152.5 303>
LayerCount: 2
Fore
SplineSet
611 720 m 1,0,-1
 571 442 l 2,1,2
 530 156 530 156 531 146 c 0,3,4
 531 110 531 110 556 110 c 0,5,6
 573 110 573 110 593 123 c 1,7,-1
 578 13 l 1,8,9
 534 -10 534 -10 488 -10 c 128,-1,10
 442 -10 442 -10 418.5 -5.5 c 128,-1,11
 395 -1 395 -1 372.5 15 c 128,-1,12
 350 31 350 31 342 59 c 1,13,14
 312 27 312 27 279.5 8.5 c 128,-1,15
 247 -10 247 -10 197 -10 c 0,16,17
 114 -10 114 -10 66 41.5 c 128,-1,18
 18 93 18 93 18 193 c 0,19,20
 18 348 18 348 88 434.5 c 128,-1,21
 158 521 158 521 252.5 521 c 128,-1,22
 347 521 347 521 376 458 c 1,23,-1
 413 720 l 1,24,-1
 611 720 l 1,0,-1
343.5 381 m 128,-1,26
 329 396 329 396 303.5 396 c 128,-1,27
 278 396 278 396 257.5 376 c 128,-1,28
 237 356 237 356 233 326 c 0,29,30
 212 178 212 178 212 170 c 0,31,32
 212 144 212 144 227 127.5 c 128,-1,33
 242 111 242 111 269 111 c 128,-1,34
 296 111 296 111 314 130.5 c 128,-1,35
 332 150 332 150 337 181 c 2,36,-1
 347 253 l 2,37,38
 358 334 358 334 358 338 c 0,39,25
 358 366 358 366 343.5 381 c 128,-1,26
EndSplineSet
EndChar

StartChar: eth
Encoding: 240 240 119
Width: 613
GlyphClass: 2
Flags: MW
HStem: -10 121<177 298 262.5 279> 490 20G 665 20G<148 148> 675 20G<358 358> 708 20G<434 434>
VStem: 15 205<152.5 172.5 152.5 213> 380 206<330 339 339 356.5>
LayerCount: 2
Fore
SplineSet
150 689 m 1,0,-1
 270 739 l 1,1,2
 319 722 319 722 358 695 c 1,3,-1
 434 728 l 1,4,-1
 481 677 l 1,5,-1
 418 649 l 1,6,7
 495 581 495 581 540.5 492 c 128,-1,8
 586 403 586 403 586 311 c 0,9,10
 586 288.5 586 288.5 583 266 c 2,11,-1
 580 245 l 2,12,13
 564 132 564 132 479 61 c 128,-1,14
 394 -10 394 -10 279 -10 c 2,15,-1
 247 -10 l 2,16,17
 142 -10 142 -10 78.5 49.5 c 128,-1,18
 15 109 15 109 15 207 c 0,19,20
 15 226 15 226 18 245 c 2,21,-1
 21 266 l 2,22,23
 35 366 35 366 111.5 432 c 128,-1,24
 188 498 188 498 292 510 c 1,25,26
 290 539 290 539 265 580 c 1,27,-1
 194 549 l 1,28,-1
 143 600 l 1,29,-1
 223 635 l 1,30,31
 188 670 188 670 148 685 c 1,32,-1
 150 689 l 1,0,-1
363 382.5 m 128,-1,34
 346 400 346 400 318 400 c 128,-1,35
 290 400 290 400 268 380 c 128,-1,36
 246 360 246 360 242 330 c 2,37,-1
 221 181 l 2,38,39
 220 178 220 178 220 170 c 0,40,41
 220 144 220 144 237 127.5 c 128,-1,42
 254 111 254 111 280.5 111 c 128,-1,43
 307 111 307 111 330.5 131.5 c 128,-1,44
 354 152 354 152 359 181 c 2,45,-1
 380 330 l 1,46,-1
 380 339 l 2,47,33
 380 365 380 365 363 382.5 c 128,-1,34
EndSplineSet
EndChar

StartChar: dcaron
Encoding: 271 271 120
Width: 639
GlyphClass: 2
Flags: MW
HStem: -10 121<143 286.5> 396 125<286.5 288.5 195 320.5> 503 183<653 711 627 844> 503 217<413 711 413 627>
VStem: 18 194<152.5 172 152.5 303>
LayerCount: 2
Fore
SplineSet
611 720 m 1,0,-1
 571 442 l 2,1,2
 530 156 530 156 531 146 c 0,3,4
 531 110 531 110 556 110 c 0,5,6
 573 110 573 110 593 123 c 1,7,-1
 578 13 l 1,8,9
 534 -10 534 -10 488 -10 c 128,-1,10
 442 -10 442 -10 418.5 -5.5 c 128,-1,11
 395 -1 395 -1 372.5 15 c 128,-1,12
 350 31 350 31 342 59 c 1,13,14
 312 27 312 27 279.5 8.5 c 128,-1,15
 247 -10 247 -10 197 -10 c 0,16,17
 114 -10 114 -10 66 41.5 c 128,-1,18
 18 93 18 93 18 193 c 0,19,20
 18 348 18 348 88 434.5 c 128,-1,21
 158 521 158 521 252.5 521 c 128,-1,22
 347 521 347 521 376 458 c 1,23,-1
 413 720 l 1,24,-1
 611 720 l 1,0,-1
821 525 m 1,25,-1
 745 338 l 1,26,-1
 651 338 l 1,27,-1
 711 503 l 1,28,-1
 627 503 l 1,29,-1
 653 686 l 1,30,-1
 844 686 l 1,31,-1
 821 525 l 1,25,-1
343.5 381 m 128,-1,33
 329 396 329 396 303.5 396 c 128,-1,34
 278 396 278 396 257.5 376 c 128,-1,35
 237 356 237 356 233 326 c 0,36,37
 212 178 212 178 212 170 c 0,38,39
 212 144 212 144 227 127.5 c 128,-1,40
 242 111 242 111 269 111 c 128,-1,41
 296 111 296 111 314 130.5 c 128,-1,42
 332 150 332 150 337 181 c 2,43,-1
 347 253 l 2,44,45
 358 334 358 334 358 338 c 0,46,32
 358 366 358 366 343.5 381 c 128,-1,33
EndSplineSet
EndChar

StartChar: dcroat
Encoding: 273 273 121
Width: 639
GlyphClass: 2
Flags: MW
HStem: -10 121<143 286.5> 396 125<286.5 288.5 195 320.5> 592 74<297 395 285 405 603 667> 592 128<285 611 593 611 413 667 593 593>
VStem: 18 194<152.5 172 152.5 303>
LayerCount: 2
Fore
SplineSet
593 592 m 1,0,-1
 571 442 l 2,1,2
 530 156 530 156 531 146 c 0,3,4
 531 110 531 110 556 110 c 0,5,6
 573 110 573 110 593 123 c 1,7,-1
 578 13 l 1,8,9
 534 -10 534 -10 488 -10 c 0,10,11
 442 -10 442 -10 418.5 -5.5 c 128,-1,12
 395 -1 395 -1 372.5 15 c 128,-1,13
 350 31 350 31 342 59 c 1,14,15
 312 27 312 27 279.5 8.5 c 128,-1,16
 247 -10 247 -10 197 -10 c 0,17,18
 114 -10 114 -10 66 41.5 c 128,-1,19
 18 93 18 93 18 193 c 0,20,21
 18 348 18 348 88 434.5 c 128,-1,22
 158 521 158 521 252.5 521 c 0,23,24
 347 521 347 521 376 458 c 1,25,-1
 395 592 l 1,26,-1
 285 592 l 1,27,-1
 297 666 l 1,28,-1
 405 666 l 1,29,-1
 413 720 l 1,30,-1
 611 720 l 1,31,-1
 603 666 l 1,32,-1
 679 666 l 1,33,-1
 667 592 l 1,34,-1
 593 592 l 1,0,-1
337 181 m 2,35,-1
 347 253 l 2,36,37
 358 334 358 334 358 338 c 0,38,39
 358 366 358 366 343.5 381 c 128,-1,40
 329 396 329 396 303.5 396 c 0,41,42
 278 396 278 396 257.5 376 c 128,-1,43
 237 356 237 356 233 326 c 0,44,45
 212 178 212 178 212 170 c 0,46,47
 212 144 212 144 227 127.5 c 128,-1,48
 242 111 242 111 269 111 c 0,49,50
 296 111 296 111 314 130.5 c 128,-1,51
 332 150 332 150 337 181 c 2,35,-1
EndSplineSet
EndChar

StartChar: e
Encoding: 101 101 122
Width: 600
GlyphClass: 2
Flags: MW
HStem: -10 121<192 314 270.5 279> 229 87<242 380 242 563 230 380> 400 121<332 340.5>
VStem: 16 206<150.5 170 150.5 300.5> 382 192<333 356.5>
AnchorPoint: "Bottom" 300 0 basechar 0
LayerCount: 2
Fore
SplineSet
332 521 m 2,0,-1
 357 521 l 2,1,2
 462 521 462 521 518 469 c 128,-1,3
 574 417 574 417 574 330 c 1,4,-1
 572 303 l 2,5,6
 571 288 571 288 563 229 c 1,7,-1
 230 229 l 1,8,-1
 226 204 l 2,9,10
 221 173 221 173 222 170 c 0,11,12
 222 142 222 142 241 126.5 c 128,-1,13
 260 111 260 111 292.5 111 c 128,-1,14
 325 111 325 111 347 132.5 c 128,-1,15
 369 154 369 154 374 192 c 1,16,-1
 557 192 l 1,17,18
 545 105 545 105 469.5 47.5 c 128,-1,19
 394 -10 394 -10 279 -10 c 2,20,-1
 264 -10 l 2,21,22
 154 -10 154 -10 85 46 c 128,-1,23
 16 102 16 102 16 200 c 0,24,25
 16 348 16 348 103.5 434.5 c 128,-1,26
 191 521 191 521 332 521 c 2,0,-1
380 316 m 1,27,-1
 382 339 l 1,28,29
 382 365 382 365 365.5 382.5 c 128,-1,30
 349 400 349 400 321 400 c 128,-1,31
 293 400 293 400 270.5 379.5 c 128,-1,32
 248 359 248 359 244 330 c 2,33,-1
 242 316 l 1,34,-1
 380 316 l 1,27,-1
EndSplineSet
EndChar

StartChar: eacute
Encoding: 233 233 123
Width: 600
GlyphClass: 2
Flags: MW
HStem: -10 121<192 314 270.5 279> 229 87<242 380 242 563 230 380> 400 121<332 340.5> 575 145<397 403 285 548>
VStem: 16 206<150.5 170 150.5 300.5> 382 192<333 356.5>
LayerCount: 2
Fore
SplineSet
549 717 m 1,0,-1
 403 575 l 1,1,-1
 285 575 l 1,2,-1
 397 720 l 1,3,-1
 548 720 l 1,4,-1
 549 717 l 1,0,-1
332 521 m 2,5,-1
 357 521 l 2,6,7
 462 521 462 521 518 469 c 128,-1,8
 574 417 574 417 574 330 c 1,9,-1
 572 303 l 2,10,11
 571 288 571 288 563 229 c 1,12,-1
 230 229 l 1,13,-1
 226 204 l 2,14,15
 221 173 221 173 222 170 c 0,16,17
 222 142 222 142 241 126.5 c 128,-1,18
 260 111 260 111 292.5 111 c 128,-1,19
 325 111 325 111 347 132.5 c 128,-1,20
 369 154 369 154 374 192 c 1,21,-1
 557 192 l 1,22,23
 545 105 545 105 469.5 47.5 c 128,-1,24
 394 -10 394 -10 279 -10 c 2,25,-1
 264 -10 l 2,26,27
 154 -10 154 -10 85 46 c 128,-1,28
 16 102 16 102 16 200 c 0,29,30
 16 348 16 348 103.5 434.5 c 128,-1,31
 191 521 191 521 332 521 c 2,5,-1
380 316 m 1,32,-1
 382 339 l 1,33,34
 382 365 382 365 365.5 382.5 c 128,-1,35
 349 400 349 400 321 400 c 128,-1,36
 293 400 293 400 270.5 379.5 c 128,-1,37
 248 359 248 359 244 330 c 2,38,-1
 242 316 l 1,39,-1
 380 316 l 1,32,-1
EndSplineSet
EndChar

StartChar: ecaron
Encoding: 283 283 124
Width: 600
GlyphClass: 2
Flags: MW
HStem: -10 121<192 314 270.5 279> 229 87<242 380 242 563 230 380> 400 121<332 340.5> 575 145<295 307 177 423 295 295>
VStem: 16 206<150.5 170 150.5 300.5> 382 192<333 356.5>
AnchorPoint: "Bottom" 300 0 basechar 0
LayerCount: 2
Fore
SplineSet
423 575 m 1,0,-1
 295 575 l 1,1,-1
 177 720 l 1,2,-1
 307 720 l 1,3,-1
 370 643 l 1,4,-1
 455 720 l 1,5,-1
 583 720 l 1,6,-1
 423 575 l 1,0,-1
332 521 m 2,7,-1
 357 521 l 2,8,9
 462 521 462 521 518 469 c 128,-1,10
 574 417 574 417 574 330 c 1,11,-1
 572 303 l 2,12,13
 571 288 571 288 563 229 c 1,14,-1
 230 229 l 1,15,-1
 226 204 l 2,16,17
 221 173 221 173 222 170 c 0,18,19
 222 142 222 142 241 126.5 c 128,-1,20
 260 111 260 111 292.5 111 c 128,-1,21
 325 111 325 111 347 132.5 c 128,-1,22
 369 154 369 154 374 192 c 1,23,-1
 557 192 l 1,24,25
 545 105 545 105 469.5 47.5 c 128,-1,26
 394 -10 394 -10 279 -10 c 2,27,-1
 264 -10 l 2,28,29
 154 -10 154 -10 85 46 c 128,-1,30
 16 102 16 102 16 200 c 0,31,32
 16 348 16 348 103.5 434.5 c 128,-1,33
 191 521 191 521 332 521 c 2,7,-1
380 316 m 1,34,-1
 382 339 l 1,35,36
 382 365 382 365 365.5 382.5 c 128,-1,37
 349 400 349 400 321 400 c 128,-1,38
 293 400 293 400 270.5 379.5 c 128,-1,39
 248 359 248 359 244 330 c 2,40,-1
 242 316 l 1,41,-1
 380 316 l 1,34,-1
EndSplineSet
EndChar

StartChar: ecircumflex
Encoding: 234 234 125
Width: 600
GlyphClass: 2
Flags: MW
HStem: -10 121<192 314 270.5 279> 229 87<242 380 242 563 230 380> 400 121<332 340.5> 575 145<158 446 434 446 318 564 434 434> 652 68<371 371>
VStem: 16 206<150.5 170 150.5 300.5> 382 192<333 356.5>
LayerCount: 2
Fore
SplineSet
564 575 m 1,0,-1
 434 575 l 1,1,-1
 371 652 l 1,2,-1
 286 575 l 1,3,-1
 158 575 l 1,4,-1
 318 720 l 1,5,-1
 446 720 l 1,6,-1
 564 575 l 1,0,-1
332 521 m 2,7,-1
 357 521 l 2,8,9
 462 521 462 521 518 469 c 128,-1,10
 574 417 574 417 574 330 c 1,11,-1
 572 303 l 2,12,13
 571 288 571 288 563 229 c 1,14,-1
 230 229 l 1,15,-1
 226 204 l 2,16,17
 221 173 221 173 222 170 c 0,18,19
 222 142 222 142 241 126.5 c 128,-1,20
 260 111 260 111 292.5 111 c 128,-1,21
 325 111 325 111 347 132.5 c 128,-1,22
 369 154 369 154 374 192 c 1,23,-1
 557 192 l 1,24,25
 545 105 545 105 469.5 47.5 c 128,-1,26
 394 -10 394 -10 279 -10 c 2,27,-1
 264 -10 l 2,28,29
 154 -10 154 -10 85 46 c 128,-1,30
 16 102 16 102 16 200 c 0,31,32
 16 348 16 348 103.5 434.5 c 128,-1,33
 191 521 191 521 332 521 c 2,7,-1
380 316 m 1,34,-1
 382 339 l 1,35,36
 382 365 382 365 365.5 382.5 c 128,-1,37
 349 400 349 400 321 400 c 128,-1,38
 293 400 293 400 270.5 379.5 c 128,-1,39
 248 359 248 359 244 330 c 2,40,-1
 242 316 l 1,41,-1
 380 316 l 1,34,-1
EndSplineSet
EndChar

StartChar: edieresis
Encoding: 235 235 126
Width: 600
GlyphClass: 2
Flags: MW
HStem: -10 121<192 314 270.5 279> 229 87<242 380 242 563 230 380> 400 121<332 340.5> 573 147<185 316 164 337 185 384 405 536>
VStem: 16 206<150.5 170 150.5 300.5> 382 192<333 356.5>
LayerCount: 2
Fore
SplineSet
316 573 m 1,0,-1
 164 573 l 1,1,-1
 185 720 l 1,2,-1
 337 720 l 1,3,-1
 316 573 l 1,0,-1
536 573 m 1,4,-1
 384 573 l 1,5,-1
 405 720 l 1,6,-1
 557 720 l 1,7,-1
 536 573 l 1,4,-1
332 521 m 2,8,-1
 357 521 l 2,9,10
 462 521 462 521 518 469 c 128,-1,11
 574 417 574 417 574 330 c 1,12,-1
 572 303 l 2,13,14
 571 288 571 288 563 229 c 1,15,-1
 230 229 l 1,16,-1
 226 204 l 2,17,18
 221 173 221 173 222 170 c 0,19,20
 222 142 222 142 241 126.5 c 128,-1,21
 260 111 260 111 292.5 111 c 128,-1,22
 325 111 325 111 347 132.5 c 128,-1,23
 369 154 369 154 374 192 c 1,24,-1
 557 192 l 1,25,26
 545 105 545 105 469.5 47.5 c 128,-1,27
 394 -10 394 -10 279 -10 c 2,28,-1
 264 -10 l 2,29,30
 154 -10 154 -10 85 46 c 128,-1,31
 16 102 16 102 16 200 c 0,32,33
 16 348 16 348 103.5 434.5 c 128,-1,34
 191 521 191 521 332 521 c 2,8,-1
380 316 m 1,35,-1
 382 339 l 1,36,37
 382 365 382 365 365.5 382.5 c 128,-1,38
 349 400 349 400 321 400 c 128,-1,39
 293 400 293 400 270.5 379.5 c 128,-1,40
 248 359 248 359 244 330 c 2,41,-1
 242 316 l 1,42,-1
 380 316 l 1,35,-1
EndSplineSet
EndChar

StartChar: edotaccent
Encoding: 279 279 127
Width: 600
GlyphClass: 2
Flags: MW
HStem: -10 121<192 314 270.5 279> 229 87<242 380 242 563 230 380> 400 121<332 340.5> 604 132<348.5 369.5>
VStem: 16 206<150.5 170 150.5 300.5> 293 134<659 680.5> 382 192<333 356.5>
AnchorPoint: "Bottom" 300 0 basechar 0
LayerCount: 2
Fore
SplineSet
315.5 713.5 m 128,-1,1
 338 736 338 736 366.5 736 c 128,-1,2
 395 736 395 736 411 719.5 c 128,-1,3
 427 703 427 703 427 676 c 128,-1,4
 427 649 427 649 403.5 626.5 c 128,-1,5
 380 604 380 604 352.5 604 c 128,-1,6
 325 604 325 604 309 620 c 128,-1,7
 293 636 293 636 293 663.5 c 128,-1,0
 293 691 293 691 315.5 713.5 c 128,-1,1
332 521 m 2,8,-1
 357 521 l 2,9,10
 462 521 462 521 518 469 c 128,-1,11
 574 417 574 417 574 330 c 1,12,-1
 572 303 l 2,13,14
 571 288 571 288 563 229 c 1,15,-1
 230 229 l 1,16,-1
 226 204 l 2,17,18
 221 173 221 173 222 170 c 0,19,20
 222 142 222 142 241 126.5 c 128,-1,21
 260 111 260 111 292.5 111 c 128,-1,22
 325 111 325 111 347 132.5 c 128,-1,23
 369 154 369 154 374 192 c 1,24,-1
 557 192 l 1,25,26
 545 105 545 105 469.5 47.5 c 128,-1,27
 394 -10 394 -10 279 -10 c 2,28,-1
 264 -10 l 2,29,30
 154 -10 154 -10 85 46 c 128,-1,31
 16 102 16 102 16 200 c 0,32,33
 16 348 16 348 103.5 434.5 c 128,-1,34
 191 521 191 521 332 521 c 2,8,-1
380 316 m 1,35,-1
 382 339 l 1,36,37
 382 365 382 365 365.5 382.5 c 128,-1,38
 349 400 349 400 321 400 c 128,-1,39
 293 400 293 400 270.5 379.5 c 128,-1,40
 248 359 248 359 244 330 c 2,41,-1
 242 316 l 1,42,-1
 380 316 l 1,35,-1
EndSplineSet
EndChar

StartChar: egrave
Encoding: 232 232 128
Width: 600
GlyphClass: 2
Flags: MW
HStem: -10 121<192 314 270.5 279> 229 87<242 380 242 563 230 380> 400 121<332 340.5> 575 145<289 337 186 407 289 289>
VStem: 16 206<150.5 170 150.5 300.5> 382 192<333 356.5>
LayerCount: 2
Fore
SplineSet
407 575 m 1,0,-1
 289 575 l 1,1,-1
 183 717 l 1,2,-1
 186 720 l 1,3,-1
 337 720 l 1,4,-1
 407 575 l 1,0,-1
332 521 m 2,5,-1
 357 521 l 2,6,7
 462 521 462 521 518 469 c 128,-1,8
 574 417 574 417 574 330 c 1,9,-1
 572 303 l 2,10,11
 571 288 571 288 563 229 c 1,12,-1
 230 229 l 1,13,-1
 226 204 l 2,14,15
 221 173 221 173 222 170 c 0,16,17
 222 142 222 142 241 126.5 c 128,-1,18
 260 111 260 111 292.5 111 c 128,-1,19
 325 111 325 111 347 132.5 c 128,-1,20
 369 154 369 154 374 192 c 1,21,-1
 557 192 l 1,22,23
 545 105 545 105 469.5 47.5 c 128,-1,24
 394 -10 394 -10 279 -10 c 2,25,-1
 264 -10 l 2,26,27
 154 -10 154 -10 85 46 c 128,-1,28
 16 102 16 102 16 200 c 0,29,30
 16 348 16 348 103.5 434.5 c 128,-1,31
 191 521 191 521 332 521 c 2,5,-1
380 316 m 1,32,-1
 382 339 l 1,33,34
 382 365 382 365 365.5 382.5 c 128,-1,35
 349 400 349 400 321 400 c 128,-1,36
 293 400 293 400 270.5 379.5 c 128,-1,37
 248 359 248 359 244 330 c 2,38,-1
 242 316 l 1,39,-1
 380 316 l 1,32,-1
EndSplineSet
EndChar

StartChar: emacron
Encoding: 275 275 129
Width: 600
GlyphClass: 2
Flags: MW
HStem: -10 121<192 314 270.5 279> 229 87<242 380 242 563 230 380> 400 121<332 340.5> 662 74<191 509 191 509>
VStem: 16 206<150.5 170 150.5 300.5> 191 318<662 736 662 736> 382 192<333 356.5>
AnchorPoint: "Bottom" 300 0 basechar 0
LayerCount: 2
Fore
SplineSet
509 662 m 1,0,-1
 191 662 l 1,1,-1
 191 736 l 1,2,-1
 509 736 l 1,3,-1
 509 662 l 1,0,-1
332 521 m 2,4,-1
 357 521 l 2,5,6
 462 521 462 521 518 469 c 128,-1,7
 574 417 574 417 574 330 c 1,8,-1
 572 303 l 2,9,10
 571 288 571 288 563 229 c 1,11,-1
 230 229 l 1,12,-1
 226 204 l 2,13,14
 221 173 221 173 222 170 c 0,15,16
 222 142 222 142 241 126.5 c 128,-1,17
 260 111 260 111 292.5 111 c 128,-1,18
 325 111 325 111 347 132.5 c 128,-1,19
 369 154 369 154 374 192 c 1,20,-1
 557 192 l 1,21,22
 545 105 545 105 469.5 47.5 c 128,-1,23
 394 -10 394 -10 279 -10 c 2,24,-1
 264 -10 l 2,25,26
 154 -10 154 -10 85 46 c 128,-1,27
 16 102 16 102 16 200 c 0,28,29
 16 348 16 348 103.5 434.5 c 128,-1,30
 191 521 191 521 332 521 c 2,4,-1
380 316 m 1,31,-1
 382 339 l 1,32,33
 382 365 382 365 365.5 382.5 c 128,-1,34
 349 400 349 400 321 400 c 128,-1,35
 293 400 293 400 270.5 379.5 c 128,-1,36
 248 359 248 359 244 330 c 2,37,-1
 242 316 l 1,38,-1
 380 316 l 1,31,-1
EndSplineSet
EndChar

StartChar: eogonek
Encoding: 281 281 130
Width: 600
GlyphClass: 2
Flags: MW
HStem: -143 53<290.5 355.5> -10 121<192 314 270.5 274> 229 87<242 380 242 563 230 380> 400 121<332 340.5>
VStem: 16 206<150.5 170 150.5 300.5> 225 79<-72.5 -66.5> 382 192<333 356.5>
AnchorPoint: "Bottom" 300 0 basechar 0
LayerCount: 2
Fore
SplineSet
332 521 m 2,0,-1
 357 521 l 2,1,2
 462 521 462 521 518 469 c 128,-1,3
 574 417 574 417 574 330 c 1,4,-1
 572 303 l 2,5,6
 571 288 571 288 563 229 c 1,7,-1
 230 229 l 1,8,-1
 226 204 l 2,9,10
 221 173 221 173 222 170 c 0,11,12
 222 142 222 142 241 126.5 c 128,-1,13
 260 111 260 111 292.5 111 c 128,-1,14
 325 111 325 111 347 132.5 c 128,-1,15
 369 154 369 154 374 192 c 1,16,-1
 557 192 l 1,17,18
 547 121 547 121 493.5 68.5 c 128,-1,19
 440 16 440 16 356 -2 c 1,20,21
 304 -31 304 -31 304 -62 c 0,22,23
 304 -90 304 -90 344 -90 c 0,24,25
 373 -90 373 -90 413 -76 c 1,26,-1
 420 -119 l 1,27,28
 368 -143 368 -143 321.5 -143 c 0,29,30
 225 -143 225 -143 225 -83 c 0,31,32
 225 -44 225 -44 274 -10 c 1,33,-1
 264 -10 l 2,34,35
 154 -10 154 -10 85 46 c 128,-1,36
 16 102 16 102 16 200 c 0,37,38
 16 348 16 348 103.5 434.5 c 128,-1,39
 191 521 191 521 332 521 c 2,0,-1
380 316 m 1,40,-1
 382 339 l 1,41,42
 382 365 382 365 365.5 382.5 c 128,-1,43
 349 400 349 400 321 400 c 128,-1,44
 293 400 293 400 270.5 379.5 c 128,-1,45
 248 359 248 359 244 330 c 2,46,-1
 242 316 l 1,47,-1
 380 316 l 1,40,-1
EndSplineSet
EndChar

StartChar: f
Encoding: 102 102 131
Width: 418
GlyphClass: 2
Flags: MW
HStem: -187 122<-26.5 90> 369 142<56 100 36 120 318 418> 606 122<281.5 397.5> 708 20G<281.5 351>
VStem: -94 558
LayerCount: 2
Fore
SplineSet
334 728 m 0,0,1
 421 728 421 728 464 706 c 1,2,-1
 449 596 l 1,3,4
 415 606 415 606 395 606 c 0,5,6
 375 606 375 606 365 604 c 128,-1,7
 355 602 355 602 348 595.5 c 128,-1,8
 341 589 341 589 336.5 584.5 c 128,-1,9
 332 580 332 580 329 568 c 128,-1,10
 326 556 326 556 324.5 551.5 c 128,-1,11
 323 547 323 547 321 531 c 128,-1,12
 319 515 319 515 318 511 c 1,13,-1
 438 511 l 1,14,-1
 418 369 l 1,15,-1
 298 369 l 1,16,-1
 243 -26 l 2,17,18
 232 -105 232 -105 176 -146 c 128,-1,19
 120 -187 120 -187 35 -187 c 0,20,21
 -50 -187 -50 -187 -94 -165 c 1,22,-1
 -78 -53 l 1,23,24
 -51 -65 -51 -65 -18 -65 c 0,25,26
 37 -65 37 -65 49 4 c 1,27,-1
 100 369 l 1,28,-1
 36 369 l 1,29,-1
 56 511 l 1,30,-1
 120 511 l 1,31,-1
 129 577 l 2,32,33
 149 728 149 728 334 728 c 0,0,1
EndSplineSet
EndChar

StartChar: g
Encoding: 103 103 132
Width: 600
GlyphClass: 2
Flags: MW
HStem: -186 167<183 196 -3 313> 19 125<121.5 288.5> 400 121<285 307.5 183.5 318.5> 491 20G<509 579 579 579>
VStem: -3 199<-27.5 -19 -27.5 -19> 18 196<185.5 205 185.5 285.5>
LayerCount: 2
Fore
SplineSet
275 521 m 0,0,1
 384 521 384 521 430 436 c 1,2,-1
 509 511 l 1,3,-1
 579 511 l 1,4,-1
 513 40 l 2,5,6
 497 -72 497 -72 424.5 -129 c 128,-1,7
 352 -186 352 -186 245 -186 c 0,8,9
 177 -186 177 -186 124.5 -172 c 128,-1,10
 72 -158 72 -158 34.5 -119 c 128,-1,11
 -3 -80 -3 -80 -3 -19 c 1,12,-1
 196 -19 l 1,13,14
 196 -35 196 -35 210 -49 c 128,-1,15
 224 -63 224 -63 252 -63 c 0,16,17
 300 -63 300 -63 312 7 c 1,18,-1
 321 82 l 1,19,20
 261 19 261 19 179.5 19 c 128,-1,21
 98 19 98 19 58 75 c 128,-1,22
 18 131 18 131 18 216 c 0,23,24
 18 328.728813559 18 328.728813559 77.5 420.5 c 0,25,26
 107 466 107 466 158 493.5 c 128,-1,27
 209 521 209 521 275 521 c 0,0,1
341.5 385 m 128,-1,29
 327 400 327 400 301.5 400 c 128,-1,30
 276 400 276 400 255.5 380.5 c 128,-1,31
 235 361 235 361 231 330 c 2,32,-1
 222 270 l 2,33,34
 214 220 214 220 214 198.5 c 128,-1,35
 214 177 214 177 229 160.5 c 128,-1,36
 244 144 244 144 271 144 c 128,-1,37
 298 144 298 144 316.5 163.5 c 128,-1,38
 335 183 335 183 339 214 c 0,39,40
 356 333 356 333 356 351.5 c 128,-1,28
 356 370 356 370 341.5 385 c 128,-1,29
EndSplineSet
EndChar

StartChar: gbreve
Encoding: 287 287 133
Width: 600
GlyphClass: 2
Flags: MW
HStem: -186 167<183 196 -3 313> 19 125<121.5 288.5> 400 121<285 307.5 183.5 318.5> 491 20G<509 579 579 579> 613 86<322.5 376 322.5 402.5>
VStem: -3 199<-27.5 -19 -27.5 -19> 18 196<185.5 205 185.5 285.5> 157 96<731.5 737 731.5 737> 447 95<731.5 737>
LayerCount: 2
Fore
SplineSet
447 737 m 1,0,-1
 542 737 l 1,1,2
 542 693 542 693 484 653 c 128,-1,3
 426 613 426 613 349 613 c 128,-1,4
 272 613 272 613 214.5 653 c 128,-1,5
 157 693 157 693 157 737 c 1,6,-1
 253 737 l 1,7,8
 253 731 253 731 265.5 722.5 c 128,-1,9
 278 714 278 714 301 706.5 c 128,-1,10
 324 699 324 699 349 699 c 128,-1,11
 374 699 374 699 397.5 706.5 c 128,-1,12
 421 714 421 714 434 722.5 c 128,-1,13
 447 731 447 731 447 737 c 1,0,-1
275 521 m 0,14,15
 384 521 384 521 430 436 c 1,16,-1
 509 511 l 1,17,-1
 579 511 l 1,18,-1
 513 40 l 2,19,20
 497 -72 497 -72 424.5 -129 c 128,-1,21
 352 -186 352 -186 245 -186 c 0,22,23
 177 -186 177 -186 124.5 -172 c 128,-1,24
 72 -158 72 -158 34.5 -119 c 128,-1,25
 -3 -80 -3 -80 -3 -19 c 1,26,-1
 196 -19 l 1,27,28
 196 -35 196 -35 210 -49 c 128,-1,29
 224 -63 224 -63 252 -63 c 0,30,31
 300 -63 300 -63 312 7 c 1,32,-1
 321 82 l 1,33,34
 261 19 261 19 179.5 19 c 128,-1,35
 98 19 98 19 58 75 c 128,-1,36
 18 131 18 131 18 216 c 0,37,38
 18 328.728813559 18 328.728813559 77.5 420.5 c 0,39,40
 107 466 107 466 158 493.5 c 128,-1,41
 209 521 209 521 275 521 c 0,14,15
341.5 385 m 128,-1,43
 327 400 327 400 301.5 400 c 128,-1,44
 276 400 276 400 255.5 380.5 c 128,-1,45
 235 361 235 361 231 330 c 2,46,-1
 222 270 l 2,47,48
 214 220 214 220 214 198.5 c 128,-1,49
 214 177 214 177 229 160.5 c 128,-1,50
 244 144 244 144 271 144 c 128,-1,51
 298 144 298 144 316.5 163.5 c 128,-1,52
 335 183 335 183 339 214 c 0,53,54
 356 333 356 333 356 351.5 c 128,-1,42
 356 370 356 370 341.5 385 c 128,-1,43
EndSplineSet
EndChar

StartChar: gcommaaccent
Encoding: 291 291 134
Width: 600
GlyphClass: 2
Flags: MW
HStem: -186 167<183 196 -3 313> 19 125<121.5 288.5> 400 121<285 307.5 183.5 318.5> 491 20G<509 579 579 579> 581 151<365 429 238 450>
VStem: -3 199<-27.5 -19 -27.5 -19> 18 196<185.5 205 185.5 285.5>
LayerCount: 2
Fore
SplineSet
255 700 m 1,0,-1
 299 811 l 1,1,-1
 393 811 l 1,2,-1
 365 732 l 1,3,-1
 450 732 l 1,4,-1
 429 581 l 1,5,-1
 238 581 l 1,6,-1
 255 700 l 1,0,-1
275 521 m 0,7,8
 384 521 384 521 430 436 c 1,9,-1
 509 511 l 1,10,-1
 579 511 l 1,11,-1
 513 40 l 2,12,13
 497 -72 497 -72 424.5 -129 c 128,-1,14
 352 -186 352 -186 245 -186 c 0,15,16
 177 -186 177 -186 124.5 -172 c 128,-1,17
 72 -158 72 -158 34.5 -119 c 128,-1,18
 -3 -80 -3 -80 -3 -19 c 1,19,-1
 196 -19 l 1,20,21
 196 -35 196 -35 210 -49 c 128,-1,22
 224 -63 224 -63 252 -63 c 0,23,24
 300 -63 300 -63 312 7 c 1,25,-1
 321 82 l 1,26,27
 261 19 261 19 179.5 19 c 128,-1,28
 98 19 98 19 58 75 c 128,-1,29
 18 131 18 131 18 216 c 0,30,31
 18 328.728813559 18 328.728813559 77.5 420.5 c 0,32,33
 107 466 107 466 158 493.5 c 128,-1,34
 209 521 209 521 275 521 c 0,7,8
341.5 385 m 128,-1,36
 327 400 327 400 301.5 400 c 128,-1,37
 276 400 276 400 255.5 380.5 c 128,-1,38
 235 361 235 361 231 330 c 2,39,-1
 222 270 l 2,40,41
 214 220 214 220 214 198.5 c 128,-1,42
 214 177 214 177 229 160.5 c 128,-1,43
 244 144 244 144 271 144 c 128,-1,44
 298 144 298 144 316.5 163.5 c 128,-1,45
 335 183 335 183 339 214 c 0,46,47
 356 333 356 333 356 351.5 c 128,-1,35
 356 370 356 370 341.5 385 c 128,-1,36
EndSplineSet
EndChar

StartChar: h
Encoding: 104 104 135
Width: 597
GlyphClass: 2
Flags: MW
HStem: 380 141<294.5 484 377.5 563> 501 20G<377.5 484> 700 20G<109 307 307 307>
VStem: 9 554<0 380>
LayerCount: 2
Fore
SplineSet
312 0 m 1,0,-1
 358 326 l 1,1,-1
 358 333 l 2,2,3
 358 353 358 353 346 366.5 c 128,-1,4
 334 380 334 380 310.5 380 c 128,-1,5
 287 380 287 380 271 363 c 128,-1,6
 255 346 255 346 251 320 c 2,7,-1
 206 0 l 1,8,-1
 9 0 l 1,9,-1
 109 720 l 1,10,-1
 307 720 l 1,11,-1
 269 451 l 1,12,13
 318 521 318 521 420 521 c 0,14,15
 465 521 465 521 496 506.5 c 128,-1,16
 527 492 527 492 540 469 c 0,17,18
 563 428.307692308 563 428.307692308 563 392 c 2,19,-1
 563 380 l 2,20,21
 563 379.833333333 563 379.833333333 510 0 c 1,22,-1
 312 0 l 1,0,-1
EndSplineSet
EndChar

StartChar: i
Encoding: 105 105 136
Width: 296
GlyphClass: 2
Flags: MW
HStem: 491 20G<80 277 277 277> 577 143<109 286 89 306>
VStem: 9 297
LayerCount: 2
Fore
SplineSet
286 577 m 1,0,-1
 89 577 l 1,1,-1
 109 720 l 1,2,-1
 306 720 l 1,3,-1
 286 577 l 1,0,-1
205 0 m 1,4,-1
 9 0 l 1,5,-1
 80 511 l 1,6,-1
 277 511 l 1,7,-1
 205 0 l 1,4,-1
EndSplineSet
EndChar

StartChar: dotlessi
Encoding: 305 305 137
Width: 296
GlyphClass: 2
Flags: MW
HStem: 491 20G<80 277 277 277>
VStem: 9 268
LayerCount: 2
Fore
SplineSet
206 0 m 1,0,-1
 9 0 l 1,1,-1
 80 511 l 1,2,-1
 277 511 l 1,3,-1
 206 0 l 1,0,-1
EndSplineSet
EndChar

StartChar: iacute
Encoding: 237 237 138
Width: 296
GlyphClass: 2
Flags: MW
HStem: 491 20G<80 277 277 277> 575 145<204 210 92 355>
VStem: 9 347
LayerCount: 2
Fore
SplineSet
356 717 m 1,0,-1
 210 575 l 1,1,-1
 92 575 l 1,2,-1
 204 720 l 1,3,-1
 355 720 l 1,4,-1
 356 717 l 1,0,-1
206 0 m 1,5,-1
 9 0 l 1,6,-1
 80 511 l 1,7,-1
 277 511 l 1,8,-1
 206 0 l 1,5,-1
EndSplineSet
EndChar

StartChar: icircumflex
Encoding: 238 238 139
Width: 296
GlyphClass: 2
Flags: MW
HStem: 491 20G<80 277 277 277> 575 145<-18 270 258 270 142 388 258 258> 652 68<195 195>
VStem: -18 406<575 575>
LayerCount: 2
Fore
SplineSet
388 575 m 1,0,-1
 258 575 l 1,1,-1
 195 652 l 1,2,-1
 110 575 l 1,3,-1
 -18 575 l 1,4,-1
 142 720 l 1,5,-1
 270 720 l 1,6,-1
 388 575 l 1,0,-1
206 0 m 1,7,-1
 9 0 l 1,8,-1
 80 511 l 1,9,-1
 277 511 l 1,10,-1
 206 0 l 1,7,-1
EndSplineSet
EndChar

StartChar: idieresis
Encoding: 239 239 140
Width: 296
GlyphClass: 2
Flags: MW
HStem: 491 20G<80 277 277 277> 573 147<22 153 1 174 22 221 242 373>
VStem: 1 393<573 720>
LayerCount: 2
Fore
SplineSet
153 573 m 1,0,-1
 1 573 l 1,1,-1
 22 720 l 1,2,-1
 174 720 l 1,3,-1
 153 573 l 1,0,-1
373 573 m 1,4,-1
 221 573 l 1,5,-1
 242 720 l 1,6,-1
 394 720 l 1,7,-1
 373 573 l 1,4,-1
206 0 m 1,8,-1
 9 0 l 1,9,-1
 80 511 l 1,10,-1
 277 511 l 1,11,-1
 206 0 l 1,8,-1
EndSplineSet
EndChar

StartChar: igrave
Encoding: 236 236 141
Width: 296
GlyphClass: 2
Flags: MW
HStem: 491 20G<80 277 277 277> 575 145<154 202 51 272 154 154>
VStem: 9 268
LayerCount: 2
Fore
SplineSet
272 575 m 1,0,-1
 154 575 l 1,1,-1
 48 717 l 1,2,-1
 51 720 l 1,3,-1
 202 720 l 1,4,-1
 272 575 l 1,0,-1
206 0 m 1,5,-1
 9 0 l 1,6,-1
 80 511 l 1,7,-1
 277 511 l 1,8,-1
 206 0 l 1,5,-1
EndSplineSet
EndChar

StartChar: imacron
Encoding: 299 299 142
Width: 296
GlyphClass: 2
Flags: MW
HStem: 491 20G<80 277 277 277> 662 74<30 348 30 348>
VStem: 30 318<662 736 662 736>
LayerCount: 2
Fore
SplineSet
348 662 m 1,0,-1
 30 662 l 1,1,-1
 30 736 l 1,2,-1
 348 736 l 1,3,-1
 348 662 l 1,0,-1
206 0 m 1,4,-1
 9 0 l 1,5,-1
 80 511 l 1,6,-1
 277 511 l 1,7,-1
 206 0 l 1,4,-1
EndSplineSet
EndChar

StartChar: iogonek
Encoding: 303 303 143
Width: 296
GlyphClass: 2
Flags: MW
HStem: -143 53<126.5 191.5> 491 20G<80 277 277 277> 577 143<109 286 89 306>
VStem: 61 79<-72.5 -63.5>
LayerCount: 2
Fore
SplineSet
306 720 m 1,0,-1
 286 577 l 1,1,-1
 89 577 l 1,2,-1
 109 720 l 1,3,-1
 306 720 l 1,0,-1
206 0 m 1,4,-1
 196 0 l 1,5,6
 179 -10 179 -10 170 -15.5 c 128,-1,7
 161 -21 161 -21 150.5 -34.5 c 128,-1,8
 140 -48 140 -48 140 -62 c 0,9,10
 140 -90 140 -90 180 -90 c 0,11,12
 209 -90 209 -90 249 -76 c 1,13,-1
 256 -119 l 1,14,15
 203 -143 203 -143 157 -143 c 0,16,17
 61 -143 61 -143 61 -83 c 0,18,19
 61 -39 61 -39 126 0 c 1,20,-1
 9 0 l 1,21,-1
 80 511 l 1,22,-1
 277 511 l 1,23,-1
 206 0 l 1,4,-1
EndSplineSet
EndChar

StartChar: j
Encoding: 106 106 144
Width: 298
GlyphClass: 2
Flags: MW
HStem: -187 122<-63.5 52.5> 491 20G<80 279 279 279> 577 143<109 288 89 308>
VStem: -132 440
LayerCount: 2
Fore
SplineSet
288 577 m 1,0,-1
 89 577 l 1,1,-1
 109 720 l 1,2,-1
 308 720 l 1,3,-1
 288 577 l 1,0,-1
279 511 m 1,4,-1
 203 -26 l 2,5,6
 192 -105 192 -105 137 -146 c 128,-1,7
 82 -187 82 -187 2 -187 c 0,8,9
 -78 -187 -78 -187 -132 -165 c 1,10,-1
 -116 -53 l 1,11,12
 -90 -65 -90 -65 -56 -65 c 0,13,14
 -0 -65 -0 -65 9 4 c 2,15,-1
 80 511 l 1,16,-1
 279 511 l 1,4,-1
EndSplineSet
EndChar

StartChar: k
Encoding: 107 107 145
Width: 601
GlyphClass: 2
Flags: MW
HStem: 491 20G<408 634 634 634> 700 20G<109 307 307 307>
VStem: 9 625<0 511>
AnchorPoint: "Bottom" 301 0 basechar 0
LayerCount: 2
Fore
SplineSet
251 321 m 1,0,-1
 408 511 l 1,1,-1
 634 511 l 1,2,-1
 422 280 l 1,3,-1
 565 0 l 1,4,-1
 332 0 l 1,5,-1
 262 145 l 1,6,-1
 222 114 l 1,7,-1
 206 0 l 1,8,-1
 9 0 l 1,9,-1
 109 720 l 1,10,-1
 307 720 l 1,11,-1
 251 321 l 1,0,-1
EndSplineSet
EndChar

StartChar: kcommaaccent
Encoding: 311 311 146
Width: 601
GlyphClass: 2
Flags: MW
HStem: -171 151<202 266 181 393> 491 20G<408 634 634 634> 700 20G<109 307 307 307>
VStem: 9 625<0 511>
AnchorPoint: "Bottom" 301 0 basechar 0
LayerCount: 2
Fore
SplineSet
251 321 m 1,0,-1
 408 511 l 1,1,-1
 634 511 l 1,2,-1
 422 280 l 1,3,-1
 565 0 l 1,4,-1
 332 0 l 1,5,-1
 262 145 l 1,6,-1
 222 114 l 1,7,-1
 206 0 l 1,8,-1
 9 0 l 1,9,-1
 109 720 l 1,10,-1
 307 720 l 1,11,-1
 251 321 l 1,0,-1
376 -139 m 1,12,-1
 332 -250 l 1,13,-1
 238 -250 l 1,14,-1
 266 -171 l 1,15,-1
 181 -171 l 1,16,-1
 202 -20 l 1,17,-1
 393 -20 l 1,18,-1
 376 -139 l 1,12,-1
EndSplineSet
EndChar

StartChar: l
Encoding: 108 108 147
Width: 297
GlyphClass: 2
Flags: MW
HStem: 700 20G<109 307 307 307>
VStem: 9 298
AnchorPoint: "Bottom" 108 0 basechar 0
LayerCount: 2
Fore
SplineSet
206 0 m 1,0,-1
 9 0 l 1,1,-1
 109 720 l 1,2,-1
 307 720 l 1,3,-1
 206 0 l 1,0,-1
EndSplineSet
EndChar

StartChar: lacute
Encoding: 314 314 148
Width: 297
GlyphClass: 2
Flags: MW
HStem: 700 20G<109 307 307 307> 750 145<243 249 131 394>
VStem: 9 386
AnchorPoint: "Bottom" 108 0 basechar 0
LayerCount: 2
Fore
SplineSet
395 892 m 1,0,-1
 249 750 l 1,1,-1
 131 750 l 1,2,-1
 243 895 l 1,3,-1
 394 895 l 1,4,-1
 395 892 l 1,0,-1
206 0 m 1,5,-1
 9 0 l 1,6,-1
 109 720 l 1,7,-1
 307 720 l 1,8,-1
 206 0 l 1,5,-1
EndSplineSet
EndChar

StartChar: lcaron
Encoding: 318 318 149
Width: 297
GlyphClass: 2
Flags: MW
HStem: 503 183<358 416 332 549> 503 217<109 416 109 332>
VStem: 9 540
AnchorPoint: "Bottom" 108 0 basechar 0
LayerCount: 2
Fore
SplineSet
206 0 m 1,0,-1
 9 0 l 1,1,-1
 109 720 l 1,2,-1
 307 720 l 1,3,-1
 206 0 l 1,0,-1
526 525 m 1,4,-1
 450 338 l 1,5,-1
 356 338 l 1,6,-1
 416 503 l 1,7,-1
 332 503 l 1,8,-1
 358 686 l 1,9,-1
 549 686 l 1,10,-1
 526 525 l 1,4,-1
EndSplineSet
EndChar

StartChar: lcommaaccent
Encoding: 316 316 150
Width: 297
GlyphClass: 2
Flags: MW
HStem: -171 151<9 73 -12 200> 700 20G<109 307 307 307>
VStem: -12 319
AnchorPoint: "Bottom" 108 0 basechar 0
LayerCount: 2
Fore
SplineSet
206 0 m 1,0,-1
 9 0 l 1,1,-1
 109 720 l 1,2,-1
 307 720 l 1,3,-1
 206 0 l 1,0,-1
183 -139 m 1,4,-1
 139 -250 l 1,5,-1
 45 -250 l 1,6,-1
 73 -171 l 1,7,-1
 -12 -171 l 1,8,-1
 9 -20 l 1,9,-1
 200 -20 l 1,10,-1
 183 -139 l 1,4,-1
EndSplineSet
EndChar

StartChar: lslash
Encoding: 322 322 151
Width: 346
GlyphClass: 2
Flags: MW
HStem: 499 20G<365 365> 700 20G<134 332 332 332>
VStem: 11 354<255 519>
LayerCount: 2
Fore
SplineSet
299 488 m 1,0,-1
 365 519 l 1,1,-1
 350 414 l 1,2,-1
 285 384 l 1,3,-1
 231 0 l 1,4,-1
 34 0 l 1,5,-1
 73 285 l 1,6,-1
 11 255 l 1,7,-1
 25 360 l 1,8,-1
 88 389 l 1,9,-1
 134 720 l 1,10,-1
 332 720 l 1,11,-1
 299 488 l 1,0,-1
EndSplineSet
EndChar

StartChar: m
Encoding: 109 109 152
Width: 869
GlyphClass: 2
Flags: MW
HStem: 379 132<80 314.5> 491 20G<80 228 228 228> 501 20G<357.5 440 652.5 740>
VStem: 8 827<0 428.5>
LayerCount: 2
Fore
SplineSet
692 521 m 0,0,1
 761 521 761 521 798 485 c 128,-1,2
 835 449 835 449 835 392 c 0,3,4
 835 370 835 370 818 254 c 2,5,-1
 808 184 l 2,6,7
 806 172 806 172 797 105.5 c 128,-1,8
 788 39 788 39 782 0 c 1,9,-1
 588 0 l 1,10,11
 597.6 74.4 597.6 74.4 615.8 199.2 c 128,-1,12
 634 324 634 324 634 339 c 128,-1,13
 634 354 634 354 622.5 366.5 c 128,-1,14
 611 379 611 379 591 379 c 128,-1,15
 571 379 571 379 555.5 364 c 128,-1,16
 540 349 540 349 537 324 c 2,17,-1
 492 0 l 1,18,-1
 298 0 l 1,19,20
 307.6 74.4 307.6 74.4 325.8 199.2 c 128,-1,21
 344 324 344 324 344 339 c 128,-1,22
 344 354 344 354 332.5 366.5 c 128,-1,23
 321 379 321 379 301 379 c 128,-1,24
 281 379 281 379 265.5 364 c 128,-1,25
 250 349 250 349 247 324 c 2,26,-1
 202 0 l 1,27,-1
 8 0 l 1,28,-1
 80 511 l 1,29,-1
 228 511 l 1,30,-1
 238 437 l 1,31,32
 258 466 258 466 301 493.5 c 128,-1,33
 344 521 344 521 402 521 c 0,34,35
 503 521 503 521 535 443 c 1,36,37
 592 521 592 521 692 521 c 0,0,1
EndSplineSet
EndChar

StartChar: n
Encoding: 110 110 153
Width: 597
GlyphClass: 2
Flags: MW
HStem: 380 131<80 327.5> 491 20G<80 229 229 229> 501 20G<361 467>
VStem: 8 555<0 428.5>
AnchorPoint: "Bottom" 299 0 basechar 0
LayerCount: 2
Fore
SplineSet
419 521 m 0,0,1
 488 521 488 521 525.5 485 c 128,-1,2
 563 449 563 449 563 392 c 0,3,4
 563 372 563 372 546 255 c 2,5,-1
 536 185 l 2,6,7
 534 171 534 171 525 105.5 c 128,-1,8
 516 40 516 40 510 0 c 1,9,-1
 312 0 l 1,10,11
 321.361702128 71.3829787234 321.361702128 71.3829787234 339.680851064 195.691489362 c 128,-1,12
 358 320 358 320 358 336 c 128,-1,13
 358 352 358 352 346 366 c 128,-1,14
 334 380 334 380 310.5 380 c 128,-1,15
 287 380 287 380 271 363 c 128,-1,16
 255 346 255 346 251 320 c 2,17,-1
 206 0 l 1,18,-1
 8 0 l 1,19,-1
 80 511 l 1,20,-1
 229 511 l 1,21,-1
 238 437 l 1,22,23
 302 521 302 521 419 521 c 0,0,1
EndSplineSet
EndChar

StartChar: nacute
Encoding: 324 324 154
Width: 597
GlyphClass: 2
Flags: MW
HStem: 380 131<80 327.5> 491 20G<80 229 229 229> 501 20G<361 467> 575 145<409 415 297 560>
VStem: 8 555<0 428.5>
AnchorPoint: "Bottom" 299 0 basechar 0
LayerCount: 2
Fore
SplineSet
561 717 m 1,0,-1
 415 575 l 1,1,-1
 297 575 l 1,2,-1
 409 720 l 1,3,-1
 560 720 l 1,4,-1
 561 717 l 1,0,-1
419 521 m 0,5,6
 488 521 488 521 525.5 485 c 128,-1,7
 563 449 563 449 563 392 c 0,8,9
 563 372 563 372 546 255 c 2,10,-1
 536 185 l 2,11,12
 534 171 534 171 525 105.5 c 128,-1,13
 516 40 516 40 510 0 c 1,14,-1
 312 0 l 1,15,16
 321.361702128 71.3829787234 321.361702128 71.3829787234 339.680851064 195.691489362 c 128,-1,17
 358 320 358 320 358 336 c 128,-1,18
 358 352 358 352 346 366 c 128,-1,19
 334 380 334 380 310.5 380 c 128,-1,20
 287 380 287 380 271 363 c 128,-1,21
 255 346 255 346 251 320 c 2,22,-1
 206 0 l 1,23,-1
 8 0 l 1,24,-1
 80 511 l 1,25,-1
 229 511 l 1,26,-1
 238 437 l 1,27,28
 302 521 302 521 419 521 c 0,5,6
EndSplineSet
EndChar

StartChar: ncaron
Encoding: 328 328 155
Width: 597
GlyphClass: 2
Flags: MW
HStem: 380 131<80 327.5> 491 20G<80 229 229 229> 501 20G<361 467> 575 145<324 336 206 452 324 324>
VStem: 8 604
AnchorPoint: "Bottom" 299 0 basechar 0
LayerCount: 2
Fore
SplineSet
452 575 m 1,0,-1
 324 575 l 1,1,-1
 206 720 l 1,2,-1
 336 720 l 1,3,-1
 399 643 l 1,4,-1
 484 720 l 1,5,-1
 612 720 l 1,6,-1
 452 575 l 1,0,-1
419 521 m 0,7,8
 488 521 488 521 525.5 485 c 128,-1,9
 563 449 563 449 563 392 c 0,10,11
 563 372 563 372 546 255 c 2,12,-1
 536 185 l 2,13,14
 534 171 534 171 525 105.5 c 128,-1,15
 516 40 516 40 510 0 c 1,16,-1
 312 0 l 1,17,18
 321.361702128 71.3829787234 321.361702128 71.3829787234 339.680851064 195.691489362 c 128,-1,19
 358 320 358 320 358 336 c 128,-1,20
 358 352 358 352 346 366 c 128,-1,21
 334 380 334 380 310.5 380 c 128,-1,22
 287 380 287 380 271 363 c 128,-1,23
 255 346 255 346 251 320 c 2,24,-1
 206 0 l 1,25,-1
 8 0 l 1,26,-1
 80 511 l 1,27,-1
 229 511 l 1,28,-1
 238 437 l 1,29,30
 302 521 302 521 419 521 c 0,7,8
EndSplineSet
EndChar

StartChar: ncommaaccent
Encoding: 326 326 156
Width: 597
GlyphClass: 2
Flags: MW
HStem: -171 151<200 264 179 391> 380 131<80 327.5> 491 20G<80 229 229 229> 501 20G<361 467>
VStem: 8 555<0 428.5>
AnchorPoint: "Bottom" 299 0 basechar 0
LayerCount: 2
Fore
SplineSet
419 521 m 0,0,1
 488 521 488 521 525.5 485 c 128,-1,2
 563 449 563 449 563 392 c 0,3,4
 563 372 563 372 546 255 c 2,5,-1
 536 185 l 2,6,7
 534 171 534 171 525 105.5 c 128,-1,8
 516 40 516 40 510 0 c 1,9,-1
 312 0 l 1,10,11
 321.361702128 71.3829787234 321.361702128 71.3829787234 339.680851064 195.691489362 c 128,-1,12
 358 320 358 320 358 336 c 128,-1,13
 358 352 358 352 346 366 c 128,-1,14
 334 380 334 380 310.5 380 c 128,-1,15
 287 380 287 380 271 363 c 128,-1,16
 255 346 255 346 251 320 c 2,17,-1
 206 0 l 1,18,-1
 8 0 l 1,19,-1
 80 511 l 1,20,-1
 229 511 l 1,21,-1
 238 437 l 1,22,23
 302 521 302 521 419 521 c 0,0,1
374 -139 m 1,24,-1
 330 -250 l 1,25,-1
 236 -250 l 1,26,-1
 264 -171 l 1,27,-1
 179 -171 l 1,28,-1
 200 -20 l 1,29,-1
 391 -20 l 1,30,-1
 374 -139 l 1,24,-1
EndSplineSet
EndChar

StartChar: ntilde
Encoding: 241 241 157
Width: 597
GlyphClass: 2
Flags: MW
HStem: 380 131<80 327.5> 491 20G<80 229 229 229> 501 20G<361 467> 577 103<411 450.5 411 457.5> 577 143<111 303 111 303 228.5 457.5> 617 103<234.5 273.5>
VStem: 8 567
LayerCount: 2
Fore
SplineSet
494 720 m 1,0,-1
 575 720 l 1,1,2
 566 663 566 663 521 620 c 128,-1,3
 476 577 476 577 414 577 c 0,4,5
 381 577 381 577 326.5 597 c 128,-1,6
 272 617 272 617 247 617 c 0,7,8
 210 617 210 617 191 577 c 1,9,-1
 111 577 l 1,10,11
 120 634 120 634 165 677 c 128,-1,12
 210 720 210 720 271 720 c 0,13,14
 304 720 304 720 358 700 c 128,-1,15
 412 680 412 680 438 680 c 0,16,17
 475 680 475 680 494 720 c 1,0,-1
419 521 m 0,18,19
 488 521 488 521 525.5 485 c 128,-1,20
 563 449 563 449 563 392 c 0,21,22
 563 372 563 372 546 255 c 2,23,-1
 536 185 l 2,24,25
 534 171 534 171 525 105.5 c 128,-1,26
 516 40 516 40 510 0 c 1,27,-1
 312 0 l 1,28,29
 321.361702128 71.3829787234 321.361702128 71.3829787234 339.680851064 195.691489362 c 128,-1,30
 358 320 358 320 358 336 c 128,-1,31
 358 352 358 352 346 366 c 128,-1,32
 334 380 334 380 310.5 380 c 128,-1,33
 287 380 287 380 271 363 c 128,-1,34
 255 346 255 346 251 320 c 2,35,-1
 206 0 l 1,36,-1
 8 0 l 1,37,-1
 80 511 l 1,38,-1
 229 511 l 1,39,-1
 238 437 l 1,40,41
 302 521 302 521 419 521 c 0,18,19
EndSplineSet
EndChar

StartChar: o
Encoding: 111 111 158
Width: 613
GlyphClass: 2
Flags: MW
HStem: -10 121<263.5 265 265 280> 400 121<323 340 340 340.5>
VStem: 16 205<153.5 176 153.5 279.5> 382 205<339 354.5>
LayerCount: 2
Fore
SplineSet
323 521 m 2,0,-1
 340 521 l 2,1,2
 458 521 458 521 522.5 462.5 c 128,-1,3
 587 404 587 404 587 305 c 0,4,5
 587 168 587 168 501 79 c 128,-1,6
 415 -10 415 -10 280 -10 c 2,7,-1
 265 -10 l 2,8,9
 145 -10 145 -10 80.5 48.5 c 128,-1,10
 16 107 16 107 16 205 c 0,11,12
 16 324.208333333 16 324.208333333 89 418.5 c 0,13,14
 125 465 125 465 186 493 c 128,-1,15
 247 521 247 521 323 521 c 2,0,-1
365.5 381.5 m 128,-1,17
 349 400 349 400 320.5 400 c 128,-1,18
 292 400 292 400 270 380 c 128,-1,19
 248 360 248 360 243 330 c 0,20,21
 221 194 221 194 221 169.5 c 128,-1,22
 221 145 221 145 238 128 c 128,-1,23
 255 111 255 111 283.5 111 c 128,-1,24
 312 111 312 111 333.5 131 c 128,-1,25
 355 151 355 151 360 181 c 2,26,-1
 371 254 l 1,27,-1
 382 339 l 1,28,16
 382 363 382 363 365.5 381.5 c 128,-1,17
EndSplineSet
Substitution2: "Single Substitution lookup 5 subtable" ordmasculine
Substitution2: "'aalt' Access All Alternates lookup 0 subtable" ordmasculine
EndChar

StartChar: oacute
Encoding: 243 243 159
Width: 613
GlyphClass: 2
Flags: MW
HStem: -10 121<263.5 265 265 280> 400 121<323 340 340 340.5> 575 145<399 405 287 550>
VStem: 16 205<153.5 176 153.5 279.5> 382 205<339 354.5>
LayerCount: 2
Fore
SplineSet
551 717 m 1,0,-1
 405 575 l 1,1,-1
 287 575 l 1,2,-1
 399 720 l 1,3,-1
 550 720 l 1,4,-1
 551 717 l 1,0,-1
323 521 m 2,5,-1
 340 521 l 2,6,7
 458 521 458 521 522.5 462.5 c 128,-1,8
 587 404 587 404 587 305 c 0,9,10
 587 168 587 168 501 79 c 128,-1,11
 415 -10 415 -10 280 -10 c 2,12,-1
 265 -10 l 2,13,14
 145 -10 145 -10 80.5 48.5 c 128,-1,15
 16 107 16 107 16 205 c 0,16,17
 16 324.208333333 16 324.208333333 89 418.5 c 0,18,19
 125 465 125 465 186 493 c 128,-1,20
 247 521 247 521 323 521 c 2,5,-1
365.5 381.5 m 128,-1,22
 349 400 349 400 320.5 400 c 128,-1,23
 292 400 292 400 270 380 c 128,-1,24
 248 360 248 360 243 330 c 0,25,26
 221 194 221 194 221 169.5 c 128,-1,27
 221 145 221 145 238 128 c 128,-1,28
 255 111 255 111 283.5 111 c 128,-1,29
 312 111 312 111 333.5 131 c 128,-1,30
 355 151 355 151 360 181 c 2,31,-1
 371 254 l 1,32,-1
 382 339 l 1,33,21
 382 363 382 363 365.5 381.5 c 128,-1,22
EndSplineSet
EndChar

StartChar: ocircumflex
Encoding: 244 244 160
Width: 613
GlyphClass: 2
Flags: MW
HStem: -10 121<263.5 265 265 280> 400 121<323 340 340 340.5> 575 145<148 436 424 436 308 554 424 424> 652 68<361 361>
VStem: 16 205<153.5 176 153.5 279.5> 382 205<339 354.5>
LayerCount: 2
Fore
SplineSet
554 575 m 1,0,-1
 424 575 l 1,1,-1
 361 652 l 1,2,-1
 276 575 l 1,3,-1
 148 575 l 1,4,-1
 308 720 l 1,5,-1
 436 720 l 1,6,-1
 554 575 l 1,0,-1
323 521 m 2,7,-1
 340 521 l 2,8,9
 458 521 458 521 522.5 462.5 c 128,-1,10
 587 404 587 404 587 305 c 0,11,12
 587 168 587 168 501 79 c 128,-1,13
 415 -10 415 -10 280 -10 c 2,14,-1
 265 -10 l 2,15,16
 145 -10 145 -10 80.5 48.5 c 128,-1,17
 16 107 16 107 16 205 c 0,18,19
 16 324.208333333 16 324.208333333 89 418.5 c 0,20,21
 125 465 125 465 186 493 c 128,-1,22
 247 521 247 521 323 521 c 2,7,-1
365.5 381.5 m 128,-1,24
 349 400 349 400 320.5 400 c 128,-1,25
 292 400 292 400 270 380 c 128,-1,26
 248 360 248 360 243 330 c 0,27,28
 221 194 221 194 221 169.5 c 128,-1,29
 221 145 221 145 238 128 c 128,-1,30
 255 111 255 111 283.5 111 c 128,-1,31
 312 111 312 111 333.5 131 c 128,-1,32
 355 151 355 151 360 181 c 2,33,-1
 371 254 l 1,34,-1
 382 339 l 1,35,23
 382 363 382 363 365.5 381.5 c 128,-1,24
EndSplineSet
EndChar

StartChar: odieresis
Encoding: 246 246 161
Width: 613
GlyphClass: 2
Flags: MW
HStem: -10 121<263.5 265 265 280> 400 121<323 340 340 340.5> 573 147<183 314 162 335 183 382 403 534>
VStem: 16 205<153.5 176 153.5 279.5> 382 205<339 354.5 214 573>
LayerCount: 2
Fore
SplineSet
314 573 m 1,0,-1
 162 573 l 1,1,-1
 183 720 l 1,2,-1
 335 720 l 1,3,-1
 314 573 l 1,0,-1
534 573 m 1,4,-1
 382 573 l 1,5,-1
 403 720 l 1,6,-1
 555 720 l 1,7,-1
 534 573 l 1,4,-1
323 521 m 2,8,-1
 340 521 l 2,9,10
 458 521 458 521 522.5 462.5 c 128,-1,11
 587 404 587 404 587 305 c 0,12,13
 587 168 587 168 501 79 c 128,-1,14
 415 -10 415 -10 280 -10 c 2,15,-1
 265 -10 l 2,16,17
 145 -10 145 -10 80.5 48.5 c 128,-1,18
 16 107 16 107 16 205 c 0,19,20
 16 324.208333333 16 324.208333333 89 418.5 c 0,21,22
 125 465 125 465 186 493 c 128,-1,23
 247 521 247 521 323 521 c 2,8,-1
365.5 381.5 m 128,-1,25
 349 400 349 400 320.5 400 c 128,-1,26
 292 400 292 400 270 380 c 128,-1,27
 248 360 248 360 243 330 c 0,28,29
 221 194 221 194 221 169.5 c 128,-1,30
 221 145 221 145 238 128 c 128,-1,31
 255 111 255 111 283.5 111 c 128,-1,32
 312 111 312 111 333.5 131 c 128,-1,33
 355 151 355 151 360 181 c 2,34,-1
 371 254 l 1,35,-1
 382 339 l 1,36,24
 382 363 382 363 365.5 381.5 c 128,-1,25
EndSplineSet
EndChar

StartChar: ograve
Encoding: 242 242 162
Width: 613
GlyphClass: 2
Flags: MW
HStem: -10 121<263.5 265 265 280> 400 121<323 340 340 340.5> 575 145<281 329 178 399 281 281>
VStem: 16 205<153.5 176 153.5 279.5> 382 205<339 354.5>
LayerCount: 2
Fore
SplineSet
399 575 m 1,0,-1
 281 575 l 1,1,-1
 175 717 l 1,2,-1
 178 720 l 1,3,-1
 329 720 l 1,4,-1
 399 575 l 1,0,-1
323 521 m 2,5,-1
 340 521 l 2,6,7
 458 521 458 521 522.5 462.5 c 128,-1,8
 587 404 587 404 587 305 c 0,9,10
 587 168 587 168 501 79 c 128,-1,11
 415 -10 415 -10 280 -10 c 2,12,-1
 265 -10 l 2,13,14
 145 -10 145 -10 80.5 48.5 c 128,-1,15
 16 107 16 107 16 205 c 0,16,17
 16 324.208333333 16 324.208333333 89 418.5 c 0,18,19
 125 465 125 465 186 493 c 128,-1,20
 247 521 247 521 323 521 c 2,5,-1
365.5 381.5 m 128,-1,22
 349 400 349 400 320.5 400 c 128,-1,23
 292 400 292 400 270 380 c 128,-1,24
 248 360 248 360 243 330 c 0,25,26
 221 194 221 194 221 169.5 c 128,-1,27
 221 145 221 145 238 128 c 128,-1,28
 255 111 255 111 283.5 111 c 128,-1,29
 312 111 312 111 333.5 131 c 128,-1,30
 355 151 355 151 360 181 c 2,31,-1
 371 254 l 1,32,-1
 382 339 l 1,33,21
 382 363 382 363 365.5 381.5 c 128,-1,22
EndSplineSet
EndChar

StartChar: ohungarumlaut
Encoding: 337 337 163
Width: 613
GlyphClass: 2
Flags: MW
HStem: -10 121<263.5 265 265 280> 400 121<323 340 340 340.5> 575 145<293 299 181 444 408 408 408 444 520 526>
VStem: 16 205<153.5 176 153.5 279.5> 382 205<339 354.5>
LayerCount: 2
Fore
SplineSet
445 717 m 1,0,-1
 299 575 l 1,1,-1
 181 575 l 1,2,-1
 293 720 l 1,3,-1
 444 720 l 1,4,-1
 445 717 l 1,0,-1
672 717 m 1,5,-1
 526 575 l 1,6,-1
 408 575 l 1,7,-1
 520 720 l 1,8,-1
 671 720 l 1,9,-1
 672 717 l 1,5,-1
323 521 m 2,10,-1
 340 521 l 2,11,12
 458 521 458 521 522.5 462.5 c 128,-1,13
 587 404 587 404 587 305 c 0,14,15
 587 168 587 168 501 79 c 128,-1,16
 415 -10 415 -10 280 -10 c 2,17,-1
 265 -10 l 2,18,19
 145 -10 145 -10 80.5 48.5 c 128,-1,20
 16 107 16 107 16 205 c 0,21,22
 16 324.208333333 16 324.208333333 89 418.5 c 0,23,24
 125 465 125 465 186 493 c 128,-1,25
 247 521 247 521 323 521 c 2,10,-1
365.5 381.5 m 128,-1,27
 349 400 349 400 320.5 400 c 128,-1,28
 292 400 292 400 270 380 c 128,-1,29
 248 360 248 360 243 330 c 0,30,31
 221 194 221 194 221 169.5 c 128,-1,32
 221 145 221 145 238 128 c 128,-1,33
 255 111 255 111 283.5 111 c 128,-1,34
 312 111 312 111 333.5 131 c 128,-1,35
 355 151 355 151 360 181 c 2,36,-1
 371 254 l 1,37,-1
 382 339 l 1,38,26
 382 363 382 363 365.5 381.5 c 128,-1,27
EndSplineSet
EndChar

StartChar: omacron
Encoding: 333 333 164
Width: 613
GlyphClass: 2
Flags: MW
HStem: -10 121<263.5 265 265 280> 400 121<323 340 340 340.5> 662 74<208 526 208 526>
VStem: 16 205<153.5 176 153.5 279.5> 208 318<662 736 662 736> 382 205<339 354.5>
LayerCount: 2
Fore
SplineSet
526 662 m 1,0,-1
 208 662 l 1,1,-1
 208 736 l 1,2,-1
 526 736 l 1,3,-1
 526 662 l 1,0,-1
323 521 m 2,4,-1
 340 521 l 2,5,6
 458 521 458 521 522.5 462.5 c 128,-1,7
 587 404 587 404 587 305 c 0,8,9
 587 168 587 168 501 79 c 128,-1,10
 415 -10 415 -10 280 -10 c 2,11,-1
 265 -10 l 2,12,13
 145 -10 145 -10 80.5 48.5 c 128,-1,14
 16 107 16 107 16 205 c 0,15,16
 16 324.208333333 16 324.208333333 89 418.5 c 0,17,18
 125 465 125 465 186 493 c 128,-1,19
 247 521 247 521 323 521 c 2,4,-1
365.5 381.5 m 128,-1,21
 349 400 349 400 320.5 400 c 128,-1,22
 292 400 292 400 270 380 c 128,-1,23
 248 360 248 360 243 330 c 0,24,25
 221 194 221 194 221 169.5 c 128,-1,26
 221 145 221 145 238 128 c 128,-1,27
 255 111 255 111 283.5 111 c 128,-1,28
 312 111 312 111 333.5 131 c 128,-1,29
 355 151 355 151 360 181 c 2,30,-1
 371 254 l 1,31,-1
 382 339 l 1,32,20
 382 363 382 363 365.5 381.5 c 128,-1,21
EndSplineSet
EndChar

StartChar: oslash
Encoding: 248 248 165
Width: 613
GlyphClass: 2
Flags: MW
HStem: -10 121<244.5 325.5 273.5 280> 400 121<323 329>
VStem: 14 576
LayerCount: 2
Fore
SplineSet
590 569 m 1,0,-1
 513 470 l 1,1,2
 587 411 587 411 587 305 c 0,3,4
 587 168 587 168 501 79 c 128,-1,5
 415 -10 415 -10 280 -10 c 2,6,-1
 265 -10 l 2,7,8
 205 -10 205 -10 154 7 c 1,9,-1
 106 -55 l 1,10,-1
 14 -55 l 1,11,-1
 89 41 l 1,12,13
 16 99 16 99 16 205 c 0,14,15
 16 324.208333333 16 324.208333333 89 418.5 c 0,16,17
 125 465 125 465 186 493 c 128,-1,18
 247 521 247 521 323 521 c 2,19,-1
 340 521 l 2,20,21
 399 521 399 521 448 504 c 1,22,-1
 498 569 l 1,23,-1
 590 569 l 1,0,-1
358 388 m 1,24,25
 343 400 343 400 317.5 400 c 128,-1,26
 292 400 292 400 269.5 380 c 128,-1,27
 247 360 247 360 243 330 c 2,28,-1
 227 219 l 1,29,-1
 358 388 l 1,24,25
375 292 m 1,30,-1
 244 123 l 1,31,32
 259 111 259 111 280.5 111 c 128,-1,33
 302 111 302 111 317.5 119.5 c 128,-1,34
 333 128 333 128 341.5 139.5 c 128,-1,35
 350 151 350 151 356 171.5 c 128,-1,36
 362 192 362 192 364 208 c 128,-1,37
 366 224 366 224 369 250.5 c 128,-1,38
 372 277 372 277 375 292 c 1,30,-1
EndSplineSet
EndChar

StartChar: otilde
Encoding: 245 245 166
Width: 613
GlyphClass: 2
Flags: MW
HStem: -10 121<263.5 265 265 280> 400 121<323 340 340 340.5> 577 103<426 465.5 426 472.5> 577 143<126 318 126 318 243.5 472.5> 617 103<249.5 288.5>
VStem: 16 205<153.5 176 153.5 279.5> 382 205<339 354.5>
LayerCount: 2
Fore
SplineSet
509 720 m 1,0,-1
 590 720 l 1,1,2
 581 663 581 663 536 620 c 128,-1,3
 491 577 491 577 429 577 c 0,4,5
 396 577 396 577 341.5 597 c 128,-1,6
 287 617 287 617 262 617 c 0,7,8
 225 617 225 617 206 577 c 1,9,-1
 126 577 l 1,10,11
 135 634 135 634 180 677 c 128,-1,12
 225 720 225 720 286 720 c 0,13,14
 319 720 319 720 373 700 c 128,-1,15
 427 680 427 680 453 680 c 0,16,17
 490 680 490 680 509 720 c 1,0,-1
323 521 m 2,18,-1
 340 521 l 2,19,20
 458 521 458 521 522.5 462.5 c 128,-1,21
 587 404 587 404 587 305 c 0,22,23
 587 168 587 168 501 79 c 128,-1,24
 415 -10 415 -10 280 -10 c 2,25,-1
 265 -10 l 2,26,27
 145 -10 145 -10 80.5 48.5 c 128,-1,28
 16 107 16 107 16 205 c 0,29,30
 16 324.208333333 16 324.208333333 89 418.5 c 0,31,32
 125 465 125 465 186 493 c 128,-1,33
 247 521 247 521 323 521 c 2,18,-1
365.5 381.5 m 128,-1,35
 349 400 349 400 320.5 400 c 128,-1,36
 292 400 292 400 270 380 c 128,-1,37
 248 360 248 360 243 330 c 0,38,39
 221 194 221 194 221 169.5 c 128,-1,40
 221 145 221 145 238 128 c 128,-1,41
 255 111 255 111 283.5 111 c 128,-1,42
 312 111 312 111 333.5 131 c 128,-1,43
 355 151 355 151 360 181 c 2,44,-1
 371 254 l 1,45,-1
 382 339 l 1,46,34
 382 363 382 363 365.5 381.5 c 128,-1,35
EndSplineSet
EndChar

StartChar: oe
Encoding: 339 339 167
Width: 943
GlyphClass: 2
Flags: MW
HStem: -10 121<263.5 265 265 280 613.5 622> 229 87<585 723 585 906 573 723> 400 121<323 340 340 340.5 675 683.5>
VStem: 16 205<153.5 176 153.5 279.5> 725 192<333 356.5>
LayerCount: 2
Fore
SplineSet
675 521 m 2,0,-1
 700 521 l 2,1,2
 805 521 805 521 861 469 c 128,-1,3
 917 417 917 417 917 330 c 0,4,5
 917 323 917 323 916 320 c 2,6,-1
 915 303 l 2,7,8
 914 288 914 288 906 229 c 1,9,-1
 573 229 l 1,10,-1
 569 204 l 2,11,12
 564 173 564 173 565 170 c 0,13,14
 565 142 565 142 584 126.5 c 128,-1,15
 603 111 603 111 635.5 111 c 128,-1,16
 668 111 668 111 690 132.5 c 128,-1,17
 712 154 712 154 717 192 c 1,18,-1
 900 192 l 1,19,20
 888 105 888 105 812.5 47.5 c 128,-1,21
 737 -10 737 -10 622 -10 c 2,22,-1
 607 -10 l 2,23,24
 508 -10 508 -10 444 33 c 1,25,26
 369 -10 369 -10 280 -10 c 2,27,-1
 265 -10 l 2,28,29
 145 -10 145 -10 80.5 48.5 c 128,-1,30
 16 107 16 107 16 205 c 0,31,32
 16 324.208333333 16 324.208333333 89 418.5 c 0,33,34
 125 465 125 465 186 493 c 128,-1,35
 247 521 247 521 323 521 c 2,36,-1
 340 521 l 2,37,38
 437 521 437 521 502 478 c 1,39,40
 575 521 575 521 675 521 c 2,0,-1
365.5 381.5 m 128,-1,42
 349 400 349 400 320.5 400 c 128,-1,43
 292 400 292 400 270 380 c 128,-1,44
 248 360 248 360 243 330 c 0,45,46
 221 194 221 194 221 169.5 c 128,-1,47
 221 145 221 145 238 128 c 128,-1,48
 255 111 255 111 283.5 111 c 128,-1,49
 312 111 312 111 333.5 131 c 128,-1,50
 355 151 355 151 360 181 c 2,51,-1
 371 254 l 1,52,-1
 382 339 l 1,53,41
 382 363 382 363 365.5 381.5 c 128,-1,42
723 316 m 1,54,-1
 725 339 l 1,55,56
 725 365 725 365 708.5 382.5 c 128,-1,57
 692 400 692 400 664 400 c 128,-1,58
 636 400 636 400 613.5 379.5 c 128,-1,59
 591 359 591 359 587 330 c 2,60,-1
 585 316 l 1,61,-1
 723 316 l 1,54,-1
EndSplineSet
EndChar

StartChar: p
Encoding: 112 112 168
Width: 599
GlyphClass: 2
Flags: MW
HStem: -10 125<269.5 422> 400 111<80 340.5> 400 121<306.5 440.5>
VStem: 378 194<337.5 361.5>
LayerCount: 2
Fore
SplineSet
248 452 m 1,0,1
 313 521 313 521 392 521 c 128,-1,2
 471 521 471 521 521.5 469.5 c 128,-1,3
 572 418 572 418 572 319 c 0,4,5
 572 202.943396226 572 202.943396226 518.5 102 c 0,6,7
 492 52 492 52 445 21 c 128,-1,8
 398 -10 398 -10 345.5 -10 c 128,-1,9
 293 -10 293 -10 259.5 8 c 128,-1,10
 226 26 226 26 214 53 c 1,11,-1
 181 -181 l 1,12,-1
 -16 -181 l 1,13,-1
 80 511 l 1,14,-1
 238 511 l 1,15,-1
 248 452 l 1,0,1
363.5 385 m 128,-1,17
 349 400 349 400 323.5 400 c 128,-1,18
 298 400 298 400 277.5 380 c 128,-1,19
 257 360 257 360 253 330 c 0,20,21
 232 182 232 182 232 174 c 0,22,23
 232 148 232 148 247 131.5 c 128,-1,24
 262 115 262 115 289 115 c 128,-1,25
 316 115 316 115 334 134.5 c 128,-1,26
 352 154 352 154 357 185 c 2,27,-1
 367 257 l 2,28,29
 378 338 378 338 378 342 c 0,30,16
 378 370 378 370 363.5 385 c 128,-1,17
EndSplineSet
EndChar

StartChar: thorn
Encoding: 254 254 169
Width: 599
GlyphClass: 2
Flags: MW
HStem: -10 125<268.5 389> 400 121<306.5 457.5> 501 20G<375.5 457.5> 700 20G<109 307 307 307>
VStem: -17 589<-181 391.5> 377 195<340 357.5>
LayerCount: 2
Fore
SplineSet
307 720 m 1,0,-1
 270 458 l 1,1,2
 319 521 319 521 411 521 c 0,3,4
 484 521 484 521 528 471 c 128,-1,5
 572 421 572 421 572 326 c 0,6,7
 572 299 572 299 567 261 c 1,8,-1
 566 250 l 1,9,10
 549 124 549 124 484.5 57 c 128,-1,11
 420 -10 420 -10 331 -10 c 128,-1,12
 242 -10 242 -10 213 53 c 1,13,-1
 180 -181 l 1,14,-1
 -17 -181 l 1,15,-1
 109 720 l 1,16,-1
 307 720 l 1,0,-1
362 383 m 128,-1,18
 347 400 347 400 322.5 400 c 128,-1,19
 298 400 298 400 277 379.5 c 128,-1,20
 256 359 256 359 252 330 c 2,21,-1
 232 185 l 2,22,23
 231 182 231 182 231 165 c 128,-1,24
 231 148 231 148 246 131.5 c 128,-1,25
 261 115 261 115 285 115 c 128,-1,26
 309 115 309 115 330.5 135.5 c 128,-1,27
 352 156 352 156 356 185 c 2,28,-1
 377 340 l 1,29,17
 377 366 377 366 362 383 c 128,-1,18
EndSplineSet
EndChar

StartChar: q
Encoding: 113 113 170
Width: 599
GlyphClass: 2
Flags: MW
HStem: -11 125<130.5 285.5> 399 121<285.5 310 180.5 319.5> 491 20G<510 580 580 580>
VStem: 16 195<155.5 175 155.5 260.5>
LayerCount: 2
Fore
SplineSet
276 520 m 0,0,1
 382 520 382 520 425 443 c 1,2,-1
 510 511 l 1,3,-1
 580 511 l 1,4,-1
 483 -180 l 1,5,-1
 285 -180 l 1,6,-1
 318 52 l 1,7,8
 255 -11 255 -11 179.5 -11 c 128,-1,9
 104 -11 104 -11 60 39 c 128,-1,10
 16 89 16 89 16 184 c 0,11,12
 16 307.5 16 307.5 74 408.5 c 0,13,14
 103 459 103 459 155.5 489.5 c 128,-1,15
 208 520 208 520 276 520 c 0,0,1
342.5 384 m 128,-1,17
 328 399 328 399 302.5 399 c 128,-1,18
 277 399 277 399 256.5 379 c 128,-1,19
 236 359 236 359 232 329 c 0,20,21
 211 181 211 181 211 173 c 0,22,23
 211 147 211 147 226 130.5 c 128,-1,24
 241 114 241 114 268 114 c 128,-1,25
 295 114 295 114 313 133.5 c 128,-1,26
 331 153 331 153 336 184 c 2,27,-1
 346 256 l 2,28,29
 357 337 357 337 357 341 c 0,30,16
 357 369 357 369 342.5 384 c 128,-1,17
EndSplineSet
EndChar

StartChar: r
Encoding: 114 114 171
Width: 504
GlyphClass: 2
Flags: MW
HStem: 304 207<80 491 80 329> 304 217<345.5 426 345.5 491 329 426> 378 133<80 307>
VStem: 8 500<0 444> 332 176<332 444>
AnchorPoint: "Bottom" 105 0 basechar 0
LayerCount: 2
Fore
SplineSet
329 304 m 1,0,-1
 332 336 l 1,1,2
 332 378 332 378 297 378 c 0,3,4
 277 378 277 378 263.5 364 c 128,-1,5
 250 350 250 350 247 328 c 2,6,-1
 201 0 l 1,7,-1
 8 0 l 1,8,-1
 80 511 l 1,9,-1
 228 511 l 1,10,-1
 239 437 l 1,11,12
 251 459 251 459 292.5 490 c 128,-1,13
 334 521 334 521 389.5 521 c 128,-1,14
 445 521 445 521 476.5 491.5 c 128,-1,15
 508 462 508 462 508 410 c 0,16,17
 508 396 508 396 491 304 c 1,18,-1
 329 304 l 1,0,-1
EndSplineSet
EndChar

StartChar: racute
Encoding: 341 341 172
Width: 504
GlyphClass: 2
Flags: MW
HStem: 304 207<80 491 80 329> 304 217<345.5 426 345.5 491 329 426> 378 133<80 307> 575 145<252 258 140 403>
VStem: 8 500<0 444> 332 176<332 444>
AnchorPoint: "Bottom" 105 0 basechar 0
LayerCount: 2
Fore
SplineSet
404 717 m 1,0,-1
 258 575 l 1,1,-1
 140 575 l 1,2,-1
 252 720 l 1,3,-1
 403 720 l 1,4,-1
 404 717 l 1,0,-1
329 304 m 1,5,-1
 332 336 l 1,6,7
 332 378 332 378 297 378 c 0,8,9
 277 378 277 378 263.5 364 c 128,-1,10
 250 350 250 350 247 328 c 2,11,-1
 201 0 l 1,12,-1
 8 0 l 1,13,-1
 80 511 l 1,14,-1
 228 511 l 1,15,-1
 239 437 l 1,16,17
 251 459 251 459 292.5 490 c 128,-1,18
 334 521 334 521 389.5 521 c 128,-1,19
 445 521 445 521 476.5 491.5 c 128,-1,20
 508 462 508 462 508 410 c 0,21,22
 508 396 508 396 491 304 c 1,23,-1
 329 304 l 1,5,-1
EndSplineSet
EndChar

StartChar: rcaron
Encoding: 345 345 173
Width: 504
GlyphClass: 2
Flags: MW
HStem: 304 207<80 491 80 329> 304 217<345.5 426 345.5 491 329 426> 378 133<80 307> 575 145<167 179 49 295 167 167>
VStem: 8 500<0 444> 332 176<332 444>
AnchorPoint: "Bottom" 105 0 basechar 0
LayerCount: 2
Fore
SplineSet
295 575 m 1,0,-1
 167 575 l 1,1,-1
 49 720 l 1,2,-1
 179 720 l 1,3,-1
 242 643 l 1,4,-1
 327 720 l 1,5,-1
 455 720 l 1,6,-1
 295 575 l 1,0,-1
329 304 m 1,7,-1
 332 336 l 1,8,9
 332 378 332 378 297 378 c 0,10,11
 277 378 277 378 263.5 364 c 128,-1,12
 250 350 250 350 247 328 c 2,13,-1
 201 0 l 1,14,-1
 8 0 l 1,15,-1
 80 511 l 1,16,-1
 228 511 l 1,17,-1
 239 437 l 1,18,19
 251 459 251 459 292.5 490 c 128,-1,20
 334 521 334 521 389.5 521 c 128,-1,21
 445 521 445 521 476.5 491.5 c 128,-1,22
 508 462 508 462 508 410 c 0,23,24
 508 396 508 396 491 304 c 1,25,-1
 329 304 l 1,7,-1
EndSplineSet
EndChar

StartChar: rcommaaccent
Encoding: 343 343 174
Width: 504
GlyphClass: 2
Flags: MW
HStem: -171 151<6 70 -15 197> 304 207<80 491 80 329> 304 217<345.5 426 345.5 491 329 426> 378 133<80 307>
VStem: -15 523 332 176<332 444>
AnchorPoint: "Bottom" 105 0 basechar 0
LayerCount: 2
Fore
SplineSet
329 304 m 1,0,-1
 332 336 l 1,1,2
 332 378 332 378 297 378 c 0,3,4
 277 378 277 378 263.5 364 c 128,-1,5
 250 350 250 350 247 328 c 2,6,-1
 201 0 l 1,7,-1
 8 0 l 1,8,-1
 80 511 l 1,9,-1
 228 511 l 1,10,-1
 239 437 l 1,11,12
 251 459 251 459 292.5 490 c 128,-1,13
 334 521 334 521 389.5 521 c 128,-1,14
 445 521 445 521 476.5 491.5 c 128,-1,15
 508 462 508 462 508 410 c 0,16,17
 508 396 508 396 491 304 c 1,18,-1
 329 304 l 1,0,-1
180 -139 m 1,19,-1
 136 -250 l 1,20,-1
 42 -250 l 1,21,-1
 70 -171 l 1,22,-1
 -15 -171 l 1,23,-1
 6 -20 l 1,24,-1
 197 -20 l 1,25,-1
 180 -139 l 1,19,-1
EndSplineSet
EndChar

StartChar: s
Encoding: 115 115 175
Width: 559
GlyphClass: 2
Flags: MW
HStem: -10 121<229 230 230 240> 186.53 148.8 358 163<364 373.5 313 528 364 364> 403 118<313 314>
VStem: 1 165<79.5 156> 44 178<338.5 387 338.5 393.5> 335 181<141 178.5> 364 171<358 439.5 363 439.5>
AnchorPoint: "Bottom" 280 0 basechar 0
LayerCount: 2
Fore
SplineSet
535 397 m 0,0,1
 535 379 535 379 528 358 c 1,2,-1
 364 358 l 1,3,-1
 364 363 l 2,4,5
 364 403 364 403 300 403 c 0,6,7
 222 403 222 403 222 371 c 0,8,9
 222 354 222 354 252.5 346.5 c 128,-1,10
 283 339 283 339 326 334.5 c 128,-1,11
 369 330 369 330 412 320.5 c 128,-1,12
 455 311 455 311 485.5 280.5 c 128,-1,13
 516 250 516 250 516 199 c 0,14,15
 516 105 516 105 449 47.5 c 128,-1,16
 382 -10 382 -10 240 -10 c 2,17,-1
 230 -10 l 2,18,19
 1 -10 1 -10 1 127 c 0,20,21
 1 151 1 151 5 167 c 1,22,-1
 167 167 l 1,23,24
 166 166 166 166 166 163 c 2,25,-1
 166 156 l 2,26,27
 166 132 166 132 190.5 121.5 c 128,-1,28
 215 111 215 111 245 111 c 0,29,30
 335 111 335 111 335 145 c 0,31,32
 335 163 335 163 305 171.5 c 128,-1,33
 275 180 275 180 232.5 185.5 c 128,-1,34
 190 191 190 191 147 201.5 c 128,-1,35
 104 212 104 212 74 242 c 128,-1,36
 44 272 44 272 44 322.5 c 128,-1,37
 44 373 44 373 68.5 413 c 128,-1,38
 93 453 93 453 133.5 475.5 c 0,39,40
 215.4 521 215.4 521 313 521 c 2,41,-1
 321 521 l 2,42,43
 408 521 408 521 471.5 489 c 128,-1,44
 535 457 535 457 535 397 c 0,0,1
EndSplineSet
EndChar

StartChar: sacute
Encoding: 347 347 176
Width: 559
GlyphClass: 2
Flags: MW
HStem: -10 121<229 230 230 240> 186.53 148.8 358 163<364 373.5 313 528 364 364> 403 118<313 314> 575 145<350 356 238 501>
VStem: 1 165<79.5 156> 44 178<338.5 387 338.5 393.5> 335 181<141 178.5> 364 171<358 439.5 363 439.5>
AnchorPoint: "Bottom" 280 0 basechar 0
LayerCount: 2
Fore
SplineSet
502 717 m 1,0,-1
 356 575 l 1,1,-1
 238 575 l 1,2,-1
 350 720 l 1,3,-1
 501 720 l 1,4,-1
 502 717 l 1,0,-1
535 397 m 0,5,6
 535 379 535 379 528 358 c 1,7,-1
 364 358 l 1,8,-1
 364 363 l 2,9,10
 364 403 364 403 300 403 c 0,11,12
 222 403 222 403 222 371 c 0,13,14
 222 354 222 354 252.5 346.5 c 128,-1,15
 283 339 283 339 326 334.5 c 128,-1,16
 369 330 369 330 412 320.5 c 128,-1,17
 455 311 455 311 485.5 280.5 c 128,-1,18
 516 250 516 250 516 199 c 0,19,20
 516 105 516 105 449 47.5 c 128,-1,21
 382 -10 382 -10 240 -10 c 2,22,-1
 230 -10 l 2,23,24
 1 -10 1 -10 1 127 c 0,25,26
 1 151 1 151 5 167 c 1,27,-1
 167 167 l 1,28,29
 166 166 166 166 166 163 c 2,30,-1
 166 156 l 2,31,32
 166 132 166 132 190.5 121.5 c 128,-1,33
 215 111 215 111 245 111 c 0,34,35
 335 111 335 111 335 145 c 0,36,37
 335 163 335 163 305 171.5 c 128,-1,38
 275 180 275 180 232.5 185.5 c 128,-1,39
 190 191 190 191 147 201.5 c 128,-1,40
 104 212 104 212 74 242 c 128,-1,41
 44 272 44 272 44 322.5 c 128,-1,42
 44 373 44 373 68.5 413 c 128,-1,43
 93 453 93 453 133.5 475.5 c 0,44,45
 215.4 521 215.4 521 313 521 c 2,46,-1
 321 521 l 2,47,48
 408 521 408 521 471.5 489 c 128,-1,49
 535 457 535 457 535 397 c 0,5,6
EndSplineSet
EndChar

StartChar: scaron
Encoding: 353 353 177
Width: 559
GlyphClass: 2
Flags: MW
HStem: -10 121<229 230 230 240> 186.53 148.8 358 163<364 373.5 313 528 364 364> 403 118<313 314> 575 145<261 273 143 389 261 261>
VStem: 1 165<79.5 156> 44 178<338.5 387 338.5 393.5> 335 181<141 178.5> 364 171<358 439.5 363 439.5>
LayerCount: 2
Fore
SplineSet
389 575 m 1,0,-1
 261 575 l 1,1,-1
 143 720 l 1,2,-1
 273 720 l 1,3,-1
 336 643 l 1,4,-1
 421 720 l 1,5,-1
 549 720 l 1,6,-1
 389 575 l 1,0,-1
535 397 m 0,7,8
 535 379 535 379 528 358 c 1,9,-1
 364 358 l 1,10,-1
 364 363 l 2,11,12
 364 403 364 403 300 403 c 0,13,14
 222 403 222 403 222 371 c 0,15,16
 222 354 222 354 252.5 346.5 c 128,-1,17
 283 339 283 339 326 334.5 c 128,-1,18
 369 330 369 330 412 320.5 c 128,-1,19
 455 311 455 311 485.5 280.5 c 128,-1,20
 516 250 516 250 516 199 c 0,21,22
 516 105 516 105 449 47.5 c 128,-1,23
 382 -10 382 -10 240 -10 c 2,24,-1
 230 -10 l 2,25,26
 1 -10 1 -10 1 127 c 0,27,28
 1 151 1 151 5 167 c 1,29,-1
 167 167 l 1,30,31
 166 166 166 166 166 163 c 2,32,-1
 166 156 l 2,33,34
 166 132 166 132 190.5 121.5 c 128,-1,35
 215 111 215 111 245 111 c 0,36,37
 335 111 335 111 335 145 c 0,38,39
 335 163 335 163 305 171.5 c 128,-1,40
 275 180 275 180 232.5 185.5 c 128,-1,41
 190 191 190 191 147 201.5 c 128,-1,42
 104 212 104 212 74 242 c 128,-1,43
 44 272 44 272 44 322.5 c 128,-1,44
 44 373 44 373 68.5 413 c 128,-1,45
 93 453 93 453 133.5 475.5 c 0,46,47
 215.4 521 215.4 521 313 521 c 2,48,-1
 321 521 l 2,49,50
 408 521 408 521 471.5 489 c 128,-1,51
 535 457 535 457 535 397 c 0,7,8
EndSplineSet
EndChar

StartChar: scedilla
Encoding: 351 351 178
Width: 559
GlyphClass: 2
Flags: MW
HStem: -197 58<252 287.5 252 296> -76 59<275 285 267 296> -10 121<229 230 230 240> 186.53 148.8 358 163<364 373.5 313 528 364 364> 403 118<313 314>
VStem: 1 165<79.5 156> 44 178<338.5 387 338.5 393.5> 319 87<-114.5 -100 -100 -92.5> 335 181<141 178.5> 364 171<358 439.5 363 439.5>
AnchorPoint: "Bottom" 280 0 basechar 0
LayerCount: 2
Fore
SplineSet
535 397 m 0,0,1
 535 379 535 379 528 358 c 1,2,-1
 364 358 l 1,3,-1
 364 363 l 2,4,5
 364 403 364 403 300 403 c 0,6,7
 222 403 222 403 222 371 c 0,8,9
 222 354 222 354 252.5 346.5 c 128,-1,10
 283 339 283 339 326 334.5 c 128,-1,11
 369 330 369 330 412 320.5 c 128,-1,12
 455 311 455 311 485.5 280.5 c 128,-1,13
 516 250 516 250 516 199 c 0,14,15
 516 105 516 105 449 47.5 c 128,-1,16
 382 -10 382 -10 240 -10 c 2,17,-1
 230 -10 l 2,18,19
 1 -10 1 -10 1 127 c 0,20,21
 1 151 1 151 5 167 c 1,22,-1
 167 167 l 1,23,24
 166 166 166 166 166 163 c 2,25,-1
 166 156 l 2,26,27
 166 132 166 132 190.5 121.5 c 128,-1,28
 215 111 215 111 245 111 c 0,29,30
 335 111 335 111 335 145 c 0,31,32
 335 163 335 163 305 171.5 c 128,-1,33
 275 180 275 180 232.5 185.5 c 128,-1,34
 190 191 190 191 147 201.5 c 128,-1,35
 104 212 104 212 74 242 c 128,-1,36
 44 272 44 272 44 322.5 c 128,-1,37
 44 373 44 373 68.5 413 c 128,-1,38
 93 453 93 453 133.5 475.5 c 0,39,40
 215.4 521 215.4 521 313 521 c 2,41,-1
 321 521 l 2,42,43
 408 521 408 521 471.5 489 c 128,-1,44
 535 457 535 457 535 397 c 0,0,1
275 -17 m 1,45,-1
 296 -17 l 2,46,47
 406 -17 406 -17 406 -92 c 2,48,-1
 406 -100 l 2,49,50
 406 -128 406 -128 392 -148.5 c 128,-1,51
 378 -169 378 -169 356 -179 c 0,52,53
 316.4 -197 316.4 -197 275 -197 c 0,54,55
 194 -197 194 -197 154 -161 c 1,56,-1
 194 -107 l 1,57,58
 219 -139 219 -139 274 -139 c 0,59,60
 319 -139 319 -139 319 -100 c 0,61,62
 319 -76 319 -76 285 -76 c 2,63,-1
 267 -76 l 1,64,-1
 275 -17 l 1,45,-1
EndSplineSet
EndChar

StartChar: scommaaccent
Encoding: 537 537 179
Width: 559
GlyphClass: 2
Flags: MW
HStem: -171 151<181 245 160 372> -10 121<229 230 230 240> 186.53 148.8 358 163<364 373.5 313 528 364 364> 403 118<313 314>
VStem: 1 165<79.5 156> 44 178<338.5 387 338.5 393.5> 335 181<141 178.5> 364 171<358 439.5 363 439.5>
AnchorPoint: "Bottom" 280 0 basechar 0
LayerCount: 2
Fore
SplineSet
535 397 m 0,0,1
 535 379 535 379 528 358 c 1,2,-1
 364 358 l 1,3,-1
 364 363 l 2,4,5
 364 403 364 403 300 403 c 0,6,7
 222 403 222 403 222 371 c 0,8,9
 222 354 222 354 252.5 346.5 c 128,-1,10
 283 339 283 339 326 334.5 c 128,-1,11
 369 330 369 330 412 320.5 c 128,-1,12
 455 311 455 311 485.5 280.5 c 128,-1,13
 516 250 516 250 516 199 c 0,14,15
 516 105 516 105 449 47.5 c 128,-1,16
 382 -10 382 -10 240 -10 c 2,17,-1
 230 -10 l 2,18,19
 1 -10 1 -10 1 127 c 0,20,21
 1 151 1 151 5 167 c 1,22,-1
 167 167 l 1,23,24
 166 166 166 166 166 163 c 2,25,-1
 166 156 l 2,26,27
 166 132 166 132 190.5 121.5 c 128,-1,28
 215 111 215 111 245 111 c 0,29,30
 335 111 335 111 335 145 c 0,31,32
 335 163 335 163 305 171.5 c 128,-1,33
 275 180 275 180 232.5 185.5 c 128,-1,34
 190 191 190 191 147 201.5 c 128,-1,35
 104 212 104 212 74 242 c 128,-1,36
 44 272 44 272 44 322.5 c 128,-1,37
 44 373 44 373 68.5 413 c 128,-1,38
 93 453 93 453 133.5 475.5 c 0,39,40
 215.4 521 215.4 521 313 521 c 2,41,-1
 321 521 l 2,42,43
 408 521 408 521 471.5 489 c 128,-1,44
 535 457 535 457 535 397 c 0,0,1
355 -139 m 1,45,-1
 311 -250 l 1,46,-1
 217 -250 l 1,47,-1
 245 -171 l 1,48,-1
 160 -171 l 1,49,-1
 181 -20 l 1,50,-1
 372 -20 l 1,51,-1
 355 -139 l 1,45,-1
EndSplineSet
EndChar

StartChar: germandbls
Encoding: 223 223 180
Width: 652
GlyphClass: 2
Flags: MW
HStem: 0 148<301 329 329 343 280 329> 321 122<342 353 325 369> 369 142<56 98 36 118> 579 149<371 405>
VStem: 423 195<221 268.5> 444 194<532.5 537.5>
LayerCount: 2
Fore
SplineSet
410 728 m 0,0,1
 539.546666667 728 539.546666667 728 602.5 661.5 c 0,2,3
 638 624 638 624 638 568.5 c 128,-1,4
 638 513 638 513 606 464 c 128,-1,5
 574 415 574 415 521 395 c 1,6,-1
 521 390 l 1,7,8
 566 373 566 373 592 333 c 128,-1,9
 618 293 618 293 618 242 c 0,10,11
 618 134 618 134 542 67 c 128,-1,12
 466 0 466 0 343 0 c 2,13,-1
 280 0 l 1,14,-1
 301 148 l 1,15,-1
 329 148 l 2,16,17
 365 148 365 148 394 178 c 128,-1,18
 423 208 423 208 423 243.5 c 128,-1,19
 423 279 423 279 403.5 300 c 128,-1,20
 384 321 384 321 353 321 c 2,21,-1
 325 321 l 1,22,-1
 342 443 l 1,23,-1
 369 443 l 2,24,25
 398 443 398 443 421 466 c 128,-1,26
 444 489 444 489 444 517.5 c 128,-1,27
 444 546 444 546 428.5 562.5 c 128,-1,28
 413 579 413 579 387.5 579 c 128,-1,29
 362 579 362 579 341 559.5 c 128,-1,30
 320 540 320 540 316 511 c 2,31,-1
 235 -66 l 1,32,-1
 37 -66 l 1,33,-1
 98 369 l 1,34,-1
 36 369 l 1,35,-1
 56 511 l 1,36,-1
 118 511 l 1,37,38
 137 618 137 618 221 673 c 128,-1,39
 305 728 305 728 410 728 c 0,0,1
EndSplineSet
EndChar

StartChar: t
Encoding: 116 116 181
Width: 419
GlyphClass: 2
Flags: MW
HStem: -11 122<169.5 316.5> 369 142<54 90 34 110 308 408>
VStem: 54 205<59 164>
AnchorPoint: "Bottom" 210 0 basechar 0
LayerCount: 2
Fore
SplineSet
308 511 m 1,0,-1
 428 511 l 1,1,-1
 408 369 l 1,2,-1
 288 369 l 1,3,4
 259 173 259 173 259 152 c 0,5,6
 259 111 259 111 309 111 c 0,7,8
 343 111 343 111 372 123 c 1,9,-1
 356 11 l 1,10,11
 298 -11 298 -11 218.5 -11 c 128,-1,12
 139 -11 139 -11 96.5 15 c 128,-1,13
 54 41 54 41 54 102 c 0,14,15
 54 113 54 113 90 369 c 1,16,-1
 34 369 l 1,17,-1
 54 511 l 1,18,-1
 110 511 l 1,19,-1
 133 674 l 1,20,-1
 342 674 l 1,21,-1
 308 511 l 1,0,-1
EndSplineSet
EndChar

StartChar: tcaron
Encoding: 357 357 182
Width: 419
GlyphClass: 2
Flags: MW
HStem: -11 122<169.5 316.5> 338 173 369 142<54 90 34 110 308 408> 503 8 503 183<489 547 463 680>
VStem: 54 205<59 164>
AnchorPoint: "Bottom" 210 0 basechar 0
LayerCount: 2
Fore
SplineSet
657 525 m 1,0,-1
 581 338 l 1,1,-1
 487 338 l 1,2,-1
 547 503 l 1,3,-1
 463 503 l 1,4,-1
 489 686 l 1,5,-1
 680 686 l 1,6,-1
 657 525 l 1,0,-1
308 511 m 1,7,-1
 428 511 l 1,8,-1
 408 369 l 1,9,-1
 288 369 l 1,10,11
 259 173 259 173 259 152 c 0,12,13
 259 111 259 111 309 111 c 0,14,15
 343 111 343 111 372 123 c 1,16,-1
 356 11 l 1,17,18
 298 -11 298 -11 218.5 -11 c 128,-1,19
 139 -11 139 -11 96.5 15 c 128,-1,20
 54 41 54 41 54 102 c 0,21,22
 54 113 54 113 90 369 c 1,23,-1
 34 369 l 1,24,-1
 54 511 l 1,25,-1
 110 511 l 1,26,-1
 133 674 l 1,27,-1
 342 674 l 1,28,-1
 308 511 l 1,7,-1
EndSplineSet
EndChar

StartChar: tcedilla
Encoding: 355 355 183
Width: 419
GlyphClass: 2
Flags: MW
HStem: -197 58<182 217.5 182 226> -76 59<205 215 197 226> -11 122<169.5 316.5> 369 142<54 90 34 110 308 408>
VStem: 54 205<59 164> 249 87<-114.5 -100 -100 -92.5>
AnchorPoint: "Bottom" 210 0 basechar 0
LayerCount: 2
Fore
SplineSet
308 511 m 1,0,-1
 428 511 l 1,1,-1
 408 369 l 1,2,-1
 288 369 l 1,3,4
 259 173 259 173 259 152 c 0,5,6
 259 111 259 111 309 111 c 0,7,8
 343 111 343 111 372 123 c 1,9,-1
 356 11 l 1,10,11
 298 -11 298 -11 218.5 -11 c 128,-1,12
 139 -11 139 -11 96.5 15 c 128,-1,13
 54 41 54 41 54 102 c 0,14,15
 54 113 54 113 90 369 c 1,16,-1
 34 369 l 1,17,-1
 54 511 l 1,18,-1
 110 511 l 1,19,-1
 133 674 l 1,20,-1
 342 674 l 1,21,-1
 308 511 l 1,0,-1
205 -17 m 1,22,-1
 226 -17 l 2,23,24
 336 -17 336 -17 336 -92 c 2,25,-1
 336 -100 l 2,26,27
 336 -128 336 -128 322 -148.5 c 128,-1,28
 308 -169 308 -169 286 -179 c 0,29,30
 246.4 -197 246.4 -197 205 -197 c 0,31,32
 124 -197 124 -197 84 -161 c 1,33,-1
 124 -107 l 1,34,35
 149 -139 149 -139 204 -139 c 0,36,37
 249 -139 249 -139 249 -100 c 0,38,39
 249 -76 249 -76 215 -76 c 2,40,-1
 197 -76 l 1,41,-1
 205 -17 l 1,22,-1
EndSplineSet
EndChar

StartChar: tcommaaccent
Encoding: 539 539 184
Width: 419
GlyphClass: 2
Flags: MW
HStem: -171 151<111 175 90 302> -11 122<169.5 316.5> 369 142<54 90 34 110 308 408>
VStem: 54 205<59 164>
AnchorPoint: "Bottom" 210 0 basechar 0
LayerCount: 2
Fore
SplineSet
308 511 m 1,0,-1
 428 511 l 1,1,-1
 408 369 l 1,2,-1
 288 369 l 1,3,4
 259 173 259 173 259 152 c 0,5,6
 259 111 259 111 309 111 c 0,7,8
 343 111 343 111 372 123 c 1,9,-1
 356 11 l 1,10,11
 298 -11 298 -11 218.5 -11 c 128,-1,12
 139 -11 139 -11 96.5 15 c 128,-1,13
 54 41 54 41 54 102 c 0,14,15
 54 113 54 113 90 369 c 1,16,-1
 34 369 l 1,17,-1
 54 511 l 1,18,-1
 110 511 l 1,19,-1
 133 674 l 1,20,-1
 342 674 l 1,21,-1
 308 511 l 1,0,-1
285 -139 m 1,22,-1
 241 -250 l 1,23,-1
 147 -250 l 1,24,-1
 175 -171 l 1,25,-1
 90 -171 l 1,26,-1
 111 -20 l 1,27,-1
 302 -20 l 1,28,-1
 285 -139 l 1,22,-1
EndSplineSet
EndChar

StartChar: u
Encoding: 117 117 185
Width: 627
GlyphClass: 2
Flags: MW
HStem: -10 121<426.5 560> 491 20G<77 275 275 275 381 579 579 579>
VStem: 24 566<120 120 120 137.5>
LayerCount: 2
Fore
SplineSet
381 511 m 1,0,-1
 579 511 l 1,1,2
 527 161 527 161 527 143.5 c 0,3,4
 527 126 527 126 535 118.5 c 128,-1,5
 543 111 543 111 556 111 c 0,6,7
 569 111 569 111 590 120 c 1,8,-1
 575 13 l 1,9,10
 538 -10 538 -10 471 -10 c 0,11,12
 352 -10 352 -10 335 71 c 1,13,14
 272 -10 272 -10 168 -10 c 0,15,16
 99 -10 99 -10 61.5 26 c 128,-1,17
 24 62 24 62 24 123 c 0,18,19
 24 184 24 184 77 511 c 1,20,-1
 275 511 l 1,21,-1
 252 352 l 1,22,23
 229 210 229 210 229 184.5 c 0,24,25
 229 159 229 159 241 145 c 128,-1,26
 253 131 253 131 276.5 131 c 0,27,28
 300 131 300 131 316 148 c 128,-1,29
 332 165 332 165 336 191 c 2,30,-1
 381 511 l 1,0,-1
EndSplineSet
EndChar

StartChar: uacute
Encoding: 250 250 186
Width: 627
GlyphClass: 2
Flags: MW
HStem: -10 121<426.5 560> 491 20G<77 275 275 275 381 579 579 579> 575 145<379 385 267 530>
VStem: 24 566<120 120 120 137.5>
LayerCount: 2
Fore
SplineSet
531 717 m 1,0,-1
 385 575 l 1,1,-1
 267 575 l 1,2,-1
 379 720 l 1,3,-1
 530 720 l 1,4,-1
 531 717 l 1,0,-1
381 511 m 1,5,-1
 579 511 l 1,6,7
 527 161 527 161 527 143.5 c 0,8,9
 527 126 527 126 535 118.5 c 128,-1,10
 543 111 543 111 556 111 c 0,11,12
 569 111 569 111 590 120 c 1,13,-1
 575 13 l 1,14,15
 538 -10 538 -10 471 -10 c 0,16,17
 352 -10 352 -10 335 71 c 1,18,19
 272 -10 272 -10 168 -10 c 0,20,21
 99 -10 99 -10 61.5 26 c 128,-1,22
 24 62 24 62 24 123 c 0,23,24
 24 184 24 184 77 511 c 1,25,-1
 275 511 l 1,26,-1
 252 352 l 1,27,28
 229 210 229 210 229 184.5 c 0,29,30
 229 159 229 159 241 145 c 128,-1,31
 253 131 253 131 276.5 131 c 0,32,33
 300 131 300 131 316 148 c 128,-1,34
 332 165 332 165 336 191 c 2,35,-1
 381 511 l 1,5,-1
EndSplineSet
EndChar

StartChar: ucircumflex
Encoding: 251 251 187
Width: 627
GlyphClass: 2
Flags: MW
HStem: -10 121<426.5 560> 491 20G<77 275 275 275 381 579 579 579> 575 145<135 423 411 423 295 541 411 411> 652 68<348 348>
VStem: 24 566<120 120 120 137.5>
LayerCount: 2
Fore
SplineSet
541 575 m 1,0,-1
 411 575 l 1,1,-1
 348 652 l 1,2,-1
 263 575 l 1,3,-1
 135 575 l 1,4,-1
 295 720 l 1,5,-1
 423 720 l 1,6,-1
 541 575 l 1,0,-1
381 511 m 1,7,-1
 579 511 l 1,8,9
 527 161 527 161 527 143.5 c 0,10,11
 527 126 527 126 535 118.5 c 128,-1,12
 543 111 543 111 556 111 c 0,13,14
 569 111 569 111 590 120 c 1,15,-1
 575 13 l 1,16,17
 538 -10 538 -10 471 -10 c 0,18,19
 352 -10 352 -10 335 71 c 1,20,21
 272 -10 272 -10 168 -10 c 0,22,23
 99 -10 99 -10 61.5 26 c 128,-1,24
 24 62 24 62 24 123 c 0,25,26
 24 184 24 184 77 511 c 1,27,-1
 275 511 l 1,28,-1
 252 352 l 1,29,30
 229 210 229 210 229 184.5 c 0,31,32
 229 159 229 159 241 145 c 128,-1,33
 253 131 253 131 276.5 131 c 0,34,35
 300 131 300 131 316 148 c 128,-1,36
 332 165 332 165 336 191 c 2,37,-1
 381 511 l 1,7,-1
EndSplineSet
EndChar

StartChar: udieresis
Encoding: 252 252 188
Width: 627
GlyphClass: 2
Flags: MW
HStem: -10 121<426.5 560> 491 20G<77 275 275 275 381 579 579 579> 573 147<170 301 149 322 170 369 390 521>
VStem: 24 566<120 120 120 137.5>
LayerCount: 2
Fore
SplineSet
301 573 m 1,0,-1
 149 573 l 1,1,-1
 170 720 l 1,2,-1
 322 720 l 1,3,-1
 301 573 l 1,0,-1
521 573 m 1,4,-1
 369 573 l 1,5,-1
 390 720 l 1,6,-1
 542 720 l 1,7,-1
 521 573 l 1,4,-1
381 511 m 1,8,-1
 579 511 l 1,9,10
 527 161 527 161 527 143.5 c 0,11,12
 527 126 527 126 535 118.5 c 128,-1,13
 543 111 543 111 556 111 c 0,14,15
 569 111 569 111 590 120 c 1,16,-1
 575 13 l 1,17,18
 538 -10 538 -10 471 -10 c 0,19,20
 352 -10 352 -10 335 71 c 1,21,22
 272 -10 272 -10 168 -10 c 0,23,24
 99 -10 99 -10 61.5 26 c 128,-1,25
 24 62 24 62 24 123 c 0,26,27
 24 184 24 184 77 511 c 1,28,-1
 275 511 l 1,29,-1
 252 352 l 1,30,31
 229 210 229 210 229 184.5 c 0,32,33
 229 159 229 159 241 145 c 128,-1,34
 253 131 253 131 276.5 131 c 0,35,36
 300 131 300 131 316 148 c 128,-1,37
 332 165 332 165 336 191 c 2,38,-1
 381 511 l 1,8,-1
EndSplineSet
EndChar

StartChar: ugrave
Encoding: 249 249 189
Width: 627
GlyphClass: 2
Flags: MW
HStem: -10 121<426.5 560> 491 20G<77 275 275 275 381 579 579 579> 575 145<275 323 172 393 275 275>
VStem: 24 566<120 120 120 137.5>
LayerCount: 2
Fore
SplineSet
393 575 m 1,0,-1
 275 575 l 1,1,-1
 169 717 l 1,2,-1
 172 720 l 1,3,-1
 323 720 l 1,4,-1
 393 575 l 1,0,-1
381 511 m 1,5,-1
 579 511 l 1,6,7
 527 161 527 161 527 143.5 c 0,8,9
 527 126 527 126 535 118.5 c 128,-1,10
 543 111 543 111 556 111 c 0,11,12
 569 111 569 111 590 120 c 1,13,-1
 575 13 l 1,14,15
 538 -10 538 -10 471 -10 c 0,16,17
 352 -10 352 -10 335 71 c 1,18,19
 272 -10 272 -10 168 -10 c 0,20,21
 99 -10 99 -10 61.5 26 c 128,-1,22
 24 62 24 62 24 123 c 0,23,24
 24 184 24 184 77 511 c 1,25,-1
 275 511 l 1,26,-1
 252 352 l 1,27,28
 229 210 229 210 229 184.5 c 0,29,30
 229 159 229 159 241 145 c 128,-1,31
 253 131 253 131 276.5 131 c 0,32,33
 300 131 300 131 316 148 c 128,-1,34
 332 165 332 165 336 191 c 2,35,-1
 381 511 l 1,5,-1
EndSplineSet
EndChar

StartChar: uhungarumlaut
Encoding: 369 369 190
Width: 627
GlyphClass: 2
Flags: MW
HStem: -10 121<426.5 560> 491 20G<77 275 275 275 381 579 579 579> 575 145<264 270 152 415 379 379 379 415 491 497>
VStem: 24 619<82.5 717>
LayerCount: 2
Fore
SplineSet
416 717 m 1,0,-1
 270 575 l 1,1,-1
 152 575 l 1,2,-1
 264 720 l 1,3,-1
 415 720 l 1,4,-1
 416 717 l 1,0,-1
643 717 m 1,5,-1
 497 575 l 1,6,-1
 379 575 l 1,7,-1
 491 720 l 1,8,-1
 642 720 l 1,9,-1
 643 717 l 1,5,-1
381 511 m 1,10,-1
 579 511 l 1,11,12
 527 161 527 161 527 143.5 c 0,13,14
 527 126 527 126 535 118.5 c 128,-1,15
 543 111 543 111 556 111 c 0,16,17
 569 111 569 111 590 120 c 1,18,-1
 575 13 l 1,19,20
 538 -10 538 -10 471 -10 c 0,21,22
 352 -10 352 -10 335 71 c 1,23,24
 272 -10 272 -10 168 -10 c 0,25,26
 99 -10 99 -10 61.5 26 c 128,-1,27
 24 62 24 62 24 123 c 0,28,29
 24 184 24 184 77 511 c 1,30,-1
 275 511 l 1,31,-1
 252 352 l 1,32,33
 229 210 229 210 229 184.5 c 0,34,35
 229 159 229 159 241 145 c 128,-1,36
 253 131 253 131 276.5 131 c 0,37,38
 300 131 300 131 316 148 c 128,-1,39
 332 165 332 165 336 191 c 2,40,-1
 381 511 l 1,10,-1
EndSplineSet
EndChar

StartChar: umacron
Encoding: 363 363 191
Width: 627
GlyphClass: 2
Flags: MW
HStem: -10 121<426.5 560> 491 20G<77 275 275 275 381 579 579 579> 662 74<179 497 179 497>
VStem: 179 318<662 736 662 736>
LayerCount: 2
Fore
SplineSet
497 662 m 1,0,-1
 179 662 l 1,1,-1
 179 736 l 1,2,-1
 497 736 l 1,3,-1
 497 662 l 1,0,-1
381 511 m 1,4,-1
 579 511 l 1,5,6
 527 161 527 161 527 143.5 c 0,7,8
 527 126 527 126 535 118.5 c 128,-1,9
 543 111 543 111 556 111 c 0,10,11
 569 111 569 111 590 120 c 1,12,-1
 575 13 l 1,13,14
 538 -10 538 -10 471 -10 c 0,15,16
 352 -10 352 -10 335 71 c 1,17,18
 272 -10 272 -10 168 -10 c 0,19,20
 99 -10 99 -10 61.5 26 c 128,-1,21
 24 62 24 62 24 123 c 0,22,23
 24 184 24 184 77 511 c 1,24,-1
 275 511 l 1,25,-1
 252 352 l 1,26,27
 229 210 229 210 229 184.5 c 0,28,29
 229 159 229 159 241 145 c 128,-1,30
 253 131 253 131 276.5 131 c 0,31,32
 300 131 300 131 316 148 c 128,-1,33
 332 165 332 165 336 191 c 2,34,-1
 381 511 l 1,4,-1
EndSplineSet
EndChar

StartChar: uogonek
Encoding: 371 371 192
Width: 627
GlyphClass: 2
Flags: MW
HStem: -143 53<494.5 559.5> -20 20G<546 564 564 564> -10 141<120 292.5 259.5 471> 491 20G<77 275 275 275 381 579 579 579>
VStem: 429 79<-72.5 -66.5>
LayerCount: 2
Fore
SplineSet
617 -76 m 1,0,-1
 624 -119 l 1,1,2
 572 -143 572 -143 525.5 -143 c 0,3,4
 429 -143 429 -143 429 -83 c 0,5,6
 429 -44 429 -44 478 -10 c 1,7,-1
 471 -10 l 2,8,9
 352 -10 352 -10 335 71 c 1,10,11
 272 -10 272 -10 168 -10 c 0,12,13
 99 -10 99 -10 61.5 26 c 128,-1,14
 24 62 24 62 24 123 c 128,-1,15
 24 184 24 184 77 511 c 1,16,-1
 275 511 l 1,17,-1
 252 352 l 1,18,19
 229 210 229 210 229 184.5 c 128,-1,20
 229 159 229 159 241 145 c 128,-1,21
 253 131 253 131 276.5 131 c 128,-1,22
 300 131 300 131 316 148 c 128,-1,23
 332 165 332 165 336 191 c 2,24,-1
 381 511 l 1,25,-1
 579 511 l 1,26,27
 527 161 527 161 527 143.5 c 128,-1,28
 527 126 527 126 535 118.5 c 128,-1,29
 543 111 543 111 556 111 c 128,-1,30
 569 111 569 111 590 120 c 1,31,-1
 575 13 l 1,32,33
 564 6 564 6 546 0 c 1,34,-1
 564 0 l 1,35,36
 547 -10 547 -10 538 -15.5 c 128,-1,37
 529 -21 529 -21 518.5 -34.5 c 128,-1,38
 508 -48 508 -48 508 -62 c 0,39,40
 508 -90 508 -90 548 -90 c 0,41,42
 577 -90 577 -90 617 -76 c 1,0,-1
EndSplineSet
EndChar

StartChar: uring
Encoding: 367 367 193
Width: 627
GlyphClass: 2
Flags: MW
HStem: -10 121<426.5 560> 491 20G<77 275 275 275 381 579 579 579> 545 65<314.5 333.5 314.5 346> 680 66<321.5 342.5>
VStem: 226 67<631.5 651.5 631.5 663> 364 66<635.5 658.5>
LayerCount: 2
Fore
SplineSet
261 712 m 128,-1,1
 296 746 296 746 338.5 746 c 128,-1,2
 381 746 381 746 405.5 721.5 c 128,-1,3
 430 697 430 697 430 654.5 c 128,-1,4
 430 612 430 612 396 578.5 c 128,-1,5
 362 545 362 545 319 545 c 128,-1,6
 276 545 276 545 251 569.5 c 128,-1,7
 226 594 226 594 226 636 c 128,-1,0
 226 678 226 678 261 712 c 128,-1,1
333 680 m 0,8,9
 316 680 316 680 304.5 668.5 c 128,-1,10
 293 657 293 657 293 642 c 128,-1,11
 293 627 293 627 301.5 618.5 c 128,-1,12
 310 610 310 610 325 610 c 128,-1,13
 340 610 340 610 352 620 c 128,-1,14
 364 630 364 630 364 649 c 0,15,16
 364 680 364 680 333 680 c 0,8,9
381 511 m 1,17,-1
 579 511 l 1,18,19
 527 161 527 161 527 143.5 c 128,-1,20
 527 126 527 126 535 118.5 c 128,-1,21
 543 111 543 111 556 111 c 128,-1,22
 569 111 569 111 590 120 c 1,23,-1
 575 13 l 1,24,25
 538 -10 538 -10 471 -10 c 0,26,27
 352 -10 352 -10 335 71 c 1,28,29
 272 -10 272 -10 168 -10 c 0,30,31
 99 -10 99 -10 61.5 26 c 128,-1,32
 24 62 24 62 24 123 c 128,-1,33
 24 184 24 184 77 511 c 1,34,-1
 275 511 l 1,35,-1
 252 352 l 1,36,37
 229 210 229 210 229 184.5 c 128,-1,38
 229 159 229 159 241 145 c 128,-1,39
 253 131 253 131 276.5 131 c 128,-1,40
 300 131 300 131 316 148 c 128,-1,41
 332 165 332 165 336 191 c 2,42,-1
 381 511 l 1,17,-1
EndSplineSet
EndChar

StartChar: v
Encoding: 118 118 194
Width: 558
GlyphClass: 2
Flags: MW
HStem: 0 219<272 279 272 350 121 279> 491 20G<27 238 238 238 395 588 588 588>
VStem: 27 561<511 511>
LayerCount: 2
Fore
SplineSet
350 0 m 1,0,-1
 121 0 l 1,1,-1
 27 511 l 1,2,-1
 238 511 l 1,3,-1
 272 219 l 1,4,-1
 279 219 l 1,5,-1
 395 511 l 1,6,-1
 588 511 l 1,7,-1
 350 0 l 1,0,-1
EndSplineSet
EndChar

StartChar: w
Encoding: 119 119 195
Width: 855
GlyphClass: 2
Flags: MW
HStem: 0 253<260 267 260 335 107 267 588 596 260 440> 491 20G<33 239 239 239 364 564 564 564 689 881 881 881>
VStem: 33 848<511 511>
LayerCount: 2
Fore
SplineSet
664 0 m 1,0,-1
 440 0 l 1,1,-1
 421 213 l 1,2,-1
 413 213 l 1,3,-1
 335 0 l 1,4,-1
 107 0 l 1,5,-1
 33 511 l 1,6,-1
 239 511 l 1,7,-1
 260 253 l 1,8,-1
 267 253 l 1,9,-1
 364 511 l 1,10,-1
 564 511 l 1,11,-1
 588 253 l 1,12,-1
 596 253 l 1,13,-1
 689 511 l 1,14,-1
 881 511 l 1,15,-1
 664 0 l 1,0,-1
EndSplineSet
EndChar

StartChar: x
Encoding: 120 120 196
Width: 583
GlyphClass: 2
Flags: MW
HStem: 491 20G<40 267 267 267 395 608 608 608>
VStem: -48 656<0 511>
LayerCount: 2
Fore
SplineSet
418 265 m 1,0,-1
 548 0 l 1,1,-1
 321 0 l 1,2,-1
 265 143 l 1,3,-1
 261 143 l 1,4,-1
 164 0 l 1,5,-1
 -48 0 l 1,6,-1
 159 270 l 1,7,-1
 40 511 l 1,8,-1
 267 511 l 1,9,-1
 313 393 l 1,10,-1
 317 393 l 1,11,-1
 395 511 l 1,12,-1
 608 511 l 1,13,-1
 418 265 l 1,0,-1
EndSplineSet
EndChar

StartChar: y
Encoding: 121 121 197
Width: 552
GlyphClass: 2
Flags: MW
HStem: -187 130<42 86.5 42 122> 491 20G<26 237 237 237 391 586 586 586>
VStem: -34 620
LayerCount: 2
Fore
SplineSet
586 511 m 1,0,-1
 347 36 l 2,1,2
 296 -65 296 -65 222 -126 c 128,-1,3
 148 -187 148 -187 61 -187 c 0,4,5
 -8 -187 -8 -187 -34 -172 c 1,6,-1
 -17 -43 l 1,7,8
 9 -57 9 -57 56 -57 c 0,9,10
 121 -57 121 -57 144 15 c 1,11,-1
 26 511 l 1,12,-1
 237 511 l 1,13,-1
 278 246 l 1,14,-1
 286 246 l 1,15,-1
 391 511 l 1,16,-1
 586 511 l 1,0,-1
EndSplineSet
EndChar

